<?xml version="1.0" standalone="no"?>
<!DOCTYPE svg PUBLIC "-//W3C//DTD SVG 1.1//EN" "http://www.w3.org/Graphics/SVG/1.1/DTD/svg11.dtd" >
<svg xmlns="http://www.w3.org/2000/svg">
<metadata>
<json>
<![CDATA[
{
	"fontFamily": "AH-font",
	"majorVersion": 1,
	"minorVersion": 0,
	"designer": "Domca's",
	"designerURL": "http://www.domcas.com",
	"license": "Copyright Domca's",
	"version": "Version 1.0",
	"fontId": "AH-font",
	"psName": "AH-font",
	"subFamily": "Regular",
	"fullName": "AH-font",
	"description": "Font generated by IcoMoon."
}
]]>
</json>
</metadata>
<defs>
<font id="AH-font" horiz-adv-x="1024">
<font-face units-per-em="1024" ascent="960" descent="-64" />
<missing-glyph horiz-adv-x="1024" />
<glyph unicode="&#x20;" horiz-adv-x="512" d="" />
<glyph unicode="&#xe600;" glyph-name="airconditioning" data-tags="air conditioning" d="M907.636 198.982h-134.982l95.418 95.418c11.636 11.636 11.636 30.255 0 39.564-11.636 11.636-30.255 11.636-39.564 0l-97.745-95.418v137.309c0 16.291-13.964 27.927-27.927 27.927-16.291 0-27.927-13.964-27.927-27.927v-134.982l-95.418 95.418c-11.636 11.636-30.255 11.636-39.564 0-11.636-11.636-11.636-30.255 0-39.564l95.418-95.418h-137.309c-16.291 0-27.927-13.964-27.927-27.927 0-16.291 13.964-27.927 27.927-27.927h134.982l-95.418-95.418c-11.636-11.636-11.636-30.255 0-39.564 11.636-11.636 30.255-11.636 39.564 0l95.418 95.418v-137.309c0-16.291 13.964-27.927 27.927-27.927 16.291 0 27.927 13.964 27.927 27.927v134.982l95.418-95.418c11.636-11.636 30.255-11.636 39.564 0 11.636 11.636 11.636 30.255 0 39.564l-95.418 95.418h137.309c16.291 0 27.927 13.964 27.927 27.927 2.327 13.964-11.636 27.927-25.6 27.927zM812.218 671.418h65.164c13.964 0 23.273 11.636 23.273 23.273s-11.636 23.273-23.273 23.273h-65.164c-13.964 0-23.273-11.636-23.273-23.273 0-13.964 11.636-23.273 23.273-23.273zM842.473 317.673l-2.327-2.327h11.636c0 0 0 2.327-2.327 2.327-2.327 2.327-4.655 2.327-6.982 0zM698.182 361.891h9.309v-46.545h-9.309v46.545zM774.982 315.345l34.909 34.909c4.655 4.655 9.309 6.982 16.291 11.636h-72.145v-46.545h20.945zM593.455 352.582l37.236-37.236h20.945v46.545h-72.145c4.655-2.327 9.309-6.982 13.964-9.309zM565.527 315.345l-2.327 2.327c-2.327 2.327-4.655 2.327-6.982 0 0 0-2.327-2.327-2.327-2.327h11.636zM928.582 957.673h-833.164c-51.2 0-95.418-41.891-95.418-95.418v-453.818c0-51.2 41.891-95.418 95.418-95.418h409.6c0 13.964 4.655 25.6 13.964 34.909 4.655 4.655 9.309 6.982 16.291 11.636h-439.855c-25.6 2.327-48.873 23.273-48.873 51.2v0h616.727c9.309 9.309 23.273 16.291 37.236 16.291s27.927-6.982 37.236-16.291h237.382c0-25.6-20.945-48.873-48.873-48.873h-60.509c4.655-2.327 11.636-4.655 16.291-9.309 9.309-9.309 16.291-23.273 16.291-37.236h27.927c51.2 0 95.418 41.891 95.418 95.418v353.745c0 44.218 0 79.127 0 104.727-2.327 67.491-39.564 88.436-93.091 88.436zM975.127 457.309h-928.582v41.891h928.582v-41.891zM975.127 545.745h-928.582v318.836c0 25.6 23.273 48.873 48.873 48.873h830.836c51.2 0 48.873-23.273 48.873-148.945v-218.764z" />
<glyph unicode="&#xe601;" glyph-name="anchor" data-tags="anchor" d="M912.291 387.491h-86.109c-13.964 0-25.6-11.636-25.6-25.6s11.636-25.6 25.6-25.6h58.182c-11.636-186.182-160.582-335.127-346.764-346.764v525.964h107.055c13.964 0 25.6 11.636 25.6 25.6s-11.636 25.6-25.6 25.6h-107.055v125.673c62.836 11.636 109.382 67.491 109.382 132.655 0 74.473-60.509 134.982-134.982 134.982s-134.982-60.509-134.982-134.982c0-62.836 46.545-118.691 109.382-132.655v-125.673h-107.055c-13.964 0-25.6-11.636-25.6-25.6s11.636-25.6 25.6-25.6h107.055v-525.964c-186.182 11.636-335.127 160.582-346.764 346.764h60.509c13.964 0 25.6 11.636 25.6 25.6s-11.636 25.6-25.6 25.6h-88.436c-13.964 0-25.6-11.636-25.6-25.6 0-232.727 190.836-425.891 425.891-425.891s425.891 190.836 425.891 425.891c0 13.964-11.636 25.6-25.6 25.6zM595.782 825.018c0-46.545-37.236-83.782-83.782-83.782s-83.782 37.236-83.782 83.782c0 46.545 37.236 83.782 83.782 83.782s83.782-39.564 83.782-83.782z" />
<glyph unicode="&#xe602;" glyph-name="apartment" data-tags="apartment" d="M998.4 12.8l-193.164 304.873c23.273 25.6 39.564 55.855 46.545 88.436 2.327 13.964 4.655 27.927 4.655 41.891 0 90.764-65.164 172.218-153.6 190.836-104.727 23.273-211.782-44.218-235.055-148.945-2.327-13.964-4.655-27.927-4.655-41.891 0-90.764 65.164-172.218 153.6-190.836 37.236-9.309 74.473-4.655 107.055 6.982l193.164-304.873c6.982-11.636 18.618-18.618 30.255-20.945s25.6 0 37.236 6.982c20.945 13.964 27.927 44.218 13.964 67.491zM626.036 301.382c-67.491 13.964-118.691 76.8-118.691 146.618 0 11.636 2.327 20.945 4.655 32.582 18.618 81.455 97.745 132.655 179.2 114.036 67.491-13.964 118.691-76.8 118.691-146.618 0-11.636-2.327-20.945-4.655-32.582-18.618-79.127-97.745-130.327-179.2-114.036zM751.709 536.436c-13.964 16.291-41.891 41.891-88.436 46.545-13.964 0-23.273-11.636-23.273-23.273v-2.327c0-11.636 9.309-18.618 20.945-18.618 25.6-2.327 44.218-16.291 53.527-27.927 9.309-9.309 11.636-20.945 13.964-30.255 2.327-6.982 6.982-13.964 13.964-16.291 16.291-4.655 30.255 6.982 27.927 23.273-2.327 18.618-6.982 34.909-18.618 48.873zM200.145 797.091c0 13.964-9.309 23.273-23.273 23.273s-23.273-9.309-23.273-23.273v-111.709c0-13.964 9.309-23.273 23.273-23.273s23.273 9.309 23.273 23.273v111.709zM381.673 797.091c0 13.964-9.309 23.273-23.273 23.273s-23.273-9.309-23.273-23.273v-111.709c0-13.964 9.309-23.273 23.273-23.273s23.273 9.309 23.273 23.273v111.709zM516.655 797.091v-111.709c0-13.964 9.309-23.273 23.273-23.273s23.273 9.309 23.273 23.273v111.709c0 13.964-9.309 23.273-23.273 23.273s-23.273-9.309-23.273-23.273zM200.145 531.782c0 13.964-9.309 23.273-23.273 23.273s-23.273-9.309-23.273-23.273v-111.709c0-13.964 9.309-23.273 23.273-23.273s23.273 9.309 23.273 23.273v111.709zM381.673 531.782c0 13.964-9.309 23.273-23.273 23.273s-23.273-9.309-23.273-23.273v-111.709c0-13.964 9.309-23.273 23.273-23.273s23.273 9.309 23.273 23.273v111.709zM200.145 145.455v111.709c0 13.964-9.309 23.273-23.273 23.273s-23.273-9.309-23.273-23.273v-111.709c0-13.964 9.309-23.273 23.273-23.273s23.273 9.309 23.273 23.273zM335.127 257.164v-111.709c0-13.964 9.309-23.273 23.273-23.273s23.273 9.309 23.273 23.273v111.709c0 13.964-9.309 23.273-23.273 23.273-11.636 0-23.273-11.636-23.273-23.273zM516.655 257.164v-111.709c0-13.964 9.309-23.273 23.273-23.273s23.273 9.309 23.273 23.273v111.709c0 13.964-9.309 23.273-23.273 23.273s-23.273-11.636-23.273-23.273zM644.655 229.236v-197.818c0-25.6-20.945-48.873-48.873-48.873h-481.745c-25.6 0-48.873 20.945-48.873 48.873v833.164c0 25.6 23.273 48.873 48.873 48.873h481.745c25.6 0 48.873-20.945 48.873-48.873v-195.491c4.655 0 9.309 0 13.964 0 11.636 0 23.273 0 32.582-2.327v197.818c0 51.2-41.891 95.418-95.418 95.418h-481.745c-51.2 0-95.418-44.218-95.418-95.418v-833.164c0-51.2 41.891-95.418 95.418-95.418h481.745c51.2 0 95.418 41.891 95.418 95.418v200.145c-16.291-2.327-30.255-2.327-46.545-2.327z" />
<glyph unicode="&#xe603;" glyph-name="beach_1" data-tags="beach_1" d="M998.4 31.418h-640c-13.964 0-25.6 4.655-37.236 9.309l-46.545 53.527-232.727 314.182c-6.982 9.309-23.273 11.636-32.582 4.655s-11.636-23.273-4.655-32.582l146.618-197.818-144.291-162.909c-6.982-9.309-6.982-25.6 4.655-32.582 9.309-6.982 25.6-6.982 32.582 4.655l137.309 151.273 97.745-132.655c13.964-18.618 34.909-27.927 58.182-27.927h665.6c13.964 0 23.273 9.309 23.273 23.273v0c-2.327 16.291-13.964 25.6-27.927 25.6zM116.364 859.927c4.655-11.636 16.291-16.291 27.927-13.964 32.582 11.636 97.745 27.927 146.618 4.655 27.927-13.964 48.873-37.236 60.509-74.473-132.655-125.673-188.509-295.564-209.455-432.873l41.891-58.182c13.964 139.636 60.509 316.509 188.509 446.836 11.636-6.982 18.618-16.291 20.945-27.927 9.309-30.255-9.309-72.145-23.273-97.745-4.655-11.636-2.327-23.273 6.982-30.255v0c11.636-6.982 27.927-4.655 32.582 6.982 16.291 30.255 39.564 83.782 27.927 132.655-2.327 11.636-9.309 20.945-16.291 30.255 20.945 0 39.564-6.982 58.182-16.291 46.545-30.255 65.164-95.418 72.145-128 2.327-11.636 13.964-18.618 25.6-18.618v0c13.964 2.327 23.273 13.964 20.945 27.927-9.309 39.564-32.582 116.364-93.091 155.927-32.582 20.945-67.491 27.927-109.382 23.273-16.291 48.873-44.218 83.782-86.109 102.4-62.836 32.582-141.964 11.636-181.527-2.327-11.636-4.655-18.618-18.618-11.636-30.255v0zM400.291 126.836c-20.945 6.982-53.527 93.091-79.127 116.364-9.309 9.309-20.945 11.636-32.582 6.982-18.618-9.309-13.964-34.909-4.655-48.873l72.145-121.018c13.964-20.945 34.909-30.255 58.182-20.945l169.891 62.836c23.273 9.309 34.909 6.982 48.873 0 0 0 151.273-60.509 188.509-79.127 34.909-16.291 41.891 11.636 25.6 20.945-39.564 18.618-188.509 97.745-188.509 97.745-34.909 20.945-60.509 18.618-88.436 9.309-55.855-18.618-146.618-51.2-169.891-44.218zM330.473 317.673c0-32.133-26.049-58.182-58.182-58.182s-58.182 26.049-58.182 58.182c0 32.133 26.049 58.182 58.182 58.182s58.182-26.049 58.182-58.182z" />
<glyph unicode="&#xe604;" glyph-name="beach" data-tags="beach" d="M637.673 734.255h41.891c4.655-23.273 13.964-46.545 27.927-65.164l-30.255-30.255c-9.309-9.309-9.309-23.273 0-30.255v0c9.309-9.309 23.273-9.309 30.255 0l30.255 30.255c16.291-11.636 37.236-18.618 58.182-23.273v-41.891c0-11.636 9.309-20.945 20.945-20.945s20.945 9.309 20.945 20.945v41.891c23.273 2.327 41.891 11.636 60.509 25.6l32.582-32.582c9.309-9.309 23.273-9.309 30.255 0 9.309 9.309 9.309 23.273 0 30.255l-30.255 30.255c13.964 18.618 23.273 39.564 25.6 62.836h41.891c11.636 0 20.945 9.309 20.945 20.945s-9.309 20.945-20.945 20.945h-41.891c-2.327 20.945-11.636 39.564-23.273 58.182l30.255 30.255c9.309 9.309 9.309 23.273 0 30.255-9.309 9.309-23.273 9.309-30.255 0l-25.6-27.927c-18.618 13.964-41.891 25.6-65.164 27.927v44.218c0 11.636-9.309 20.945-20.945 20.945s-20.945-9.309-20.945-20.945v-41.891c-23.273-4.655-44.218-11.636-62.836-25.6l-30.255 30.255c-9.309 9.309-23.273 9.309-30.255 0-9.309-9.309-9.309-23.273 0-30.255l30.255-30.255c-11.636-18.618-20.945-37.236-25.6-60.509h-44.218c-11.636 0-20.945-9.309-20.945-20.945 0-13.964 9.309-23.273 20.945-23.273zM819.2 852.945c53.527 0 97.745-44.218 97.745-97.745s-44.218-97.745-97.745-97.745c-53.527 0-97.745 44.218-97.745 97.745s44.218 97.745 97.745 97.745zM998.4-17.455h-635.345c-13.964 0-25.6 4.655-34.909 9.309l-46.545 53.527-230.4 316.509c-6.982 9.309-23.273 11.636-32.582 4.655s-11.636-20.945-4.655-32.582l144.291-197.818-144.291-160.582c-6.982-9.309-6.982-25.6 4.655-32.582 9.309-6.982 25.6-6.982 32.582 4.655l134.982 151.273 97.745-132.655c13.964-18.618 34.909-27.927 55.855-27.927h658.618c13.964 0 23.273 9.309 23.273 23.273v0c0 11.636-9.309 20.945-23.273 20.945zM23.273 417.745c11.636 0 20.945 9.309 20.945 20.945 0 0 0 11.636 6.982 18.618s16.291 9.309 32.582 9.309c44.218 0 53.527-32.582 53.527-32.582 2.327-9.309 11.636-16.291 20.945-16.291s18.618 6.982 20.945 16.291c0 2.327 9.309 32.582 53.527 32.582 32.582 0 44.218-16.291 51.2-25.6v-318.836l46.545-53.527v367.709c6.982 11.636 25.6 30.255 51.2 30.255 34.909 0 55.855-37.236 55.855-37.236 4.655-6.982 11.636-11.636 18.618-11.636s16.291 4.655 18.618 11.636c0 0 20.945 37.236 55.855 37.236 32.582 0 39.564-32.582 39.564-32.582 2.327-9.309 11.636-16.291 23.273-16.291 0 0 0 0 0 0 9.309 0 18.618 9.309 18.618 20.945 4.655 83.782-25.6 162.909-83.782 223.418-53.527 55.855-123.345 88.436-197.818 93.091v25.6c0 11.636-9.309 20.945-20.945 20.945s-20.945-9.309-20.945-20.945v-30.255c-74.473-4.655-144.291-37.236-197.818-93.091-58.182-60.509-88.436-139.636-83.782-223.418-4.655-9.309 4.655-16.291 16.291-16.291v0zM116.364 629.527c48.873 51.2 116.364 81.455 188.509 81.455s139.636-27.927 188.509-81.455c34.909-37.236 58.182-81.455 67.491-130.327-11.636 4.655-23.273 6.982-34.909 6.982-34.909 0-60.509-18.618-74.473-34.909-13.964 16.291-39.564 34.909-74.473 34.909-32.582 0-55.855-16.291-72.145-32.582-13.964 13.964-37.236 32.582-76.8 32.582-37.236 0-60.509-16.291-74.473-30.255-13.964 13.964-37.236 30.255-74.473 30.255-13.964 0-25.6-2.327-34.909-4.655 13.964 48.873 37.236 93.091 72.145 128z" />
<glyph unicode="&#xe605;" glyph-name="bed" data-tags="bed" d="M933.236 415.418h-842.473c-13.964 0-27.927-4.655-39.564-9.309v390.982c0 13.964-11.636 23.273-23.273 23.273-13.964 0-23.273-11.636-23.273-23.273-2.327 0-4.655-465.455-4.655-470.109v-88.436c0-6.982 0-13.964 2.327-20.945 2.327-18.618 9.309-34.909 20.945-46.545 13.964-13.964 37.236-23.273 60.509-23.273v-48.873c0-13.964 16.291-23.273 34.909-23.273s34.909 11.636 34.909 23.273v48.873h691.2v-48.873c0-13.964 16.291-23.273 34.909-23.273s34.909 11.636 34.909 23.273v51.2h13.964c48.873 0 88.436 39.564 88.436 88.436v88.436c6.982 48.873-34.909 88.436-83.782 88.436zM975.127 238.545c0-23.273-18.618-39.564-39.564-39.564h-844.8c-18.618 0-34.909 11.636-39.564 30.255v111.709c4.655 16.291 20.945 30.255 39.564 30.255h842.473c23.273 0 39.564-18.618 39.564-39.564v-93.091zM139.636 431.709h190.836c37.236 0 65.164 30.255 65.164 65.164v81.455c0 37.236-30.255 65.164-65.164 65.164h-190.836c-37.236 0-65.164-30.255-65.164-65.164v-81.455c-2.327-34.909 27.927-65.164 65.164-65.164zM121.018 578.327c0 9.309 6.982 18.618 18.618 18.618h190.836c9.309 0 18.618-6.982 18.618-18.618v-81.455c0-9.309-6.982-18.618-18.618-18.618h-190.836c-9.309 0-18.618 6.982-18.618 18.618v81.455z" />
<glyph unicode="&#xe606;" glyph-name="contract" data-tags="contract" d="M875.055 755.2l-79.127-39.564c-11.636-4.655-20.945-16.291-25.6-27.927-4.655-13.964-2.327-25.6 2.327-37.236l104.727-209.455c4.655-11.636 16.291-20.945 27.927-25.6 13.964-4.655 25.6-2.327 37.236 2.327l79.127 39.564-146.618 297.891zM942.545 459.636c-11.636 0-18.618 9.309-18.618 18.618 0 11.636 9.309 18.618 18.618 18.618 11.636 0 18.618-9.309 18.618-18.618 2.327-11.636-6.982-18.618-18.618-18.618zM286.255 692.364c-2.327 13.964-9.309 25.6-20.945 32.582l-72.145 51.2-193.164-272.291 72.145-51.2c9.309-6.982 23.273-11.636 37.236-9.309s25.6 9.309 32.582 20.945l132.655 190.836c9.309 11.636 13.964 23.273 11.636 37.236zM79.127 492.218c-9.309 2.327-16.291 11.636-16.291 20.945 2.327 9.309 11.636 18.618 20.945 16.291s18.618-11.636 16.291-20.945c0-11.636-9.309-18.618-20.945-16.291zM865.745 431.709l-100.073 202.473c-2.327 4.655-4.655 6.982-6.982 9.309s-6.982 4.655-9.309 6.982l-116.364 37.236c-9.309 2.327-18.618 4.655-30.255 4.655-9.309 0-20.945-2.327-30.255-4.655l-90.764-27.927c-6.982-2.327-16.291-9.309-25.6-16.291-9.309 2.327-11.636 2.327-16.291 4.655-23.273 9.309-46.545 11.636-69.818 9.309l-60.509-4.655c-2.327 0-4.655 0-6.982-2.327s-4.655-2.327-6.982-4.655l-134.982-197.818c-2.327-4.655-4.655-9.309-4.655-13.964s2.327-9.309 6.982-13.964l58.182-58.182c-11.636-13.964-20.945-37.236-2.327-62.836 6.982-9.309 18.618-16.291 30.255-18.618-2.327-18.618 4.655-34.909 18.618-48.873 6.982-6.982 13.964-11.636 23.273-13.964-2.327-18.618 4.655-39.564 18.618-51.2 18.618-16.291 46.545-20.945 67.491-9.309 9.309-18.618 27.927-32.582 48.873-32.582 6.982 0 13.964 0 18.618 2.327 9.309-4.655 18.618-6.982 27.927-6.982h2.327c16.291 0 30.255 6.982 41.891 18.618v0l-37.236 37.236c0 0-2.327 4.655-2.327 9.309s0 9.309-2.327 13.964l65.164-65.164c9.309-2.327 16.291-4.655 27.927-4.655 18.618 0 34.909 9.309 48.873 23.273l6.982 6.982c0 0 0 2.327 2.327 2.327l-102.4 102.4c-2.327 2.327-2.327 6.982 0 9.309s6.982 2.327 9.309 0l121.018-121.018c6.982-2.327 13.964-2.327 20.945-2.327 16.291 0 32.582 9.309 41.891 20.945l16.291 18.618c4.655 4.655 6.982 9.309 4.655 16.291l-107.055 107.055c-2.327 2.327-2.327 6.982 0 9.309s6.982 2.327 9.309 0l107.055-107.055c4.655-2.327 9.309-2.327 13.964-2.327 13.964 0 25.6 6.982 34.909 16.291l4.655 4.655c9.309 9.309 13.964 23.273 13.964 37.236s-6.982 27.927-16.291 37.236l-16.291 16.291c4.655 2.327 6.982 4.655 11.636 4.655v0l67.491 60.509c4.655 4.655 9.309 11.636 9.309 18.618 0 9.309 0 16.291-4.655 23.273zM258.327 306.036c-13.964 0-25.6 11.636-25.6 25.6s11.636 25.6 25.6 25.6c13.964 0 25.6-11.636 25.6-25.6 2.327-13.964-9.309-25.6-25.6-25.6zM288.582 259.491c-6.982 6.982-6.982 20.945 0 27.927l20.945 20.945c6.982 6.982 20.945 6.982 27.927 0s6.982-20.945 0-27.927l-20.945-20.945c-6.982-9.309-20.945-9.309-27.927 0zM395.636 229.236l-32.582-32.582c-6.982-6.982-20.945-6.982-27.927 0s-6.982 20.945 0 27.927l32.582 32.582c6.982 6.982 20.945 6.982 27.927 0s6.982-20.945 0-27.927zM430.545 161.745c-11.636 0-23.273 9.309-23.273 23.273 0 11.636 9.309 23.273 23.273 23.273 11.636 0 23.273-9.309 23.273-23.273s-11.636-23.273-23.273-23.273zM814.545 410.764l-44.218-39.564c-4.655-4.655-13.964-4.655-18.618 0l-174.545 174.545c-6.982 6.982-11.636 13.964-11.636 23.273 0 2.327-2.327 6.982-2.327 9.309-4.655 6.982-9.309 11.636-16.291 11.636 0 0-25.6 0-32.582-6.982-6.982-4.655-11.636-16.291-13.964-23.273 0 0-4.655-44.218-25.6-83.782-20.945-37.236-48.873-51.2-53.527-53.527-27.927-6.982-34.909 9.309-32.582 11.636 4.655 13.964 53.527 134.982 79.127 172.218 2.327 4.655 16.291 6.982 16.291 6.982l104.727 32.582c4.655 2.327 9.309 2.327 16.291 2.327 4.655 0 9.309 0 16.291-2.327l114.036-39.564 88.436-176.873c-2.327-4.655-2.327-13.964-9.309-18.618z" />
<glyph unicode="&#xe607;" glyph-name="disabled" data-tags="disabled" d="M847.127 389.818c0 34.909-27.927 62.836-62.836 62.836h-230.4v274.618c0 32.582-25.6 60.509-60.509 62.836 44.218 2.327 81.455 39.564 81.455 83.782 0 46.545-37.236 83.782-83.782 83.782s-83.782-37.236-83.782-83.782c0-46.545 34.909-83.782 81.455-83.782-32.582-2.327-60.509-27.927-60.509-62.836v-337.455c0-34.909 27.927-62.836 62.836-62.836v0h230.4v-316.509c0-34.909 27.927-62.836 62.836-62.836s62.836 27.927 62.836 62.836v377.018c0 0 0 2.327 0 2.327zM642.327 15.127c-51.2-27.927-114.036-37.236-179.2-27.927-118.691 20.945-214.109 116.364-232.727 235.055-20.945 128 41.891 242.036 141.964 297.891 6.982 4.655 11.636 11.636 11.636 20.945v0c0 18.618-18.618 30.255-34.909 20.945-114.036-65.164-188.509-193.164-167.564-339.782 20.945-144.291 137.309-260.655 281.6-281.6 72.145-11.636 141.964 2.327 200.145 32.582 6.982 4.655 11.636 11.636 11.636 20.945v2.327c0 16.291-18.618 27.927-32.582 18.618z" />
<glyph unicode="&#xe608;" glyph-name="Dishwasher" data-tags="Dishwasher" d="M935.564 957.673h-847.127c-48.873 0-88.436-37.236-88.436-86.109v-847.127c0-48.873 39.564-88.436 88.436-88.436h847.127c48.873 0 88.436 39.564 88.436 86.109v849.455c0 48.873-39.564 86.109-88.436 86.109zM88.436 913.455h847.127c23.273 0 41.891-18.618 41.891-41.891v-195.491h-928.582v195.491c0 23.273 16.291 41.891 39.564 41.891zM935.564-17.455h-847.127c-23.273 0-41.891 18.618-41.891 41.891v605.091h928.582v-605.091c0-23.273-16.291-41.891-39.564-41.891zM795.927 759.855h65.164c13.964 0 23.273 11.636 23.273 23.273s-11.636 23.273-23.273 23.273h-65.164c-13.964 0-23.273-11.636-23.273-23.273s11.636-23.273 23.273-23.273zM681.891 573.673l-16.291 16.291-16.291-16.291c0 0-16.291-16.291-18.618-20.945-27.927-30.255-48.873-60.509-67.491-86.109 4.655 6.982 9.309 13.964 16.291 23.273h-311.855c-9.309 0-16.291-4.655-18.618-11.636s-2.327-16.291 4.655-23.273l188.509-186.182v-186.182h-76.8c-11.636 0-20.945-9.309-20.945-20.945s9.309-20.945 20.945-20.945h193.164c11.636 0 20.945 9.309 20.945 20.945s-9.309 20.945-20.945 20.945h-76.8v186.182l20.945 20.945c0-30.255 6.982-53.527 16.291-72.145 25.6-55.855 81.455-93.091 141.964-93.091 2.327 0 4.655 0 4.655 0 69.818 2.327 125.673 39.564 148.945 97.745 37.236 90.764-4.655 214.109-111.709 330.473-2.327 2.327-20.945 20.945-20.945 20.945zM512 354.909l-51.2-51.2-141.964 144.291h232.727c2.327 2.327 2.327 4.655 4.655 6.982-23.273-37.236-37.236-69.818-44.218-100.073zM772.655 240.873c-18.618-41.891-55.855-67.491-107.055-69.818h-4.655c-41.891 0-81.455 25.6-97.745 65.164-32.582 72.145 4.655 176.873 102.4 286.255 0 0 0 0 2.327 2.327 2.327-2.327 2.327-2.327 2.327-2.327 95.418-102.4 132.655-207.127 102.4-281.6z" />
<glyph unicode="&#xe609;" glyph-name="divemasks" data-tags="dive masks" d="M123.345 387.491v0c-9.309 9.309-9.309 23.273 0 32.582l144.291 144.291c9.309 9.309 23.273 9.309 32.582 0v0c9.309-9.309 9.309-23.273 0-32.582l-144.291-144.291c-9.309-9.309-23.273-9.309-32.582 0zM158.255 299.055v0c-9.309 9.309-9.309 23.273 0 32.582l144.291 144.291c9.309 9.309 23.273 9.309 32.582 0v0c9.309-9.309 9.309-23.273 0-32.582l-144.291-144.291c-9.309-9.309-23.273-9.309-32.582 0zM756.364 192c-144.291 0-200.145 121.018-235.055 200.145-2.327 6.982-4.655 11.636-6.982 18.618l-6.982-11.636c-37.236-81.455-95.418-204.8-237.382-204.8-148.945-2.327-267.636 107.055-267.636 239.709 0 121.018 93.091 225.745 211.782 237.382 55.855 4.655 137.309 9.309 251.345 9.309 74.473 0 151.273 0 214.109-2.327 27.927 0 53.527 0 76.8 0 146.618-2.327 267.636-111.709 267.636-244.364s-121.018-242.036-267.636-242.036zM512 459.636c16.291 0 32.582-9.309 39.564-25.6 2.327-6.982 6.982-13.964 9.309-20.945 34.909-76.8 79.127-174.545 193.164-174.545 121.018 0 221.091 88.436 221.091 195.491s-100.073 195.491-221.091 195.491c-23.273 0-48.873 0-76.8 0-62.836 0-139.636 2.327-211.782 2.327-114.036 0-195.491-2.327-249.018-6.982-95.418-9.309-172.218-93.091-172.218-190.836 0-107.055 100.073-195.491 221.091-195.491 114.036 0 160.582 102.4 195.491 179.2l6.982 16.291c11.636 13.964 27.927 25.6 44.218 25.6zM814.545 173.382v-67.491c0-60.509-48.873-109.382-109.382-109.382h-79.127c-60.509 0-109.382 48.873-109.382 109.382h-46.545c0-86.109 69.818-155.927 155.927-155.927h79.127c86.109 0 155.927 69.818 155.927 155.927v79.127c-16.291-4.655-30.255-6.982-46.545-11.636zM861.091 680.727v258.327h-46.545v-244.364c16.291-4.655 30.255-9.309 46.545-13.964z" />
<glyph unicode="&#xe60a;" glyph-name="door_1" data-tags="door_1" d="M488.727 29.091h-393.309c-25.6 0-48.873 23.273-48.873 48.873v740.073c0 25.6 23.273 48.873 48.873 48.873h393.309v46.545h-393.309c-51.2 0-93.091-44.218-93.091-95.418v-740.073c0-51.2 41.891-95.418 95.418-95.418h390.982v46.545zM1000.727 913.455l-411.927 39.564c0 0-44.218 4.655-48.873 4.655-13.964-2.327-27.927-18.618-27.927-37.236v-942.545c0-20.945 13.964-39.564 32.582-39.564 4.655 0 62.836 6.982 62.836 6.982l393.309 37.236c13.964 4.655 23.273 20.945 23.273 37.236v856.436c0 16.291-9.309 30.255-23.273 37.236zM619.055 410.764c-20.945 0-37.236 16.291-37.236 37.236s16.291 37.236 37.236 37.236c20.945 0 37.236-16.291 37.236-37.236 2.327-20.945-16.291-37.236-37.236-37.236z" />
<glyph unicode="&#xe60b;" glyph-name="door" data-tags="door" d="M1000.727 471.273h-486.4l100.073 100.073c4.655 4.655 6.982 9.309 6.982 16.291 0 13.964-9.309 23.273-23.273 23.273-6.982 0-11.636-2.327-16.291-6.982l-139.636-139.636c-4.655-4.655-6.982-9.309-6.982-16.291s2.327-11.636 6.982-16.291l139.636-139.636c4.655-4.655 9.309-6.982 16.291-6.982 13.964 0 23.273 9.309 23.273 23.273 0 6.982-2.327 11.636-6.982 16.291l-100.073 100.073h486.4c13.964 0 23.273 9.309 23.273 23.273s-11.636 23.273-23.273 23.273zM572.509 401.455l60.509-60.509c9.309-9.309 13.964-20.945 13.964-32.582 0-25.6-20.945-46.545-46.545-46.545-11.636 0-23.273 4.655-32.582 13.964l-139.636 139.636c-9.309 9.309-13.964 20.945-13.964 32.582s4.655 23.273 13.964 32.582l139.636 139.636c9.309 9.309 20.945 13.964 32.582 13.964 25.6 0 46.545-20.945 46.545-46.545 0-11.636-4.655-23.273-13.964-32.582l-60.509-60.509h223.418v337.455c0 25.6-25.6 44.218-51.2 37.236l-390.982-100.073c-16.291-4.655-27.927-20.945-27.927-37.236v-560.873c0-16.291 11.636-32.582 27.927-37.236l390.982-104.727c25.6-9.309 51.2 9.309 51.2 37.236v335.127h-223.418zM856.436 403.782v-372.364c0-25.6-20.945-48.873-48.873-48.873h-712.145c-25.6 2.327-48.873 23.273-48.873 48.873v833.164c0 25.6 23.273 46.545 48.873 46.545h712.145c25.6 0 48.873-20.945 48.873-48.873v-367.709h46.545v370.036c0 51.2-41.891 95.418-95.418 95.418h-712.145c-51.2-2.327-95.418-44.218-95.418-95.418v-830.836c0-51.2 41.891-95.418 95.418-95.418h712.145c53.527 0 95.418 41.891 95.418 95.418v372.364h-46.545z" />
<glyph unicode="&#xe60c;" glyph-name="drink" data-tags="drink" d="M872.727 915.782c-81.455 0-148.945-67.491-148.945-148.945 0-6.982 0-13.964 2.327-20.945h-397.964l-104.727 104.727c-27.927 27.927-65.164 44.218-104.727 44.218h-116.364v-41.891h116.364c27.927 0 55.855-11.636 74.473-30.255l74.473-74.473h-74.473c-9.309 0-16.291-4.655-18.618-13.964-2.327-6.982-2.327-16.291 4.655-23.273l332.8-335.127v-353.745h-148.945c-11.636 0-20.945-9.309-20.945-20.945s9.309-20.945 20.945-20.945h339.782c11.636 0 20.945 9.309 20.945 20.945s-9.309 20.945-20.945 20.945h-148.945v353.745l256 256c18.618-9.309 41.891-13.964 62.836-13.964 81.455 0 148.945 67.491 148.945 148.945 2.327 81.455-65.164 148.945-148.945 148.945zM821.527 704l-288.582-290.909-288.582 290.909h577.164zM872.727 659.782c-9.309 0-20.945 2.327-30.255 4.655l44.218 44.218c6.982 6.982 6.982 16.291 4.655 23.273s-11.636 13.964-18.618 13.964h-104.727c0 6.982 0 13.964 0 20.945 0 58.182 48.873 107.055 107.055 107.055s107.055-48.873 107.055-107.055c-2.327-58.182-48.873-107.055-109.382-107.055z" />
<glyph unicode="&#xe60d;" glyph-name="earth_1" data-tags="earth_1" d="M1021.673 468.945h-281.6v214.109l25.6-25.6c9.309-9.309 23.273-9.309 32.582 0v0c9.309 9.309 9.309 23.273 0 32.582l-260.655 260.655c-11.636 9.309-27.927 11.636-39.564 0l-262.982-260.655c-9.309-9.309-9.309-23.273 0-32.582s23.273-9.309 32.582 0l249.018 246.691 176.873-174.545v-260.655h-349.091v172.218c0 13.964-11.636 23.273-23.273 23.273-13.964 0-23.273-9.309-23.273-23.273v-172.218h-295.564c0-6.982 0-16.291 0-23.273-2.327-281.6 228.073-509.673 509.673-509.673s512 228.073 512 507.345c0 9.309-2.327 18.618-2.327 25.6zM48.873 422.4h186.182c0-13.964 0-25.6 2.327-39.564 0-6.982 0-11.636 2.327-18.618 2.327-16.291 2.327-30.255 4.655-46.545 0-4.655 2.327-9.309 2.327-16.291 6.982-39.564 16.291-76.8 25.6-111.709 0-2.327 2.327-4.655 2.327-4.655-34.909-16.291-67.491-37.236-95.418-60.509-76.8 76.8-125.673 181.527-130.327 297.891zM211.782 94.255c23.273 18.618 48.873 34.909 76.8 48.873 0-2.327 2.327-4.655 2.327-6.982s2.327-4.655 2.327-4.655c13.964-32.582 30.255-62.836 48.873-88.436 0-2.327 2.327-2.327 2.327-4.655 9.309-11.636 18.618-23.273 27.927-34.909-58.182 18.618-114.036 48.873-160.582 90.764zM488.727-15.127c-65.164 11.636-121.018 79.127-158.255 174.545 48.873 18.618 102.4 27.927 158.255 30.255v-204.8zM488.727 236.218c-62.836-2.327-121.018-13.964-174.545-32.582-20.945 65.164-32.582 139.636-34.909 218.764h209.455v-186.182zM535.273 422.4h209.455c-2.327-79.127-13.964-155.927-34.909-218.764-53.527 18.618-111.709 30.255-174.545 32.582v186.182zM535.273-15.127v204.8c58.182-2.327 111.709-13.964 158.255-30.255-37.236-95.418-93.091-160.582-158.255-174.545zM649.309 3.491c9.309 9.309 18.618 20.945 27.927 34.909 0 2.327 2.327 2.327 2.327 4.655 18.618 25.6 34.909 55.855 48.873 88.436 0 2.327 2.327 4.655 2.327 4.655 0 2.327 2.327 4.655 2.327 6.982 27.927-13.964 53.527-30.255 76.8-48.873-44.218-41.891-100.073-72.145-160.582-90.764zM844.8 124.509c-27.927 23.273-58.182 44.218-95.418 60.509 0 2.327 2.327 4.655 2.327 4.655 11.636 34.909 20.945 72.145 25.6 111.709 0 4.655 2.327 9.309 2.327 16.291 2.327 13.964 4.655 30.255 4.655 46.545 0 6.982 0 11.636 2.327 18.618 0 13.964 0 25.6 2.327 39.564h186.182c-4.655-116.364-53.527-221.091-130.327-297.891z" />
<glyph unicode="&#xe60e;" glyph-name="earth" data-tags="earth" d="M458.473 373.527l-2.327 23.273c0 11.636-13.964 311.855 148.945 491.055 46.545 46.545 107.055 72.145 174.545 72.145 65.164 0 125.673-25.6 172.218-69.818 46.545-46.545 72.145-107.055 72.145-172.218s-25.6-125.673-72.145-172.218c-181.527-160.582-458.473-169.891-470.109-169.891l-23.273-2.327zM779.636 913.455c-53.527 0-102.4-20.945-139.636-58.182-125.673-137.309-137.309-360.727-137.309-432.873 69.818 6.982 279.273 32.582 416.582 155.927 37.236 34.909 55.855 86.109 55.855 137.309s-20.945 102.4-58.182 139.636c-34.909 37.236-86.109 58.182-137.309 58.182zM809.891 457.309c6.982-23.273 9.309-48.873 11.636-74.473h-155.927c0 9.309 0 16.291 0 25.6-13.964-2.327-25.6-6.982-39.564-9.309 0-6.982 0-11.636 0-16.291h-174.545v158.255c9.309 0 16.291 0 23.273 2.327 2.327 11.636 2.327 25.6 4.655 39.564-9.309 0-20.945-2.327-30.255-2.327v169.891c23.273-4.655 44.218-18.618 65.164-37.236 6.982 20.945 16.291 41.891 27.927 62.836-34.909 9.309-72.145 13.964-111.709 13.964-237.382 2.327-428.218-190.836-428.218-425.891s190.836-428.218 428.218-428.218c237.382 0 430.545 193.164 430.545 428.218 0 39.564-4.655 76.8-16.291 111.709-11.636-6.982-23.273-11.636-34.909-18.618zM314.182 734.255c-9.309-9.309-16.291-18.618-23.273-27.927 0 0-2.327-2.327-2.327-2.327-16.291-20.945-30.255-46.545-41.891-74.473 0-2.327-2.327-2.327-2.327-4.655s-2.327-4.655-2.327-4.655c-23.273 11.636-46.545 25.6-65.164 41.891 41.891 32.582 88.436 58.182 137.309 72.145zM151.273 634.182c23.273-18.618 48.873-37.236 79.127-51.2 0-2.327 0-2.327-2.327-4.655-9.309-30.255-16.291-60.509-23.273-95.418 0-4.655-2.327-9.309-2.327-11.636-2.327-11.636-2.327-25.6-4.655-39.564 0-4.655 0-9.309-2.327-13.964 0-11.636 0-23.273-2.327-32.582h-151.273c4.655 95.418 44.218 183.855 109.382 249.018zM41.891 345.6h155.927c0-11.636 0-23.273 2.327-32.582 0-4.655 0-9.309 2.327-13.964 0-13.964 2.327-25.6 4.655-39.564 0-4.655 0-9.309 2.327-11.636 4.655-32.582 13.964-65.164 23.273-95.418 0-2.327 0-2.327 2.327-4.655-30.255-13.964-55.855-32.582-79.127-51.2-69.818 62.836-109.382 151.273-114.036 249.018zM179.2 68.655c18.618 16.291 39.564 30.255 65.164 41.891 0-2.327 2.327-4.655 2.327-4.655 0-2.327 2.327-2.327 2.327-4.655 11.636-27.927 25.6-53.527 41.891-74.473 0 0 2.327-2.327 2.327-2.327 6.982-11.636 16.291-20.945 23.273-27.927-51.2 11.636-97.745 39.564-137.309 72.145zM411.927-22.109c-53.527 11.636-102.4 65.164-134.982 146.618 39.564 13.964 86.109 23.273 134.982 25.6v-172.218zM411.927 189.673c-53.527-2.327-102.4-11.636-146.618-27.927-16.291 53.527-27.927 116.364-27.927 183.855h174.545v-155.927zM411.927 382.836h-174.545c2.327 67.491 11.636 130.327 27.927 183.855 44.218-16.291 93.091-25.6 146.618-27.927v-155.927zM411.927 578.327c-48.873 2.327-93.091 11.636-134.982 25.6 32.582 81.455 79.127 134.982 134.982 146.618v-172.218zM451.491 345.6h174.545c-2.327-67.491-11.636-130.327-27.927-183.855-44.218 16.291-93.091 25.6-146.618 27.927v155.927zM451.491-22.109v172.218c48.873-2.327 93.091-11.636 134.982-25.6-34.909-81.455-81.455-134.982-134.982-146.618zM546.909-5.818c9.309 9.309 16.291 18.618 23.273 27.927 0 0 2.327 2.327 2.327 2.327 16.291 20.945 30.255 46.545 41.891 74.473 0 2.327 2.327 2.327 2.327 4.655s2.327 4.655 2.327 4.655c23.273-11.636 46.545-25.6 65.164-41.891-39.564-30.255-86.109-58.182-137.309-72.145zM712.145 94.255c-23.273 18.618-48.873 37.236-79.127 51.2 0 2.327 0 2.327 2.327 4.655 9.309 30.255 16.291 60.509 23.273 95.418 0 4.655 2.327 9.309 2.327 11.636 2.327 11.636 2.327 25.6 4.655 39.564 0 4.655 0 9.309 2.327 13.964 0 11.636 0 23.273 2.327 32.582h155.927c-9.309-95.418-51.2-183.855-114.036-249.018zM884.364 708.655l-118.691 116.364c-4.655 4.655-11.636 4.655-16.291 0l-121.018-116.364c-4.655-4.655-4.655-11.636 0-13.964 4.655-4.655 11.636-4.655 13.964 0l114.036 111.709 79.127-79.127v-132.655c0-4.655-2.327-6.982-4.655-6.982h-148.945c-2.327 0-4.655 2.327-4.655 6.982v93.091c0 4.655-4.655 11.636-11.636 11.636s-11.636-4.655-11.636-11.636v-93.091c0-16.291 11.636-27.927 25.6-27.927h148.945c13.964 0 25.6 11.636 25.6 27.927v111.709l11.636-11.636c4.655-4.655 11.636-4.655 13.964 0v0c6.982 4.655 6.982 11.636 4.655 13.964z" />
<glyph unicode="&#xe60f;" glyph-name="elevator" data-tags="elevator" d="M400.291 699.345c0-42.415-34.385-76.8-76.8-76.8s-76.8 34.385-76.8 76.8c0 42.415 34.385 76.8 76.8 76.8s76.8-34.385 76.8-76.8zM928.582 957.673h-833.164c-51.2 0-95.418-41.891-95.418-93.091v-833.164c0-51.2 44.218-95.418 95.418-95.418h833.164c51.2 0 95.418 41.891 95.418 95.418v833.164c0 51.2-44.218 93.091-95.418 93.091zM977.455 403.782v-372.364c0-25.6-23.273-48.873-48.873-48.873h-833.164c-25.6 0-48.873 23.273-48.873 48.873v833.164c0 25.6 23.273 48.873 48.873 48.873h833.164c25.6 0 48.873-23.273 48.873-48.873v-460.8zM432.873 601.6h-211.782c-18.618 0-32.582-13.964-32.582-32.582v-165.236c0-18.618 13.964-32.582 32.582-32.582v0c18.618 0 32.582 13.964 32.582 32.582v-251.345c0-18.618 13.964-32.582 32.582-32.582h74.473c20.945 0 39.564 16.291 39.564 39.564v244.364c0-18.618 13.964-32.582 32.582-32.582s32.582 13.964 32.582 32.582v165.236c0 18.618-16.291 32.582-32.582 32.582zM756.364 697.018c-4.655 4.655-9.309 9.309-16.291 9.309-9.309 0-18.618-6.982-20.945-13.964l-107.055-174.545c-2.327-4.655-4.655-6.982-4.655-11.636 0-11.636 9.309-23.273 23.273-23.273h223.418c11.636 0 23.273 9.309 23.273 23.273 0 4.655-2.327 9.309-4.655 13.964l-116.364 176.873zM851.782 413.091h-223.418c-11.636 0-23.273-9.309-23.273-23.273 0-4.655 2.327-9.309 4.655-13.964l111.709-176.873c4.655-4.655 9.309-9.309 16.291-9.309 9.309 0 18.618 6.982 20.945 13.964l109.382 172.218c2.327 4.655 4.655 6.982 4.655 11.636 0 16.291-9.309 25.6-20.945 25.6z" />
<glyph unicode="&#xe610;" glyph-name="fence" data-tags="fence" d="M230.4-57.018h-193.164c-18.618 0-32.582 13.964-32.582 32.582v858.764c0 11.636 4.655 23.273 13.964 30.255l88.436 79.127c13.964 13.964 37.236 13.964 53.527 0l88.436-76.8c9.309-6.982 13.964-18.618 13.964-30.255v-858.764c0-18.618-13.964-34.909-32.582-34.909zM48.873-10.473h167.564v842.473l-83.782 72.145-83.782-72.145v-842.473zM609.745-57.018h-193.164c-18.618 0-32.582 13.964-32.582 32.582v858.764c0 11.636 4.655 23.273 13.964 30.255l88.436 79.127c13.964 13.964 37.236 13.964 53.527 0l88.436-76.8c9.309-6.982 13.964-18.618 13.964-30.255v-858.764c0-18.618-13.964-34.909-32.582-34.909zM428.218-10.473h167.564v842.473l-83.782 72.145-83.782-72.145v-842.473zM986.764-57.018h-193.164c-18.618 0-32.582 13.964-32.582 32.582v858.764c0 11.636 4.655 23.273 13.964 30.255l88.436 79.127c13.964 11.636 37.236 13.964 53.527 0l88.436-76.8c9.309-6.982 13.964-18.618 13.964-30.255v-858.764c2.327-18.618-13.964-34.909-32.582-34.909zM807.564-10.473h167.564v842.473l-83.782 72.145-83.782-72.145v-842.473zM251.345 671.418h139.636v-46.545h-139.636v46.545zM251.345 317.673h139.636v-46.545h-139.636v46.545zM640 671.418h139.636v-46.545h-139.636v46.545zM640 317.673h139.636v-46.545h-139.636v46.545z" />
<glyph unicode="&#xe611;" glyph-name="flags" data-tags="flags" d="M1021.673 445.673v0c-4.655 11.636-18.618 16.291-30.255 11.636-197.818-79.127-386.327-74.473-542.255-37.236v342.109c34.909 2.327 69.818 9.309 107.055 16.291l118.691-349.091 4.655-9.309 18.618-6.982 16.291 6.982 90.764 137.309 148.945-53.527 9.309-2.327 6.982 2.327c13.964 4.655 18.618 18.618 16.291 30.255l-125.673 363.055c4.655 2.327 9.309 4.655 13.964 6.982 9.309 6.982 11.636 20.945 4.655 32.582v0c-6.982 9.309-20.945 13.964-30.255 6.982-342.109-216.436-726.109-125.673-819.2-100.073-11.636 2.327-23.273-2.327-27.927-13.964s2.327-25.6 13.964-30.255c20.945-6.982 58.182-16.291 104.727-23.273v-225.745c-39.564 23.273-67.491 41.891-83.782 55.855-9.309 6.982-23.273 4.655-30.255-4.655v0c-9.309-9.309-6.982-25.6 4.655-32.582 20.945-16.291 58.182-41.891 111.709-72.145v-121.018l13.964-13.964h18.618l39.564 30.255-83.782-307.2-2.327-11.636 11.636-16.291 16.291-4.655 151.273 65.164 95.418-125.673 4.655-6.982 6.982-2.327c13.964-2.327 25.6 4.655 30.255 16.291l95.418 358.4c25.6-4.655 48.873-6.982 74.473-9.309l34.909-379.345c0 0 0-9.309 2.327-11.636 2.327-6.982 11.636-11.636 16.291-11.636 6.982-2.327 18.618 2.327 18.618 2.327l121.018 114.036 132.655-86.109c0 0 4.655-4.655 6.982-4.655 4.655 0 6.982 0 6.982 0 13.964 2.327 23.273 13.964 23.273 25.6l-34.909 384c27.927 9.309 58.182 18.618 86.109 30.255 9.309 9.309 16.291 23.273 11.636 34.909zM819.2 873.891c4.655-11.636 6.982-23.273 6.982-23.273l97.745-290.909-123.345 44.218-9.309 2.327-6.982-2.327-9.309-2.327-74.473-116.364-95.418 290.909-4.655 13.964c72.145 16.291 146.618 44.218 218.764 83.782zM167.564 769.164c48.873-6.982 107.055-11.636 172.218-11.636 20.945 0 41.891 0 62.836 2.327 0-11.636 0-18.618 0-18.618v-307.2l-102.4 81.455-6.982 4.655h-16.291l-109.382-86.109v335.127zM472.436 350.255l-79.127-295.564-79.127 104.727-4.655 6.982-6.982 2.327h-9.309l-128-55.855 79.127 295.564 9.309 32.582 32.582 25.6 123.345-97.745 6.982-4.655h6.982c6.982 0 13.964 2.327 18.618 9.309 11.636-2.327 23.273-4.655 34.909-6.982-2.327-9.309-4.655-16.291-4.655-16.291zM798.255 112.873l-6.982 4.655h-16.291l-100.073-95.418-27.927 304.873-2.327 25.6c6.982 0 11.636 0 18.618 0 69.818 0 139.636 6.982 214.109 25.6 2.327-13.964 2.327-27.927 2.327-27.927l27.927-309.527-109.382 72.145z" />
<glyph unicode="&#xe612;" glyph-name="gym" data-tags="gym" d="M998.4 624.873c-18.618 13.964-44.218 16.291-65.164 11.636v37.236c0 25.6-13.964 51.2-37.236 69.818-34.909 27.927-93.091 27.927-130.327 0-23.273-16.291-37.236-41.891-37.236-69.818v-195.491h-435.2v195.491c0 27.927-13.964 53.527-37.236 69.818-37.236 25.6-93.091 25.6-130.327 0-23.273-16.291-34.909-41.891-34.909-69.818v-37.236c-20.945 6.982-46.545 2.327-65.164-11.636-16.291-11.636-25.6-30.255-25.6-48.873v-262.982c0-32.582 30.255-60.509 65.164-60.509h6.982c6.982 0 11.636 0 18.618 2.327v-39.564c0-46.545 41.891-86.109 95.418-86.109h11.636c53.527 0 95.418 37.236 95.418 86.109v211.782h435.2v-211.782c0-46.545 41.891-86.109 95.418-86.109h13.964c53.527 0 95.418 37.236 95.418 86.109v39.564c6.982-2.327 11.636-2.327 18.618-2.327h6.982c34.909 0 65.164 25.6 65.164 60.509v265.309c0 18.618-9.309 34.909-25.6 46.545zM72.145 303.709h-4.655c-11.636 0-18.618 6.982-18.618 11.636v262.982c0 4.655 2.327 6.982 6.982 9.309s9.309 4.655 16.291 4.655c4.655 0 11.636-2.327 16.291-4.655s6.982-6.982 6.982-9.309v-262.982c-4.655-4.655-11.636-11.636-23.273-11.636zM246.691 219.927c0-20.945-20.945-39.564-48.873-39.564h-11.636c-27.927 0-48.873 16.291-48.873 39.564v453.818c0 11.636 6.982 23.273 18.618 32.582 9.309 6.982 23.273 11.636 37.236 11.636s25.6-4.655 37.236-11.636c11.636-9.309 18.618-20.945 18.618-32.582v-453.818zM886.691 219.927c0-20.945-20.945-39.564-48.873-39.564h-11.636c-27.927 0-48.873 16.291-48.873 39.564v453.818c0 11.636 6.982 23.273 18.618 32.582 9.309 6.982 23.273 11.636 37.236 11.636s27.927-4.655 37.236-11.636c11.636-9.309 16.291-18.618 16.291-30.255v-456.145zM975.127 315.345c0-6.982-6.982-11.636-18.618-11.636h-6.982c-11.636 0-18.618 6.982-18.618 11.636v262.982c0 4.655 2.327 6.982 6.982 9.309s9.309 4.655 16.291 4.655c6.982 0 11.636-2.327 16.291-4.655s6.982-6.982 6.982-9.309v-262.982z" />
<glyph unicode="&#xe613;" glyph-name="hairdryer" data-tags="hairdryer" d="M809.891 829.673c-6.982 18.618-23.273 32.582-44.218 39.564-13.964 4.655-30.255 4.655-44.218-2.327l-253.673-69.818c-18.618 9.309-37.236 16.291-58.182 23.273-169.891 48.873-346.764-48.873-395.636-218.764s48.873-346.764 218.764-395.636c2.327 0 4.655-2.327 6.982-2.327l55.855-181.527c11.636-39.564 48.873-67.491 90.764-67.491 9.309 0 18.618 2.327 27.927 4.655l114.036 34.909c51.2 16.291 79.127 69.818 62.836 121.018l-27.927 90.764 27.927 9.309c9.309 4.655 16.291 16.291 11.636 25.6s-13.964 16.291-23.273 13.964l-27.927-9.309-11.636 37.236c39.564 37.236 69.818 86.109 86.109 141.964 2.327 6.982 2.327 13.964 4.655 20.945l214.109 118.691c34.909 13.964 51.2 53.527 37.236 88.436l-72.145 176.873zM830.836 606.255c0 0-221.091-121.018-239.709-128 0 0-4.655-20.945-6.982-27.927s-6.982-27.927-6.982-27.927c-6.982-20.945-18.618-41.891-30.255-60.509-11.636-16.291-23.273-30.255-37.236-44.218l-9.309-9.309c-4.655-4.655-6.982-6.982-11.636-11.636-2.327 0 2.327-11.636 13.964-48.873l46.545-148.945c9.309-25.6-6.982-53.527-32.582-62.836l-114.036-34.909c-25.6-6.982-53.527 6.982-62.836 32.582l-48.873 158.255c-6.982 25.6-11.636 48.873-16.291 48.873s-9.309 2.327-13.964 2.327l-13.964 4.655c-20.945 6.982-41.891 13.964-60.509 23.273-104.727 60.509-160.582 183.855-130.327 304.873 39.564 155.927 197.818 244.364 346.764 197.818 2.327 0 4.655-2.327 4.655-2.327s20.945-6.982 27.927-11.636c6.982-4.655 27.927-16.291 27.927-16.291 13.964 6.982 274.618 81.455 274.618 81.455 6.982 2.327 11.636 2.327 13.964 0 6.982-2.327 11.636-6.982 13.964-11.636l74.473-176.873c6.982-13.964 2.327-25.6-9.309-30.255zM886.691 852.945l102.4 41.891c11.636 4.655 16.291 18.618 11.636 30.255s-18.618 16.291-30.255 11.636l-102.4-41.891c-11.636-4.655-16.291-16.291-11.636-27.927s18.618-18.618 30.255-13.964zM977.455 801.745c11.636 4.655 16.291 18.618 11.636 30.255s-18.618 16.291-30.255 11.636l-60.509-23.273c-11.636-4.655-16.291-18.618-11.636-30.255v0c4.655-11.636 18.618-16.291 30.255-11.636l60.509 23.273zM1021.673 743.564c-4.655 11.636-18.618 16.291-30.255 11.636l-60.509-23.273c-11.636-4.655-16.291-18.618-11.636-30.255s18.618-16.291 30.255-11.636l60.509 25.6c9.309 2.327 16.291 16.291 11.636 27.927zM314.182 652.8c-72.145 0-132.655-58.182-132.655-132.655 0-72.145 58.182-132.655 132.655-132.655 72.145 0 132.655 58.182 132.655 132.655s-58.182 132.655-132.655 132.655zM314.182 436.364c-46.545 0-86.109 37.236-86.109 86.109 0 46.545 37.236 86.109 86.109 86.109 46.545 0 86.109-37.236 86.109-86.109 0-46.545-37.236-86.109-86.109-86.109z" />
<glyph unicode="&#xe614;" glyph-name="hand" data-tags="hand" d="M882.036 292.073c-74.473-27.927-167.564-62.836-225.745-83.782-65.164-23.273-151.273-13.964-225.745 6.982 0 0-55.855 18.618-51.2 23.273 9.309 16.291 114.036-44.218 183.855-32.582 39.564 6.982 55.855 51.2 23.273 65.164l-134.982 41.891c-18.618 4.655-34.909 11.636-51.2 20.945-32.582 18.618-67.491 27.927-104.727 30.255l-53.527-6.982-235.055-69.818 81.455-251.345 81.455 30.255c48.873 20.945 102.4 4.655 169.891-13.964 48.873-11.636 139.636-39.564 188.509-51.2 44.218-9.309 90.764-2.327 132.655 11.636 0 0 139.636 74.473 237.382 130.327 0 0 2.327 0 2.327 0v0c27.927 16.291 51.2 27.927 67.491 39.564 88.436 51.2 58.182 162.909-23.273 128 0 0 0 0 0 0l-62.836-18.618zM926.255 608.582c-11.636 2.327-25.6-4.655-27.927-16.291l-25.6-102.4-27.927 6.982 16.291 60.509c2.327 11.636-4.655 25.6-16.291 27.927s-25.6-4.655-27.927-16.291l-16.291-60.509-32.582 6.982 23.273 88.436c2.327 11.636-4.655 25.6-16.291 27.927s-25.6-4.655-27.927-16.291l-23.273-88.436-30.255 6.982 9.309 37.236c2.327 11.636-4.655 25.6-16.291 27.927s-25.6-4.655-27.927-16.291l-9.309-37.236-267.636 67.491c6.982 72.145-39.564 141.964-114.036 160.582-81.455 20.945-162.909-27.927-183.855-109.382s27.927-162.909 109.382-183.855c72.145-18.618 146.618 20.945 174.545 86.109l516.655-130.327c11.636-2.327 20.945 4.655 23.273 13.964l32.582 128c4.655 13.964-2.327 25.6-13.964 30.255zM207.127 527.127c-55.855 13.964-88.436 69.818-74.473 125.673s69.818 88.436 125.673 74.473 88.436-69.818 74.473-125.673-72.145-88.436-125.673-74.473z" />
<glyph unicode="&#xe615;" glyph-name="hanger_1" data-tags="hanger_1" d="M993.745 431.709l-409.6 281.6c-13.964 9.309-32.582 16.291-51.2 20.945 0 9.309 0 23.273 2.327 27.927 4.655 4.655 11.636 6.982 23.273 11.636 20.945 6.982 48.873 18.618 58.182 67.491 6.982 51.2-16.291 93.091-58.182 111.709-41.891 16.291-90.764 2.327-118.691-34.909-9.309-13.964-13.964-32.582-16.291-46.545s9.309-25.6 23.273-25.6c11.636 0 20.945 9.309 23.273 20.945 0 9.309 2.327 18.618 6.982 25.6 16.291 23.273 44.218 27.927 62.836 20.945 23.273-9.309 34.909-32.582 30.255-60.509-2.327-20.945-9.309-23.273-25.6-30.255-13.964-4.655-30.255-9.309-41.891-25.6-13.964-20.945-16.291-44.218-13.964-62.836-16.291-2.327-32.582-9.309-48.873-18.618l-409.6-283.927c-13.964-9.309-20.945-27.927-16.291-46.545 4.655-16.291 20.945-27.927 39.564-27.927h230.4v-349.091c0-39.564 32.582-72.145 72.145-72.145h316.509c39.564 0 72.145 32.582 72.145 72.145v349.091h230.4c18.618 0 32.582 11.636 39.564 27.927 0 18.618-4.655 37.236-20.945 46.545zM595.782-17.455h-242.036c-13.964 0-25.6 11.636-25.6 25.6v384c0 13.964 11.636 25.6 25.6 25.6h242.036v-435.2zM695.855 8.145c0-13.964-11.636-25.6-25.6-25.6h-41.891v435.2h41.891c13.964 0 25.6-11.636 25.6-25.6v-384zM740.073 403.782c-4.655 34.909-34.909 60.509-69.818 60.509h-316.509c-34.909 0-65.164-25.6-69.818-60.509h-211.782l393.309 272.291c27.927 18.618 65.164 18.618 93.091 0l393.309-272.291h-211.782z" />
<glyph unicode="&#xe616;" glyph-name="hanger" data-tags="hanger" d="M658.618 731.927c0 86.109-67.491 153.6-153.6 153.6-83.782 0-153.6-69.818-153.6-153.6 0-86.109 67.491-153.6 153.6-153.6 83.782 0 153.6 67.491 153.6 153.6zM397.964 731.927c0 58.182 46.545 107.055 107.055 107.055s107.055-48.873 107.055-107.055-46.545-107.055-107.055-107.055-107.055 46.545-107.055 107.055zM730.764 557.382c0 76.8 0 146.618 0 172.218 0 128-102.4 230.4-228.073 230.4s-228.073-102.4-228.073-230.4c0-4.655 34.909-4.655 46.545-2.327 0 2.327 0 2.327 0 4.655 0 100.073 81.455 183.855 181.527 183.855s181.527-81.455 181.527-183.855c0-34.909-9.309-65.164-25.6-93.091-65.164-146.618-286.255-125.673-332.8-153.6-32.582-20.945-51.2-55.855-51.2-95.418v-381.673c0-39.564 30.255-69.818 69.818-69.818h316.509c39.564 0 69.818 32.582 69.818 69.818v542.255c2.327 2.327 2.327 4.655 0 6.982zM605.091 77.964h-188.509c-11.636 0-23.273 9.309-23.273 23.273s9.309 23.273 23.273 23.273h188.509c11.636 0 23.273-9.309 23.273-23.273s-11.636-23.273-23.273-23.273zM605.091 182.691h-188.509c-11.636 0-23.273 9.309-23.273 23.273s9.309 23.273 23.273 23.273h188.509c11.636 0 23.273-9.309 23.273-23.273s-11.636-23.273-23.273-23.273zM605.091 287.418h-188.509c-11.636 0-23.273 9.309-23.273 23.273s9.309 23.273 23.273 23.273h188.509c11.636 0 23.273-9.309 23.273-23.273s-11.636-23.273-23.273-23.273z" />
<glyph unicode="&#xe617;" glyph-name="heart" data-tags="heart" d="M861.091 911.127c-44.218 30.255-97.745 46.545-148.945 46.545-69.818 0-134.982-27.927-190.836-83.782l-9.309-11.636-13.964 16.291c-51.2 53.527-116.364 81.455-186.182 81.455-53.527 0-107.055-16.291-151.273-46.545-88.436-62.836-153.6-186.182-95.418-325.818l407.273-635.345c6.982-9.309 16.291-16.291 27.927-16.291s23.273 4.655 27.927 16.291l421.236 623.709 4.655 9.309v2.327c62.836 139.636-2.327 262.982-93.091 323.491zM916.945 606.255l-4.655-6.982-411.927-605.091-393.309 614.4c-46.545 114.036 6.982 216.436 81.455 265.309 37.236 25.6 81.455 37.236 125.673 37.236 55.855 0 109.382-23.273 151.273-65.164l41.891-48.873c2.327-2.327 6.982-2.327 9.309 0l39.564 46.545c44.218 44.218 97.745 69.818 155.927 69.818 41.891 0 86.109-13.964 123.345-37.236 74.473-53.527 128-153.6 81.455-269.964z" />
<glyph unicode="&#xe618;" glyph-name="hoover" data-tags="hoover" d="M256 3.491c-76.8 0-139.636 62.836-139.636 139.636s62.836 139.636 139.636 139.636c76.8 0 139.636-62.836 139.636-139.636s-62.836-139.636-139.636-139.636zM256 233.891c-51.2 0-90.764-41.891-90.764-90.764 0-51.2 41.891-90.764 90.764-90.764 51.2 0 90.764 41.891 90.764 90.764s-39.564 90.764-90.764 90.764zM970.473 664.436c-67.491 62.836-183.855 58.182-332.8 51.2-155.927-6.982-344.436-16.291-530.618 55.855l25.6 88.436c4.655 13.964-4.655 27.927-18.618 30.255-11.636 4.655-25.6-2.327-30.255-16.291l-60.509-221.091c-4.655-13.964 4.655-27.927 18.618-30.255 13.964-4.655 27.927 4.655 30.255 18.618l23.273 86.109c190.836-72.145 386.327-65.164 544.582-55.855 137.309 6.982 246.691 11.636 297.891-37.236 25.6-23.273 37.236-60.509 37.236-111.709 0-72.145-20.945-125.673-65.164-158.255-55.855-44.218-151.273-58.182-260.655-34.909-123.345 109.382-307.2 218.764-558.545 225.745h-2.327c-48.873 0-88.436-39.564-88.436-86.109v-337.455c0-39.564 32.582-74.473 74.473-74.473h46.545c-9.309 13.964-16.291 30.255-20.945 48.873h-23.273c-13.964 0-27.927 11.636-27.927 25.6v332.8c0 20.945 18.618 37.236 41.891 37.236v0c402.618-11.636 623.709-300.218 688.873-402.618h-365.382c-4.655-16.291-11.636-32.582-20.945-48.873h414.255c11.636 0 23.273 6.982 30.255 16.291s4.655 23.273 0 32.582c-16.291 25.6-58.182 90.764-125.673 162.909 13.964 0 27.927-2.327 41.891-2.327 76.8 0 144.291 18.618 190.836 55.855 55.855 44.218 81.455 109.382 81.455 195.491-2.327 72.145-20.945 121.018-55.855 153.6z" />
<glyph unicode="&#xe619;" glyph-name="hotel_1" data-tags="hotel_1" d="M607.418 957.673h-512c-53.527 0-95.418-41.891-95.418-95.418v-830.836c0-51.2 41.891-95.418 95.418-95.418h509.673c53.527 0 95.418 41.891 95.418 95.418v833.164c0 51.2-41.891 93.091-93.091 93.091zM653.964 392.145v-360.727c0-25.6-20.945-48.873-48.873-48.873h-509.673c-25.6 0-48.873 20.945-48.873 48.873v833.164c2.327 25.6 23.273 46.545 48.873 46.545h509.673c25.6 0 48.873-20.945 48.873-48.873v-470.109zM928.582 678.4h-272.291v-46.545h269.964c25.6 0 48.873-20.945 48.873-48.873v-551.564c0-25.6-20.945-48.873-48.873-48.873h-311.855v-46.545h311.855c53.527 0 95.418 41.891 95.418 95.418v551.564c0 51.2-41.891 95.418-93.091 95.418zM160.582 662.109v0c-13.964 0-23.273 9.309-23.273 23.273v111.709c0 13.964 9.309 23.273 23.273 23.273v0c13.964 0 23.273-9.309 23.273-23.273v-111.709c0-11.636-11.636-23.273-23.273-23.273zM342.109 662.109v0c-13.964 0-23.273 9.309-23.273 23.273v111.709c0 13.964 9.309 23.273 23.273 23.273v0c13.964 0 23.273-9.309 23.273-23.273v-111.709c0-11.636-11.636-23.273-23.273-23.273zM523.636 662.109v0c-13.964 0-23.273 9.309-23.273 23.273v111.709c0 13.964 9.309 23.273 23.273 23.273v0c13.964 0 23.273-9.309 23.273-23.273v-111.709c0-11.636-9.309-23.273-23.273-23.273zM160.582 396.8v0c-13.964 0-23.273 9.309-23.273 23.273v111.709c0 13.964 9.309 23.273 23.273 23.273v0c13.964 0 23.273-9.309 23.273-23.273v-111.709c0-13.964-11.636-23.273-23.273-23.273zM342.109 396.8v0c-13.964 0-23.273 9.309-23.273 23.273v111.709c0 13.964 9.309 23.273 23.273 23.273v0c13.964 0 23.273-9.309 23.273-23.273v-111.709c0-13.964-11.636-23.273-23.273-23.273zM821.527 396.8v0c-13.964 0-23.273 9.309-23.273 23.273v111.709c0 13.964 9.309 23.273 23.273 23.273v0c13.964 0 23.273-9.309 23.273-23.273v-111.709c0-13.964-11.636-23.273-23.273-23.273zM821.527 129.164v0c-13.964 0-23.273 9.309-23.273 23.273v111.709c0 13.964 9.309 23.273 23.273 23.273v0c13.964 0 23.273-9.309 23.273-23.273v-111.709c0-11.636-11.636-23.273-23.273-23.273zM160.582 122.182v0c-13.964 0-23.273 9.309-23.273 23.273v111.709c0 13.964 9.309 23.273 23.273 23.273v0c13.964 0 23.273-9.309 23.273-23.273v-111.709c0-13.964-11.636-23.273-23.273-23.273zM342.109 122.182v0c-13.964 0-23.273 9.309-23.273 23.273v111.709c0 13.964 9.309 23.273 23.273 23.273v0c13.964 0 23.273-9.309 23.273-23.273v-111.709c0-13.964-11.636-23.273-23.273-23.273zM523.636 122.182v0c-13.964 0-23.273 9.309-23.273 23.273v111.709c0 13.964 9.309 23.273 23.273 23.273v0c13.964 0 23.273-9.309 23.273-23.273v-111.709c0-13.964-9.309-23.273-23.273-23.273z" />
<glyph unicode="&#xe61a;" glyph-name="hotel_2" data-tags="hotel_2" d="M784.291 957.673h-688.873c-51.2 0-95.418-41.891-95.418-95.418v-830.836c0-51.2 41.891-95.418 95.418-95.418h686.545c51.2 0 95.418 41.891 95.418 95.418v833.164c0 51.2-41.891 93.091-93.091 93.091zM830.836 392.145v-360.727c0-25.6-20.945-48.873-48.873-48.873h-686.545c-25.6 0-48.873 20.945-48.873 48.873v833.164c2.327 25.6 23.273 46.545 48.873 46.545h686.545c25.6 0 48.873-20.945 48.873-48.873v-470.109zM160.582 662.109v0c-11.636 0-23.273 9.309-23.273 23.273v111.709c0 13.964 9.309 23.273 23.273 23.273v0c11.636 0 23.273-9.309 23.273-23.273v-111.709c-2.327-11.636-11.636-23.273-23.273-23.273zM339.782 662.109v0c-11.636 0-23.273 9.309-23.273 23.273v111.709c0 13.964 9.309 23.273 23.273 23.273v0c11.636 0 23.273-9.309 23.273-23.273v-111.709c0-11.636-9.309-23.273-23.273-23.273zM521.309 662.109v0c-11.636 0-23.273 9.309-23.273 23.273v111.709c0 13.964 9.309 23.273 23.273 23.273v0c11.636 0 23.273-9.309 23.273-23.273v-111.709c0-11.636-9.309-23.273-23.273-23.273zM160.582 396.8v0c-11.636 0-23.273 9.309-23.273 23.273v111.709c0 13.964 9.309 23.273 23.273 23.273v0c11.636 0 23.273-9.309 23.273-23.273v-111.709c-2.327-13.964-11.636-23.273-23.273-23.273zM339.782 396.8v0c-11.636 0-23.273 9.309-23.273 23.273v111.709c0 13.964 9.309 23.273 23.273 23.273v0c11.636 0 23.273-9.309 23.273-23.273v-111.709c0-13.964-9.309-23.273-23.273-23.273zM160.582 122.182v0c-11.636 0-23.273 9.309-23.273 23.273v111.709c0 13.964 9.309 23.273 23.273 23.273v0c11.636 0 23.273-9.309 23.273-23.273v-111.709c-2.327-13.964-11.636-23.273-23.273-23.273zM339.782 122.182v0c-11.636 0-23.273 9.309-23.273 23.273v111.709c0 13.964 9.309 23.273 23.273 23.273v0c11.636 0 23.273-9.309 23.273-23.273v-111.709c0-13.964-9.309-23.273-23.273-23.273zM521.309 122.182v0c-11.636 0-23.273 9.309-23.273 23.273v111.709c0 13.964 9.309 23.273 23.273 23.273v0c11.636 0 23.273-9.309 23.273-23.273v-111.709c0-13.964-9.309-23.273-23.273-23.273zM702.836 662.109v0c-11.636 0-23.273 9.309-23.273 23.273v111.709c0 13.964 9.309 23.273 23.273 23.273v0c11.636 0 23.273-9.309 23.273-23.273v-111.709c0-11.636-9.309-23.273-23.273-23.273zM521.309 396.8v0c-11.636 0-23.273 9.309-23.273 23.273v111.709c0 13.964 9.309 23.273 23.273 23.273v0c11.636 0 23.273-9.309 23.273-23.273v-111.709c0-13.964-9.309-23.273-23.273-23.273zM702.836 122.182v0c-11.636 0-23.273 9.309-23.273 23.273v111.709c0 13.964 9.309 23.273 23.273 23.273v0c11.636 0 23.273-9.309 23.273-23.273v-111.709c0-13.964-9.309-23.273-23.273-23.273zM947.2 897.164v-44.218h41.891v44.218h25.6v-111.709h-25.6v46.545h-41.891v-46.545h-25.6v111.709h25.6zM1021.673 643.491c0-37.236-20.945-58.182-55.855-58.182-32.582 0-53.527 25.6-53.527 58.182s20.945 58.182 53.527 58.182c37.236-2.327 55.855-27.927 55.855-58.182zM942.545 641.164c0-23.273 9.309-37.236 27.927-37.236 16.291 0 27.927 16.291 27.927 37.236s-9.309 37.236-27.927 37.236c-18.618 2.327-27.927-13.964-27.927-37.236zM956.509 478.255h-30.255v20.945h86.109v-20.945h-30.255v-90.764h-25.6v90.764zM1000.727 233.891h-41.891v-25.6h46.545v-20.945h-72.145v111.709h69.818v-20.945h-44.218v-23.273h41.891v-20.945zM937.891 98.909h25.6v-90.764h44.218v-20.945h-69.818v111.709z" />
<glyph unicode="&#xe61b;" glyph-name="hotel_3" data-tags="hotel_3" d="M581.818 957.673h-484.073c-51.2 0-95.418-41.891-95.418-93.091v-830.836c0-51.2 41.891-95.418 95.418-95.418h484.073c53.527 0 95.418 41.891 95.418 95.418v830.836c0 51.2-41.891 93.091-95.418 93.091zM630.691 392.145v-360.727c0-25.6-20.945-48.873-48.873-48.873h-484.073c-25.6 0-48.873 20.945-48.873 48.873v833.164c0 25.6 20.945 48.873 48.873 48.873h484.073c25.6 0 48.873-20.945 48.873-48.873v-472.436zM162.909 662.109v0c-13.964 0-23.273 9.309-23.273 23.273v111.709c0 13.964 9.309 23.273 23.273 23.273v0c13.964 0 23.273-9.309 23.273-23.273v-111.709c0-11.636-11.636-23.273-23.273-23.273zM344.436 662.109v0c-13.964 0-23.273 9.309-23.273 23.273v111.709c0 13.964 9.309 23.273 23.273 23.273v0c13.964 0 23.273-9.309 23.273-23.273v-111.709c0-11.636-11.636-23.273-23.273-23.273zM525.964 662.109v0c-13.964 0-23.273 9.309-23.273 23.273v111.709c0 13.964 9.309 23.273 23.273 23.273v0c13.964 0 23.273-9.309 23.273-23.273v-111.709c0-11.636-11.636-23.273-23.273-23.273zM162.909 396.8v0c-13.964 0-23.273 9.309-23.273 23.273v111.709c0 13.964 9.309 23.273 23.273 23.273v0c13.964 0 23.273-9.309 23.273-23.273v-111.709c0-13.964-11.636-23.273-23.273-23.273zM344.436 396.8v0c-13.964 0-23.273 9.309-23.273 23.273v111.709c0 13.964 9.309 23.273 23.273 23.273v0c13.964 0 23.273-9.309 23.273-23.273v-111.709c0-13.964-11.636-23.273-23.273-23.273zM162.909 122.182v0c-13.964 0-23.273 9.309-23.273 23.273v111.709c0 13.964 9.309 23.273 23.273 23.273v0c13.964 0 23.273-9.309 23.273-23.273v-111.709c0-13.964-11.636-23.273-23.273-23.273zM344.436 122.182v0c-13.964 0-23.273 9.309-23.273 23.273v111.709c0 13.964 9.309 23.273 23.273 23.273v0c13.964 0 23.273-9.309 23.273-23.273v-111.709c0-13.964-11.636-23.273-23.273-23.273zM525.964 122.182v0c-13.964 0-23.273 9.309-23.273 23.273v111.709c0 13.964 9.309 23.273 23.273 23.273v0c13.964 0 23.273-9.309 23.273-23.273v-111.709c0-13.964-11.636-23.273-23.273-23.273zM1014.691 820.364l-132.655 130.327c-4.655 4.655-9.309 6.982-16.291 6.982s-11.636-2.327-16.291-6.982l-134.982-130.327c-4.655-4.655-6.982-9.309-6.982-16.291 0-13.964 9.309-23.273 23.273-23.273 6.982 0 11.636 2.327 16.291 6.982l93.091 90.764v-919.273c0-13.964 9.309-23.273 23.273-23.273s23.273 9.309 23.273 23.273v919.273l93.091-90.764c4.655-4.655 9.309-6.982 16.291-6.982 13.964 0 23.273 9.309 23.273 23.273 2.327 6.982-2.327 11.636-4.655 16.291z" />
<glyph unicode="&#xe61c;" glyph-name="hotel" data-tags="hotel" d="M984.436 929.745h-249.018v6.982c0 11.636-9.309 23.273-23.273 23.273-11.636 0-23.273-9.309-23.273-23.273v-4.655h-314.182v4.655c0 11.636-9.309 23.273-23.273 23.273-11.636 0-23.273-9.309-23.273-23.273v-4.655h-216.436c-51.2 0-93.091-41.891-93.091-93.091v-879.709c0-11.636 9.309-23.273 23.273-23.273s23.273 9.309 23.273 23.273v877.382c0 27.927 20.945 48.873 48.873 48.873h218.764v-107.055h-209.455c-11.636 0-20.945-9.309-20.945-20.945v-390.982c0-11.636 9.309-20.945 20.945-20.945h816.873c11.636 0 20.945 9.309 20.945 20.945v393.309c0 11.636-9.309 20.945-20.945 20.945h-204.8v104.727h249.018c11.636 0 23.273 9.309 23.273 23.273 0 11.636-11.636 20.945-23.273 20.945zM377.018 496.873h-30.255v55.855h-51.2v-55.855h-30.255v134.982h30.255v-51.2h51.2v51.2h30.255v-134.982zM460.8 494.545c-41.891 0-65.164 30.255-65.164 69.818s25.6 69.818 65.164 69.818c41.891 0 65.164-30.255 65.164-67.491 0-44.218-25.6-72.145-65.164-72.145zM635.345 606.255h-37.236v-109.382h-30.255v109.382h-37.236v25.6h104.727v-25.6zM758.691 631.855h30.255v-109.382h53.527v-25.6h-83.782v134.982zM737.745 496.873h-86.109v134.982h83.782v-25.6h-53.527v-27.927h48.873v-25.6h-48.873v-32.582h55.855v-23.273zM374.691 778.473v107.055h316.509v-107.055h-316.509zM460.8 610.909c-20.945 0-32.582-18.618-32.582-46.545 0-25.6 11.636-44.218 32.582-44.218s32.582 18.618 32.582 46.545c0 23.273-11.636 44.218-32.582 44.218z" />
<glyph unicode="&#xe61d;" glyph-name="house_1" data-tags="house_1" d="M1010.036 450.327c9.309 9.309 9.309 23.273 0 32.582l-474.764 465.455c-11.636 11.636-30.255 11.636-41.891 0l-477.091-470.109c-9.309-9.309-9.309-23.273 0-32.582v0c9.309-9.309 23.273-9.309 32.582 0l465.455 458.473 337.455-332.8v-539.927c0-25.6-18.618-46.545-39.564-46.545h-593.455c-20.945 0-39.564 20.945-39.564 46.545v372.364c0 11.636-9.309 23.273-23.273 23.273v0c-13.964 0-23.273-9.309-23.273-23.273v-370.036c0-51.2 39.564-93.091 86.109-93.091h591.127c46.545 0 86.109 41.891 86.109 93.091v493.382l79.127-76.8c9.309-9.309 25.6-9.309 34.909 0v0z" />
<glyph unicode="&#xe61e;" glyph-name="house_2" data-tags="house_2" d="M1010.036 450.327c9.309 9.309 9.309 23.273 0 32.582l-474.764 465.455c-11.636 11.636-30.255 11.636-41.891 0l-477.091-470.109c-9.309-9.309-9.309-23.273 0-32.582v0c9.309-9.309 23.273-9.309 32.582 0l465.455 458.473 337.455-332.8v-542.255c0-25.6-18.618-46.545-39.564-46.545h-593.455c-20.945 0-39.564 20.945-39.564 46.545v374.691c0 11.636-9.309 23.273-23.273 23.273v0c-13.964 0-23.273-9.309-23.273-23.273v-370.036c0-51.2 39.564-93.091 86.109-93.091h591.127c46.545 0 86.109 41.891 86.109 93.091v493.382l79.127-76.8c9.309-9.309 25.6-9.309 34.909 0v0zM477.091 417.745c0-88.436-55.855-134.982-116.364-134.982-65.164 0-114.036 48.873-114.036 128 0 74.473 46.545 132.655 118.691 132.655s111.709-53.527 111.709-125.673zM318.836 413.091c0-44.218 13.964-76.8 44.218-76.8 27.927 0 41.891 27.927 41.891 76.8 0 41.891-11.636 76.8-41.891 76.8s-44.218-34.909-44.218-76.8zM365.382 108.218l244.364 435.2h53.527l-244.364-435.2h-53.527zM781.964 243.2c0-88.436-55.855-134.982-116.364-134.982-62.836 0-114.036 48.873-114.036 128 0 74.473 46.545 132.655 118.691 132.655 69.818 0 111.709-53.527 111.709-125.673zM623.709 238.545c0-44.218 13.964-76.8 41.891-76.8s41.891 27.927 41.891 76.8c0 41.891-11.636 76.8-41.891 76.8-27.927 0-41.891-34.909-41.891-76.8z" />
<glyph unicode="&#xe61f;" glyph-name="house_3" data-tags="house_3" d="M1010.036 450.327c9.309 9.309 9.309 23.273 0 32.582l-474.764 465.455c-11.636 11.636-30.255 11.636-41.891 0l-477.091-470.109c-9.309-9.309-9.309-23.273 0-32.582v0c9.309-9.309 23.273-9.309 32.582 0l465.455 458.473 337.455-332.8v-542.255c0-25.6-18.618-46.545-39.564-46.545h-593.455c-20.945 0-39.564 20.945-39.564 46.545v374.691c0 11.636-9.309 23.273-23.273 23.273v0c-13.964 0-23.273-9.309-23.273-23.273v-370.036c0-51.2 39.564-93.091 86.109-93.091h591.127c46.545 0 86.109 41.891 86.109 93.091v493.382l79.127-76.8c9.309-9.309 25.6-9.309 34.909 0v0zM660.945 108.218c-20.945-13.964-55.855-27.927-100.073-27.927-53.527 0-102.4 20.945-134.982 60.509-25.6 27.927-41.891 67.491-48.873 114.036h-41.891v32.582h37.236c0 2.327 0 6.982 0 9.309 0 9.309 0 20.945 2.327 30.255h-39.564v32.582h44.218c6.982 46.545 27.927 86.109 55.855 111.709 32.582 34.909 76.8 55.855 132.655 55.855 39.564 0 72.145-11.636 90.764-20.945l-13.964-44.218c-16.291 9.309-44.218 18.618-74.473 18.618-37.236 0-67.491-11.636-88.436-34.909-18.618-20.945-32.582-48.873-39.564-86.109h186.182v-32.582h-193.164c-2.327-9.309-2.327-18.618-2.327-27.927 0-4.655 0-6.982 0-11.636h195.491v-32.582h-190.836c4.655-39.564 18.618-67.491 37.236-88.436 25.6-25.6 58.182-39.564 95.418-39.564 34.909 0 67.491 11.636 81.455 20.945l9.309-39.564z" />
<glyph unicode="&#xe620;" glyph-name="house_4" data-tags="house_4" d="M1010.036 450.327c9.309 9.309 9.309 23.273 0 32.582l-474.764 465.455c-11.636 11.636-30.255 11.636-41.891 0l-477.091-470.109c-9.309-9.309-9.309-23.273 0-32.582v0c9.309-9.309 23.273-9.309 32.582 0l465.455 458.473 337.455-332.8v-542.255c0-25.6-18.618-46.545-39.564-46.545h-593.455c-20.945 0-39.564 20.945-39.564 46.545v374.691c0 11.636-9.309 23.273-23.273 23.273v0c-13.964 0-23.273-9.309-23.273-23.273v-370.036c0-51.2 39.564-93.091 86.109-93.091h591.127c46.545 0 86.109 41.891 86.109 93.091v493.382l79.127-76.8c9.309-9.309 25.6-9.309 34.909 0v0zM586.473 608.582c0-42.415-34.385-76.8-76.8-76.8s-76.8 34.385-76.8 76.8c0 42.415 34.385 76.8 76.8 76.8s76.8-34.385 76.8-76.8zM616.727 510.836h-211.782c-18.618 0-32.582-13.964-32.582-32.582v-165.236c0-18.618 13.964-32.582 32.582-32.582v0c18.618 0 32.582 13.964 32.582 32.582v-251.345c0-18.618 13.964-32.582 32.582-32.582h76.8c20.945 0 39.564 16.291 39.564 39.564v244.364c0-18.618 13.964-32.582 32.582-32.582s32.582 13.964 32.582 32.582v165.236c-2.327 18.618-16.291 32.582-34.909 32.582z" />
<glyph unicode="&#xe621;" glyph-name="house_5" data-tags="house_5" d="M1007.709 450.327c9.309 9.309 9.309 23.273 0 32.582l-116.364 116.364-11.636-11.636-27.927-30.255v-523.636c0-25.6-18.618-46.545-39.564-46.545h-593.455c-20.945 0-39.564 20.945-39.564 46.545v372.364c0 11.636-9.309 23.273-23.273 23.273v0c-13.964 0-23.273-9.309-23.273-23.273v-372.364c0-51.2 39.564-93.091 86.109-93.091h591.127c46.545 0 86.109 41.891 86.109 93.091v493.382l79.127-76.8c9.309-9.309 25.6-9.309 32.582 0v0zM619.055 799.418l32.582 34.909-116.364 116.364c-11.636 11.636-30.255 11.636-41.891 0l-479.418-472.436c-9.309-9.309-9.309-23.273 0-32.582v0c9.309-9.309 23.273-9.309 32.582 0l465.455 458.473 107.055-104.727zM784.291 934.4l-449.164-453.818 207.127-202.473 449.164 453.818-207.127 202.473zM728.436 524.8l-16.291 16.291c-11.636-11.636-27.927-20.945-39.564-23.273l-16.291 25.6c11.636 4.655 25.6 11.636 37.236 23.273 9.309 11.636 13.964 20.945 6.982 27.927s-16.291 4.655-34.909-4.655c-25.6-13.964-48.873-18.618-65.164 0-16.291 16.291-18.618 39.564-2.327 62.836l-18.618 16.291 18.618 18.618 16.291-16.291c11.636 11.636 23.273 16.291 32.582 20.945l16.291-25.6c-6.982-2.327-18.618-6.982-32.582-20.945-11.636-11.636-9.309-20.945-4.655-25.6 6.982-4.655 16.291-2.327 37.236 6.982 30.255 13.964 46.545 13.964 65.164-2.327 16.291-16.291 18.618-41.891 2.327-65.164l18.618-18.618-20.945-16.291z" />
<glyph unicode="&#xe622;" glyph-name="house_6" data-tags="house_6" d="M819.2 161.745c-2.327 39.564-2.327 153.6-2.327 155.927-2.327 44.218-37.236 67.491-69.818 67.491-4.655 0-9.309 0-13.964-2.327-11.636 16.291-32.582 27.927-58.182 27.927-13.964 0-27.927-2.327-37.236-9.309-20.945 20.945-53.527 27.927-79.127 20.945v93.091c0 46.545-37.236 67.491-69.818 67.491-39.564 0-69.818-25.6-69.818-62.836l-2.327-363.055-90.764 79.127-2.327 2.327c-13.964 9.309-30.255 13.964-46.545 13.964-30.255 0-55.855-13.964-67.491-37.236-6.982-16.291-6.982-34.909 4.655-46.545l139.636-134.982c55.855-67.491 116.364-93.091 216.436-93.091h114.036c76.8 0 134.982 53.527 134.982 123.345 2.327-2.327 0 74.473 0 97.745zM686.545-15.127h-114.036c-62.836 0-102.4 11.636-134.982 32.582-2.327 0-4.655 2.327-6.982 4.655l-169.891 148.945c-9.309 9.309-9.309 23.273-2.327 30.255 9.309 9.309 23.273 9.309 32.582 2.327 0 0 97.745-86.109 132.655-114.036 2.327-2.327 6.982-6.982 11.636-6.982 16.291 0 27.927 11.636 27.927 27.927l2.327 409.6c0 11.636 13.964 16.291 20.945 16.291 9.309 0 18.618-4.655 20.945-20.945v-195.491c0-11.636 11.636-23.273 23.273-23.273v0c11.636 0 18.618 6.982 18.618 18.618l2.327 41.891c0 13.964 11.636 25.6 25.6 25.6s25.6-11.636 25.6-25.6c0 0 0-30.255 2.327-41.891 2.327-9.309 9.309-16.291 20.945-16.291v0c9.309 0 18.618 4.655 18.618 11.636 2.327 9.309 2.327 39.564 2.327 39.564 0 11.636 9.309 20.945 20.945 20.945 6.982 0 13.964-4.655 16.291-9.309 0 0 0 0 2.327-2.327 0-2.327 2.327-2.327 2.327-4.655 0 0 0 0 0 0v0c0 0 0-2.327 0-2.327v-44.218c2.327-11.636 11.636-20.945 23.273-20.945 6.982 0 16.291 4.655 16.291 11.636s2.327 27.927 2.327 27.927c0 9.309 6.982 16.291 16.291 16.291 2.327 0 6.982-2.327 9.309-2.327s2.327-2.327 4.655-4.655c2.327-2.327 2.327-4.655 2.327-9.309v-18.618c0-27.927 2.327-114.036 2.327-146.618 0-23.273 2.327-97.745 2.327-97.745 4.655-46.545-32.582-79.127-81.455-79.127zM342.109 5.818h-123.345c-20.945 0-39.564 20.945-39.564 46.545v363.055c0 11.636-9.309 23.273-23.273 23.273v0c-13.964 0-23.273-9.309-23.273-23.273v-363.055c0-51.2 39.564-90.764 86.109-90.764h179.2c-20.945 11.636-39.564 25.6-55.855 44.218zM1010.036 492.218l-474.764 456.145c-11.636 11.636-30.255 11.636-41.891 0l-479.418-458.473c-9.309-9.309-9.309-23.273 0-32.582v0c9.309-9.309 23.273-9.309 32.582 0l465.455 449.164 337.455-325.818v-528.291c0-18.618-9.309-34.909-23.273-41.891-2.327 0-4.655-13.964-13.964-27.927-6.982-9.309-13.964-23.273-13.964-23.273h9.309c46.545 0 86.109 41.891 86.109 90.764v486.4l79.127-76.8c9.309-9.309 23.273-9.309 32.582 0 13.964 9.309 13.964 23.273 4.655 32.582z" />
<glyph unicode="&#xe623;" glyph-name="house_7" data-tags="house_7" d="M1010.036 485.236l-474.764 463.127c-11.636 11.636-30.255 11.636-41.891 0l-477.091-467.782c-9.309-9.309-9.309-23.273 0-32.582s23.273-9.309 32.582 0l465.455 458.473 337.455-330.473v-539.927c0-25.6-18.618-46.545-39.564-46.545h-591.127c-20.945 0-39.564 20.945-39.564 46.545v30.255l-46.545-30.255c0-51.2 39.564-93.091 86.109-93.091h591.127c46.545 0 86.109 41.891 86.109 93.091v493.382l79.127-76.8c9.309-9.309 23.273-9.309 32.582 0 9.309 6.982 9.309 23.273 0 32.582zM181.527 403.782c0 11.636-9.309 23.273-23.273 23.273s-23.273-9.309-23.273-23.273v-204.8l46.545 30.255v174.545zM595.782 576c-13.964 2.327-27.927 4.655-41.891 4.655-90.764 0-172.218-65.164-193.164-153.6-9.309-37.236-4.655-74.473 6.982-107.055l-304.873-190.836c-9.309-6.982-18.618-16.291-20.945-30.255-2.327-11.636 0-25.6 6.982-34.909 13.964-20.945 44.218-27.927 67.491-16.291l304.873 193.164c25.6-23.273 55.855-39.564 90.764-46.545 13.964-2.327 27.927-4.655 41.891-4.655 90.764 0 172.218 65.164 193.164 153.6 23.273 107.055-44.218 209.455-151.273 232.727zM700.509 354.909c-13.964-67.491-76.8-116.364-146.618-116.364-11.636 0-20.945 2.327-32.582 4.655-81.455 18.618-132.655 97.745-114.036 176.873 13.964 67.491 76.8 116.364 146.618 116.364 11.636 0 20.945-2.327 32.582-4.655 81.455-18.618 132.655-97.745 114.036-176.873zM565.527 301.382v0c2.327 6.982 9.309 11.636 16.291 13.964 9.309 2.327 20.945 6.982 30.255 13.964 11.636 9.309 25.6 25.6 27.927 53.527 0 11.636 9.309 18.618 18.618 20.945h2.327c13.964 2.327 25.6-9.309 23.273-20.945-2.327-46.545-27.927-74.473-46.545-88.436-13.964-9.309-30.255-16.291-51.2-20.945-11.636-2.327-25.6 11.636-20.945 27.927z" />
<glyph unicode="&#xe624;" glyph-name="house_8" data-tags="house_8" d="M635.345 261.818h-253.673c0 0-2.327 2.327-2.327 6.982v160.582c0 13.964-11.636 23.273-23.273 23.273s-23.273-11.636-23.273-23.273v-160.582c0-30.255 23.273-53.527 51.2-53.527h253.673c27.927 0 51.2 23.273 51.2 53.527v179.2l9.309-9.309c4.655-4.655 11.636-6.982 16.291-6.982 6.982 0 11.636 2.327 16.291 6.982 9.309 9.309 9.309 25.6 0 34.909l-202.473 202.473c-9.309 9.309-27.927 9.309-37.236 0l-207.127-204.8c-9.309-9.309-9.309-25.6 0-34.909s25.6-9.309 34.909 0l188.509 188.509 130.327-130.327v-228.073c0-2.327-2.327-4.655-2.327-4.655zM807.564 245.527c-67.491-97.745-176.873-155.927-295.564-155.927 0 0 0 0 0 0-72.145 0-141.964 20.945-202.473 62.836-88.436 62.836-144.291 160.582-153.6 267.636l109.382-74.473c11.636-6.982 25.6-4.655 32.582 6.982 4.655 4.655 4.655 11.636 4.655 18.618-2.327 6.982-4.655 11.636-9.309 16.291l-148.945 102.4c-11.636 6.982-25.6 4.655-32.582-6.982l-104.727-151.273c-6.982-11.636-4.655-25.6 6.982-32.582s25.6-4.655 32.582 6.982l62.836 93.091c13.964-116.364 76.8-218.764 172.218-283.927 67.491-46.545 146.618-69.818 228.073-72.145 0 0 0 0 0 0 134.982 0 258.327 65.164 335.127 176.873 6.982 11.636 4.655 25.6-6.982 32.582-6.982 6.982-23.273 4.655-30.255-6.982zM1012.364 596.945c-11.636 6.982-25.6 4.655-32.582-6.982l-62.836-93.091c-13.964 116.364-76.8 218.764-172.218 283.927-67.491 46.545-146.618 69.818-228.073 69.818-134.982 0-258.327-65.164-335.127-176.873-4.655-4.655-4.655-11.636-4.655-18.618 2.327-6.982 4.655-11.636 9.309-16.291 11.636-6.982 25.6-4.655 32.582 6.982 67.491 97.745 176.873 155.927 295.564 155.927 72.145 0 141.964-20.945 202.473-62.836 90.764-62.836 146.618-158.255 153.6-267.636l-109.382 74.473c-11.636 6.982-25.6 4.655-32.582-6.982s-4.655-25.6 6.982-32.582l148.945-102.4c4.655-2.327 9.309-4.655 13.964-4.655 6.982 0 16.291 4.655 20.945 9.309l102.4 148.945c4.655 4.655 4.655 11.636 4.655 18.618-4.655 11.636-9.309 18.618-13.964 20.945z" />
<glyph unicode="&#xe625;" glyph-name="house_9" data-tags="house_9" d="M505.018 704l-230.4 228.073c-9.309 9.309-25.6 9.309-34.909 0l-232.727-228.073c-6.982-6.982-9.309-20.945 0-30.255 6.982-6.982 20.945-9.309 30.255 0l218.764 218.764 155.927-153.6v-260.655c0-9.309-4.655-13.964-9.309-13.964h-288.582c-4.655 0-9.309 4.655-9.309 13.964v181.527c-2.327 11.636-11.636 20.945-20.945 20.945s-20.945-9.309-20.945-20.945v-181.527c0-30.255 23.273-55.855 51.2-55.855h288.582c27.927 0 51.2 25.6 51.2 55.855v218.764l23.273-20.945c6.982-6.982 20.945-6.982 30.255 0v0c4.655 6.982 4.655 20.945-2.327 27.927zM1017.018 236.218l-230.4 228.073c-9.309 9.309-25.6 9.309-34.909 0l-232.727-230.4c-6.982-6.982-9.309-20.945 0-30.255 6.982-6.982 20.945-9.309 30.255 0l218.764 221.091 155.927-153.6v-260.655c0-9.309-4.655-13.964-9.309-13.964h-288.582c-4.655 0-9.309 4.655-9.309 13.964v181.527c0 11.636-9.309 20.945-20.945 20.945s-20.945-9.309-20.945-20.945v-181.527c0-30.255 23.273-55.855 51.2-55.855h288.582c27.927 0 51.2 25.6 51.2 55.855v218.764l23.273-20.945c6.982-6.982 20.945-6.982 30.255 0v0c4.655 6.982 4.655 20.945-2.327 27.927zM535.273 73.309c-62.836-9.309-128 0-186.182 30.255-88.436 46.545-146.618 130.327-162.909 223.418l109.382-55.855c6.982-4.655 16.291 0 20.945 6.982s0 16.291-6.982 20.945l-137.309 69.818c-6.982 4.655-16.291 0-20.945-6.982l-69.818-137.309c-4.655-6.982 0-16.291 6.982-20.945s16.291 0 20.945 6.982l48.873 97.745c20.945-95.418 81.455-181.527 174.545-230.4 65.164-32.582 134.982-44.218 202.473-34.909v30.255zM965.818 683.055c-6.982 4.655-16.291 0-20.945-6.982l-48.873-95.418c-20.945 95.418-81.455 181.527-174.545 230.4-69.818 32.582-197.818 53.527-279.273 25.6l25.6-25.6c79.127 18.618 181.527 0 237.382-27.927 88.436-46.545 146.618-130.327 162.909-223.418l-109.382 55.855c-6.982 4.655-16.291 0-20.945-6.982s0-16.291 6.982-20.945l137.309-69.818c6.982-4.655 16.291 0 20.945 6.982l69.818 137.309c2.327 6.982 0 16.291-6.982 20.945z" />
<glyph unicode="&#xe626;" glyph-name="house_10" data-tags="house_10" d="M1010.036 450.327c9.309 9.309 9.309 23.273 0 32.582l-474.764 467.782c-11.636 11.636-30.255 11.636-41.891 0l-477.091-472.436c-9.309-9.309-9.309-23.273 0-32.582v0c9.309-9.309 23.273-9.309 32.582 0l465.455 458.473 337.455-332.8v-542.255c0-25.6-18.618-46.545-39.564-46.545h-593.455c-20.945 0-39.564 20.945-39.564 46.545v374.691c0 11.636-9.309 23.273-23.273 23.273v0c-13.964 0-23.273-9.309-23.273-23.273v-370.036c0-51.2 39.564-93.091 86.109-93.091h591.127c46.545 0 86.109 41.891 86.109 93.091v493.382l79.127-76.8c9.309-9.309 25.6-9.309 34.909 0v0zM458.473 89.6c-13.964 0-27.927 6.982-37.236 18.618l-118.691 141.964c-9.309 11.636-6.982 27.927 2.327 37.236v0c11.636 9.309 27.927 6.982 37.236-2.327l116.364-139.636 279.273 370.036c9.309 11.636 25.6 13.964 37.236 4.655v0c11.636-9.309 13.964-25.6 4.655-37.236l-281.6-372.364c-9.309-13.964-23.273-20.945-39.564-20.945 0 0 0 0 0 0z" />
<glyph unicode="&#xe627;" glyph-name="house_11" data-tags="house_11" d="M998.4 261.818c-11.636 0-23.273-9.309-23.273-23.273v-104.727h-27.927v62.836c0 11.636-9.309 23.273-23.273 23.273s-23.273-9.309-23.273-23.273v-62.836h-30.255v90.764c0 11.636-9.309 23.273-23.273 23.273-11.636 0-23.273-9.309-23.273-23.273v-90.764h-30.255v37.236c0 11.636-9.309 23.273-23.273 23.273-11.636 0-23.273-9.309-23.273-23.273v-37.236h-451.491c-9.309 72.145-72.145 128-146.618 128-81.455 0-148.945-67.491-148.945-148.945s67.491-148.945 148.945-148.945c74.473 0 134.982 55.855 146.618 125.673h705.164c11.636 0 18.618 9.309 18.618 18.618v130.327c2.327 13.964-9.309 23.273-20.945 23.273zM148.945 8.145c-55.855 0-102.4 46.545-102.4 102.4s46.545 104.727 102.4 104.727 102.4-46.545 102.4-102.4-44.218-104.727-102.4-104.727zM30.255 445.673c9.309-9.309 23.273-9.309 32.582 0l460.8 460.8 332.8-330.473v-302.545c18.618-4.655 34.909-20.945 37.236-39.564 2.327 2.327 6.982 4.655 9.309 6.982v286.255l79.127-79.127c9.309-9.309 23.273-9.309 32.582 0s9.309 23.273 0 32.582l-470.109 470.109c-11.636 11.636-30.255 11.636-41.891 0l-472.436-470.109c-9.309-9.309-9.309-25.6 0-34.909v0zM856.436 66.327v-32.582c0-25.6-16.291-46.545-39.564-46.545h-551.564c-18.618-16.291-41.891-30.255-67.491-37.236 11.636-4.655 23.273-9.309 34.909-9.309h584.145c46.545 0 83.782 41.891 83.782 93.091v32.582h-44.218zM169.891 427.055c-11.636 0-23.273-9.309-23.273-23.273v-118.691c0 0 2.327 0 2.327 0 13.964 0 30.255-2.327 44.218-6.982v123.345c0 13.964-9.309 25.6-23.273 25.6z" />
<glyph unicode="&#xe628;" glyph-name="house_12" data-tags="house_12" d="M1005.382 527.127l-425.891 423.564c-11.636 11.636-30.255 11.636-41.891 0l-430.545-425.891c-9.309-9.309-9.309-23.273 0-32.582s23.273-9.309 32.582 0l418.909 411.927 297.891-295.564v-211.782c-65.164-46.545-148.945-104.727-197.818-139.636-55.855-39.564-144.291-53.527-223.418-51.2 0 0-58.182 2.327-55.855 9.309 4.655 16.291 123.345-11.636 188.509 16.291 37.236 16.291 41.891 65.164 4.655 69.818l-144.291 4.655c-18.618 0-37.236 2.327-55.855 6.982-34.909 9.309-74.473 9.309-109.382 2.327v139.636c0 13.964-11.636 25.6-25.6 25.6s-25.6-11.636-25.6-25.6v-160.582l-211.782-130.327 144.291-223.418 69.818 51.2c41.891 32.582 97.745 30.255 169.891 32.582 51.2 2.327 148.945-2.327 197.818 0 46.545 2.327 88.436 20.945 125.673 46.545 0 0 116.364 109.382 197.818 188.509 0 0 2.327 0 2.327 2.327v0c23.273 23.273 41.891 41.891 55.855 55.855 72.145 72.145 13.964 172.218-55.855 118.691 0 0 0 0 0 0v123.345l65.164-65.164c9.309-9.309 23.273-9.309 32.582 0v0c9.309 9.309 9.309 25.6 0 32.582z" />
<glyph unicode="&#xe629;" glyph-name="house_14" data-tags="house_14" d="M984.436 932.073h-249.018v4.655c0 11.636-9.309 23.273-23.273 23.273-11.636 0-23.273-9.309-23.273-23.273v-4.655h-314.182v4.655c0 11.636-9.309 23.273-23.273 23.273-11.636 0-23.273-9.309-23.273-23.273v-4.655h-218.764c-51.2 0-93.091-41.891-93.091-93.091v-877.382c0-11.636 9.309-23.273 23.273-23.273 11.636 0 23.273 9.309 23.273 23.273v875.055c0 27.927 20.945 48.873 48.873 48.873h218.764v-95.418h-179.2c-23.273 0-44.218-18.618-44.218-44.218v-614.4c0-23.273 18.618-44.218 44.218-44.218h756.364c23.273 0 44.218 18.618 44.218 44.218v614.4c0 23.273-18.618 44.218-44.218 44.218h-172.218v95.418h249.018c11.636 0 23.273 9.309 23.273 23.273s-11.636 23.273-23.273 23.273zM905.309 133.818h-751.709v609.745h751.709v-609.745zM374.691 790.109v95.418h316.509v-95.418h-316.509zM316.509 431.709l209.455 207.127 146.618-146.618v-246.691c0-6.982-4.655-13.964-9.309-13.964h-272.291c-4.655 0-9.309 4.655-9.309 13.964v172.218c0 11.636-9.309 18.618-18.618 18.618s-18.618-9.309-18.618-18.618v-172.218c0-27.927 20.945-51.2 48.873-51.2h272.291c25.6 0 48.873 23.273 48.873 51.2v207.127l20.945-20.945c6.982-6.982 20.945-6.982 27.927 0v0c6.982 6.982 6.982 20.945 0 27.927l-218.764 216.436c-9.309 9.309-23.273 9.309-32.582 0l-218.764-218.764c-6.982-6.982-6.982-20.945 0-27.927 4.655-4.655 16.291-4.655 23.273 2.327z" />
<glyph unicode="&#xe62a;" glyph-name="house_15" data-tags="house_15" d="M791.273 555.055l-258.327 258.327c-9.309 9.309-27.927 9.309-37.236 0l-262.982-258.327c-9.309-9.309-9.309-23.273 0-32.582s23.273-9.309 32.582 0l246.691 244.364 174.545-174.545v-293.236c0-9.309-4.655-16.291-11.636-16.291h-325.818c-4.655 0-11.636 6.982-11.636 16.291v204.8c0 13.964-9.309 23.273-23.273 23.273s-23.273-9.309-23.273-23.273v-204.8c0-34.909 25.6-62.836 58.182-62.836h325.818c32.582 0 58.182 27.927 58.182 62.836v249.018l25.6-25.6c9.309-9.309 23.273-9.309 32.582 0v0c9.309 9.309 9.309 25.6 0 32.582zM928.582 960h-833.164c-51.2 0-93.091-44.218-93.091-95.418v-709.818c0-51.2 41.891-95.418 95.418-95.418h528.291l151.273-116.364c4.655-2.327 9.309-4.655 13.964-4.655s9.309 0 11.636 2.327c9.309 4.655 13.964 13.964 13.964 23.273v95.418h114.036c51.2 0 95.418 41.891 95.418 95.418v709.818c-2.327 51.2-46.545 95.418-97.745 95.418zM977.455 154.764c0-25.6-20.945-48.873-48.873-48.873h-160.582v-100.073l-128 100.073h-544.582c-25.6 0-48.873 20.945-48.873 48.873v709.818c0 25.6 23.273 48.873 48.873 48.873h833.164c25.6 0 48.873-23.273 48.873-48.873v-709.818z" />
<glyph unicode="&#xe62b;" glyph-name="house" data-tags="house" d="M512-57.018c-279.273 0-507.345 225.745-507.345 505.018 0 281.6 228.073 507.345 507.345 507.345s507.345-228.073 507.345-507.345c0-279.273-228.073-505.018-507.345-505.018zM512 908.8c-253.673 0-460.8-204.8-460.8-460.8s207.127-458.473 460.8-458.473 460.8 204.8 460.8 458.473-207.127 460.8-460.8 460.8zM788.945 473.6l-258.327 256c-9.309 9.309-27.927 9.309-37.236 0l-258.327-256c-9.309-9.309-9.309-23.273 0-32.582s23.273-9.309 32.582 0l244.364 244.364 174.545-172.218v-290.909c0-9.309-4.655-16.291-11.636-16.291h-323.491c-4.655 0-11.636 6.982-11.636 16.291v204.8c0 11.636-9.309 23.273-23.273 23.273-11.636 0-23.273-9.309-23.273-23.273v-204.8c0-34.909 25.6-62.836 58.182-62.836h323.491c32.582 0 58.182 27.927 58.182 62.836v244.364l25.6-25.6c9.309-9.309 23.273-9.309 32.582 0v0c6.982 9.309 6.982 25.6-2.327 32.582z" />
<glyph unicode="&#xe62c;" glyph-name="icecream" data-tags="icecream" d="M491.055-64c-6.982 0-13.964 13.964-13.964 13.964l-6.982 13.964-223.418 477.091c-6.982 13.964-13.964 27.927-4.655 39.564 4.655 6.982 23.273 6.982 23.273 6.982l439.855-2.327c41.891 0 34.909-32.582 34.909-32.582l-235.055-500.364c0 0-4.655-16.291-13.964-16.291zM295.564 443.345l195.491-421.236 195.491 421.236h-390.982zM712.145 515.491h-453.818c-6.982 0-13.964 2.327-20.945 2.327-72.145 13.964-123.345 79.127-123.345 151.273 0 86.109 69.818 153.6 153.6 153.6 6.982 0 11.636 0 18.618 0 34.909 81.455 114.036 134.982 204.8 134.982 88.436 0 169.891-53.527 204.8-134.982 6.982 0 11.636 0 18.618 0 86.109 0 153.6-69.818 153.6-153.6 0-74.473-53.527-137.309-125.673-151.273-6.982 0-13.964 0-20.945-2.327h-9.309zM267.636 780.8c-60.509 0-111.709-48.873-111.709-111.709 0-53.527 37.236-97.745 88.436-109.382 4.655 0 9.309-2.327 13.964-2.327h460.8c4.655 0 9.309 0 13.964 2.327 51.2 9.309 90.764 55.855 90.764 109.382 0 60.509-48.873 111.709-111.709 111.709-9.309 0-18.618 0-27.927-2.327l-18.618-4.655-6.982 18.618c-23.273 72.145-90.764 123.345-169.891 123.345s-144.291-48.873-169.891-123.345l-2.327-18.618-20.945 4.655c-9.309 2.327-18.618 2.327-27.927 2.327z" />
<glyph unicode="&#xe62d;" glyph-name="key_1" data-tags="key_1" d="M621.382 624.873c46.545 69.818 30.255 162.909-39.564 211.782s-162.909 30.255-209.455-39.564c-44.218-62.836-32.582-146.618 20.945-195.491l-349.091-507.345c-6.982-9.309-4.655-20.945 4.655-27.927l109.382-74.473c11.636-6.982 25.6-4.655 32.582 6.982 6.982 6.982 4.655 23.273-6.982 30.255l-86.109 60.509 16.291 23.273 53.527-37.236c11.636-6.982 25.6-4.655 32.582 6.982s4.655 25.6-6.982 32.582l-53.527 37.236 18.618 25.6 76.8-53.527c11.636-6.982 25.6-4.655 32.582 6.982s4.655 25.6-6.982 32.582l-74.473 51.2 18.618 25.6 30.255-20.945c11.636-6.982 25.6-4.655 32.582 6.982s4.655 25.6-6.982 32.582l-30.255 20.945 202.473 293.236c65.164-32.582 146.618-11.636 188.509 51.2zM584.145 650.473c-32.582-46.545-97.745-60.509-146.618-27.927s-60.509 97.745-27.927 146.618c32.582 46.545 97.745 60.509 146.618 27.927s60.509-97.745 27.927-146.618zM544.582 778.473c-6.982 4.655-11.636 6.982-18.618 9.309-23.273-34.909-32.582-79.127-20.945-123.345 2.327-11.636 6.982-23.273 13.964-32.582 16.291 4.655 30.255 11.636 39.564 23.273-2.327 6.982-6.982 13.964-9.309 20.945-6.982 30.255-2.327 60.509 13.964 83.782-6.982 6.982-11.636 13.964-18.618 18.618zM984.436 1.164c-2.327 11.636-16.291 20.945-27.927 16.291l-102.4-25.6-6.982 27.927 62.836 16.291c11.636 2.327 20.945 16.291 16.291 27.927-2.327 11.636-16.291 20.945-27.927 16.291l-62.836-16.291-6.982 30.255 90.764 23.273c11.636 2.327 20.945 16.291 16.291 27.927-2.327 11.636-16.291 20.945-27.927 16.291l-90.764-23.273-6.982 30.255 37.236 9.309c11.636 2.327 20.945 16.291 16.291 27.927-2.327 11.636-16.291 20.945-27.927 16.291l-37.236-9.309-88.436 344.436c67.491 27.927 107.055 102.4 88.436 176.873-20.945 81.455-102.4 130.327-183.855 109.382-2.327 0-4.655 0-4.655-2.327 13.964-11.636 27.927-25.6 37.236-41.891 48.873 2.327 95.418-30.255 107.055-79.127 13.964-55.855-20.945-114.036-76.8-128-13.964-4.655-30.255-4.655-44.218-2.327-11.636-13.964-25.6-25.6-41.891-37.236 23.273-9.309 46.545-13.964 72.145-11.636l151.273-586.473c2.327-11.636 13.964-16.291 23.273-13.964l128 32.582c13.964 2.327 20.945 13.964 18.618 27.927zM498.036 885.527c16.291 16.291 39.564 25.6 65.164 25.6 30.255 0 58.182-11.636 74.473-32.582 0 0 2.327-2.327 2.327-2.327 4.655 0 6.982 0 11.636 0 16.291 0 30.255-2.327 46.545-6.982-2.327 2.327-4.655 6.982-4.655 9.309-20.945 48.873-72.145 81.455-128 81.455-58.182 0-109.382-37.236-128-86.109 13.964 6.982 34.909 11.636 60.509 11.636-2.327 0-2.327 0 0 0z" />
<glyph unicode="&#xe62e;" glyph-name="key" data-tags="key" d="M544.582 880.873c-76.8 16.291-151.273-37.236-165.236-116.364-2.327-13.964-2.327-30.255-2.327-44.218l-374.691-239.709c-2.327-2.327-2.327-4.655 0-4.655l123.345-46.545 46.545 55.855 69.818 6.982 32.582 53.527h67.491l25.6 48.873 62.836 32.582c13.964-11.636 39.564-25.6 58.182-27.927 76.8-13.964 148.945 41.891 162.909 121.018 11.636 74.473-37.236 144.291-107.055 160.582zM574.836 699.345c-25.6 0-46.545 20.945-46.545 46.545s20.945 46.545 46.545 46.545c25.6 0 46.545-20.945 46.545-46.545s-20.945-46.545-46.545-46.545zM1017.018 336.291l-258.327 256c-9.309 9.309-27.927 9.309-37.236 0l-260.655-258.327c-9.309-9.309-9.309-23.273 0-32.582s23.273-9.309 32.582 0l246.691 244.364 174.545-172.218v-290.909c0-9.309-4.655-16.291-11.636-16.291h-323.491c-4.655 0-11.636 6.982-11.636 16.291v202.473c0 11.636-9.309 23.273-23.273 23.273-11.636 0-23.273-9.309-23.273-23.273v-202.473c0-34.909 25.6-60.509 58.182-60.509h323.491c32.582 0 58.182 27.927 58.182 60.509v246.691l25.6-25.6c9.309-9.309 23.273-9.309 32.582 0v0c6.982 9.309 6.982 23.273-2.327 32.582zM763.345 473.6c-65.164 0-137.309 51.2-162.909 128-13.964 41.891-13.964 86.109 0 125.673 2.327 9.309 2.327 18.618-4.655 23.273v0c-11.636 11.636-32.582 6.982-37.236-6.982-6.982-23.273-11.636-46.545-13.964-72.145 0-27.927 4.655-55.855 13.964-83.782 32.582-95.418 123.345-158.255 207.127-158.255 16.291 0 32.582 2.327 48.873 6.982l-39.564 39.564c-4.655-2.327-6.982-2.327-11.636-2.327zM921.6 710.982c-32.582 95.418-114.036 160.582-200.145 160.582-9.309 0-30.255-2.327-46.545-9.309s-20.945-25.6-9.309-37.236v0c4.655-4.655 13.964-9.309 20.945-4.655 11.636 2.327 27.927 4.655 34.909 4.655 65.164 0 128-53.527 155.927-130.327 16.291-46.545 16.291-93.091 0-134.982-4.655-11.636-9.309-20.945-13.964-30.255l32.582-32.582c9.309 13.964 18.618 30.255 25.6 46.545 18.618 51.2 18.618 111.709 0 167.564z" />
<glyph unicode="&#xe62f;" glyph-name="ladder_1" data-tags="ladder_1" d="M856.436 922.764c-44.218 37.236-104.727 46.545-158.255 23.273s-86.109-76.8-86.109-134.982v-107.055h-418.909v107.055c0 39.564 23.273 76.8 60.509 93.091s79.127 11.636 109.382-16.291l20.945-18.618 30.255 34.909-20.945 18.618c-44.218 37.236-104.727 46.545-158.255 23.273-55.855-25.6-88.436-76.8-88.436-137.309v-872.727h46.545v134.982h416.582v-134.982h46.545v872.727c0 39.564 23.273 76.8 60.509 93.091s79.127 11.636 109.382-16.291l20.945-18.618 30.255 34.909-20.945 20.945zM609.745 655.127v-148.945h-416.582v148.945h416.582zM609.745 461.964v-148.945h-416.582v148.945h416.582zM193.164 117.527v148.945h416.582v-148.945h-416.582z" />
<glyph unicode="&#xe630;" glyph-name="ladder" data-tags="ladder" d="M828.509 36.073c-4.655-11.636-18.618-16.291-30.255-9.309l-100.073 46.545c-34.909 18.618-74.473 18.618-109.382 0l-30.255-16.291c-51.2-27.927-111.709-30.255-165.236-4.655l-51.2 23.273c-37.236 16.291-79.127 16.291-114.036 0l-109.382-51.2c-11.636-4.655-25.6 0-30.255 11.636v0c-4.655 11.636 0 25.6 11.636 30.255l109.382 51.2c48.873 23.273 104.727 23.273 153.6 0l51.2-23.273c39.564-18.618 83.782-16.291 123.345 4.655l30.255 16.291c48.873 25.6 104.727 25.6 153.6 0l97.745-48.873c9.309-6.982 13.964-20.945 9.309-30.255v0zM821.527-47.709c-4.655-11.636-18.618-16.291-30.255-9.309l-100.073 48.873c-34.909 18.618-74.473 18.618-109.382 0l-30.255-16.291c-51.2-27.927-111.709-30.255-165.236-4.655l-51.2 23.273c-37.236 16.291-79.127 16.291-114.036 0l-109.382-51.2c-11.636-4.655-25.6 0-30.255 11.636v0c-4.655 11.636 0 25.6 11.636 30.255l109.382 51.2c48.873 23.273 104.727 23.273 153.6 0l51.2-23.273c39.564-18.618 83.782-16.291 123.345 4.655l30.255 16.291c48.873 25.6 104.727 25.6 153.6 0l97.745-48.873c9.309-6.982 13.964-20.945 9.309-32.582v0zM923.927 922.764c-44.218 37.236-104.727 46.545-158.255 23.273s-86.109-76.8-86.109-134.982v-107.055h-418.909v107.055c0 39.564 23.273 76.8 60.509 93.091s79.127 11.636 109.382-16.291l20.945-18.618 30.255 34.909-20.945 18.618c-44.218 37.236-104.727 46.545-158.255 23.273-53.527-25.6-86.109-76.8-86.109-134.982v-658.618l4.655 2.327c13.964 6.982 27.927 9.309 41.891 11.636v100.073h416.582v-107.055c13.964-2.327 27.927-9.309 41.891-16.291l4.655-2.327v670.255c0 39.564 23.273 76.8 60.509 93.091s79.127 11.636 109.382-16.291l20.945-18.618 30.255 34.909-23.273 18.618zM677.236 310.691h-416.582v148.945h416.582v-148.945zM679.564 506.182h-418.909v148.945h416.582l2.327-148.945z" />
<glyph unicode="&#xe631;" glyph-name="luggage" data-tags="luggage" d="M670.255 801.745h-4.655l-25.6 23.273c-41.891 37.236-90.764 53.527-139.636 41.891-48.873-9.309-88.436-46.545-109.382-97.745l-13.964-34.909h-2.327c-90.764-20.945-148.945-111.709-128-200.145l90.764-416.582 626.036 139.636-90.764 416.582c-20.945 90.764-111.709 148.945-202.473 128zM432.873 752.873c16.291 37.236 41.891 62.836 76.8 69.818 0 0 0 0 0 0 32.582 6.982 69.818-4.655 97.745-32.582l2.327-2.327-176.873-37.236v2.327zM346.764 54.691c11.636-48.873-18.618-95.418-67.491-107.055s-95.418 18.618-107.055 67.491c-9.309 48.873 20.945 97.745 67.491 107.055s95.418-18.618 107.055-67.491zM1021.673 205.964c-2.327 11.636-16.291 20.945-27.927 18.618l-633.018-139.636c2.327-6.982 4.655-13.964 6.982-23.273 2.327-6.982 2.327-16.291 2.327-23.273l633.018 139.636c13.964 2.327 20.945 13.964 18.618 27.927zM79.127 943.709c-9.309 9.309-53.527 4.655-53.527 4.655-13.964 0-23.273-9.309-23.273-23.273v0c0-13.964 9.309-23.273 23.273-23.273h20.945l167.564-763.345c6.982 2.327 13.964 4.655 20.945 6.982s16.291 2.327 23.273 2.327l-169.891 777.309c0 0-4.655 16.291-9.309 18.618z" />
<glyph unicode="&#xe632;" glyph-name="man" data-tags="man" d="M872.727 240.873c-74.473 0-134.982-55.855-146.618-125.673h-705.164c-11.636 0-18.618-9.309-18.618-18.618v-130.327c0-11.636 9.309-23.273 23.273-23.273s23.273 9.309 23.273 23.273v104.727h27.927v-65.164c0-11.636 9.309-23.273 23.273-23.273s23.273 9.309 23.273 23.273v62.836h30.255v-90.764c0-11.636 9.309-23.273 23.273-23.273 11.636 0 23.273 9.309 23.273 23.273v90.764h30.255v-37.236c0-11.636 9.309-23.273 23.273-23.273 11.636 0 23.273 9.309 23.273 23.273v37.236h451.491c11.636-72.145 72.145-125.673 146.618-125.673 81.455 0 148.945 67.491 148.945 148.945s-67.491 148.945-151.273 148.945zM872.727-10.473c-55.855 0-102.4 46.545-102.4 102.4s46.545 102.4 102.4 102.4c55.855 0 102.4-46.545 102.4-102.4 2.327-55.855-44.218-102.4-102.4-102.4zM500.364 641.164c86.109 0 155.927 69.818 155.927 155.927s-69.818 155.927-155.927 155.927-155.927-69.818-155.927-155.927c0-86.109 69.818-155.927 155.927-155.927zM500.364 908.8c60.509 0 109.382-48.873 109.382-109.382s-48.873-109.382-109.382-109.382-109.382 46.545-109.382 107.055 48.873 111.709 109.382 111.709zM702.836 627.2h-393.309c-46.545 0-86.109-34.909-86.109-76.8v-269.964c0-37.236 30.255-72.145 72.145-79.127 16.291-2.327 34.909 0 48.873 4.655v-60.509c20.945 0 37.236 0 51.2 0v290.909c0 0 0 18.618 0 23.273-2.327 6.982-9.309 18.618-25.6 18.618-13.964 0-20.945-9.309-23.273-16.291-2.327-4.655-2.327-18.618-2.327-18.618v-169.891c0-13.964-11.636-25.6-25.6-25.6h-18.618c-13.964 0-25.6 11.636-25.6 25.6v4.655c0 0 0 0 0 0v272.291c0 16.291 16.291 30.255 34.909 30.255h390.982c18.618 0 34.909-13.964 34.909-30.255v-272.291c0 0 0 0 0 0v-6.982c0-13.964-11.636-25.6-25.6-25.6h-18.618c-13.964 0-25.6 11.636-25.6 25.6v172.218c0 4.655 0 13.964-2.327 18.618-2.327 6.982-11.636 16.291-27.927 16.291s-23.273-18.618-23.273-18.618v-314.182c23.273 0 27.927 0 51.2 0v62.836c11.636-4.655 23.273-6.982 34.909-6.982 6.982 0 16.291 0 23.273 2.327 37.236 9.309 62.836 39.564 62.836 74.473v272.291c4.655 41.891-34.909 76.8-81.455 76.8z" />
<glyph unicode="&#xe633;" glyph-name="microwave" data-tags="microwave" d="M940.218 776.145h-856.436c-46.545 0-83.782-37.236-83.782-81.455v-491.055c0-44.218 37.236-81.455 81.455-81.455h856.436c44.218 0 81.455 37.236 81.455 81.455v491.055c4.655 44.218-32.582 81.455-79.127 81.455zM977.455 201.309c0-18.618-16.291-34.909-34.909-34.909h-858.764c-18.618 0-34.909 16.291-34.909 34.909v493.382c0 18.618 16.291 34.909 34.909 34.909h856.436c18.618 0 34.909-16.291 34.909-34.909v-493.382zM672.582 692.364h-505.018c-39.564 0-74.473-34.909-74.473-76.8v-337.455c0-41.891 32.582-74.473 74.473-74.473h507.345c39.564 0 72.145 32.582 72.145 72.145v339.782c0 41.891-32.582 76.8-74.473 76.8zM705.164 278.109c0-16.291-13.964-30.255-30.255-30.255h-507.345c-18.618 0-32.582 13.964-32.582 32.582v335.127c0 18.618 13.964 32.582 32.582 32.582h502.691c18.618 0 32.582-13.964 32.582-32.582v-337.455zM868.073 655.127c-46.545 0-83.782-37.236-83.782-83.782s37.236-83.782 83.782-83.782c46.545 0 83.782 37.236 83.782 83.782 0 44.218-37.236 83.782-83.782 83.782zM868.073 531.782c-20.945 0-37.236 16.291-37.236 37.236s16.291 37.236 37.236 37.236c20.945 0 37.236-16.291 37.236-37.236s-16.291-37.236-37.236-37.236zM900.655 443.345h-65.164c-13.964 0-23.273-11.636-23.273-23.273 0-13.964 11.636-23.273 23.273-23.273h65.164c13.964 0 23.273 11.636 23.273 23.273s-11.636 23.273-23.273 23.273zM900.655 354.909h-65.164c-13.964 0-23.273-11.636-23.273-23.273 0-13.964 11.636-23.273 23.273-23.273h65.164c13.964 0 23.273 11.636 23.273 23.273s-11.636 23.273-23.273 23.273z" />
<glyph unicode="&#xe634;" glyph-name="mountains" data-tags="mountains" d="M207.127 466.618l-6.982 13.964c0 0-6.982 13.964-13.964 13.964-11.636 0-16.291-13.964-16.291-13.964l-167.564-360.727c-2.327-2.327-2.327-6.982-2.327-9.309v0c0-25.6 34.909-32.582 44.218-9.309l139.636 304.873 60.509-130.327 25.6 55.855-62.836 134.982zM793.6 678.4l-6.982 13.964c0 0-6.982 16.291-13.964 16.291-11.636 0-16.291-16.291-16.291-16.291l-86.109-186.182 25.6-55.855 76.8 165.236 204.8-446.836c11.636-23.273 46.545-16.291 46.545 9.309v0c0 2.327 0 2.327 0 4.655l-230.4 495.709zM23.273 731.927h41.891c4.655-25.6 13.964-46.545 27.927-65.164l-30.255-30.255c-9.309-9.309-9.309-23.273 0-30.255v0c9.309-9.309 23.273-9.309 30.255 0l30.255 30.255c16.291-11.636 37.236-18.618 58.182-23.273v-41.891c0-11.636 9.309-20.945 20.945-20.945s20.945 9.309 20.945 20.945v41.891c23.273 2.327 41.891 11.636 60.509 25.6l32.582-32.582c9.309-9.309 23.273-9.309 30.255 0 9.309 9.309 9.309 23.273 0 30.255l-30.255 30.255c13.964 18.618 23.273 39.564 25.6 62.836h41.891c11.636 0 20.945 9.309 20.945 20.945s-9.309 20.945-20.945 20.945h-41.891c-2.327 20.945-11.636 39.564-23.273 58.182l30.255 30.255c9.309 9.309 9.309 23.273 0 30.255-9.309 9.309-23.273 9.309-30.255 0l-30.255-30.255c-16.291 20.945-37.236 30.255-62.836 34.909v44.218c0 11.636-9.309 20.945-20.945 20.945-11.636-2.327-20.945-11.636-20.945-23.273v-44.218c-23.273-2.327-44.218-11.636-62.836-25.6l-30.255 30.255c-9.309 9.309-23.273 9.309-30.255 0s-9.309-23.273 0-30.255l30.255-30.255c-11.636-18.618-20.945-37.236-25.6-60.509h-41.891c-11.636 0-23.273-9.309-20.945-20.945 0-13.964 9.309-23.273 20.945-23.273zM204.8 852.945c53.527 0 97.745-44.218 97.745-97.745s-44.218-97.745-97.745-97.745-97.745 44.218-97.745 97.745 44.218 97.745 97.745 97.745zM998.4-15.127h-114.036l-344.436 747.055c-4.655 9.309-13.964 13.964-23.273 13.964-11.636 0-20.945-9.309-20.945-9.309l-349.091-754.036h-123.345c-13.964 0-23.273-9.309-23.273-23.273s9.309-23.273 23.273-23.273h975.127c13.964 0 23.273 9.309 23.273 23.273s-9.309 25.6-23.273 25.6zM516.655 669.091l316.509-684.218h-633.018l316.509 684.218z" />
<glyph unicode="&#xe635;" glyph-name="padlock" data-tags="padlock" d="M518.982 485.236c-65.164 0-116.364-53.527-116.364-118.691 0-37.236 18.618-69.818 46.545-93.091-11.636-51.2-18.618-100.073-18.618-102.4l-4.655-25.6h188.509l-4.655 25.6c0 2.327-6.982 51.2-18.618 102.4 30.255 23.273 46.545 55.855 46.545 93.091 0 65.164-53.527 118.691-118.691 118.691zM553.891 303.709l-16.291-9.309 4.655-16.291c6.982-30.255 13.964-65.164 18.618-86.109h-79.127c4.655 23.273 9.309 55.855 18.618 86.109l4.655 16.291-16.291 9.309c-23.273 13.964-37.236 37.236-37.236 62.836 0 39.564 32.582 72.145 72.145 72.145s72.145-32.582 72.145-72.145c-4.655-25.6-18.618-48.873-41.891-62.836zM889.018 666.764c-20.945 97.745-109.382 216.436-242.036 267.636-90.764 34.909-272.291 60.509-484.073-146.618-11.636-9.309-9.309-27.927 0-37.236 11.636-9.309 27.927-9.309 37.236 0 181.527 176.873 330.473 169.891 428.218 134.982 104.727-41.891 183.855-137.309 207.127-218.764-6.982 0-16.291 0-34.909 0h-744.727v-365.382c0-200.145 162.909-365.382 363.055-365.382h202.473c200.145 0 363.055 162.909 363.055 365.382v365.382h-95.418zM937.891 301.382c0-176.873-141.964-318.836-316.509-318.836h-202.473c-174.545 0-316.509 141.964-316.509 318.836v318.836h698.182c34.909 0 34.909 0 62.836 0h74.473v-318.836z" />
<glyph unicode="&#xe636;" glyph-name="palms" data-tags="palms" d="M1000.727-17.455h-337.455c0 0 0 2.327 0 2.327-9.309 76.8-65.164 137.309-137.309 158.255-6.982 88.436-9.309 344.436 179.2 512 9.309-4.655 16.291-13.964 20.945-25.6 11.636-34.909-4.655-88.436-18.618-121.018-4.655-11.636 0-23.273 9.309-30.255v0c11.636-6.982 27.927-2.327 32.582 11.636 16.291 34.909 37.236 102.4 18.618 153.6-2.327 6.982-6.982 13.964-11.636 20.945 20.945-2.327 37.236-6.982 53.527-16.291 37.236-25.6 53.527-69.818 60.509-95.418 2.327-11.636 13.964-18.618 25.6-16.291v0c13.964 2.327 23.273 16.291 18.618 27.927-6.982 37.236-27.927 93.091-76.8 125.673-30.255 20.945-67.491 30.255-109.382 25.6-13.964 37.236-39.564 65.164-74.473 81.455-62.836 30.255-137.309 13.964-174.545 2.327-13.964-4.655-20.945-18.618-13.964-30.255v0c4.655-11.636 16.291-16.291 27.927-13.964 32.582 9.309 95.418 23.273 141.964 2.327 23.273-11.636 37.236-27.927 48.873-53.527-132.655-114.036-181.527-262.982-200.145-384-11.636 151.273-58.182 358.4-216.436 512 11.636 30.255 30.255 55.855 58.182 69.818 51.2 23.273 114.036 6.982 146.618-4.655 11.636-4.655 23.273 2.327 27.927 11.636v0c6.982 11.636 0 27.927-13.964 32.582-37.236 13.964-116.364 32.582-181.527 2.327-37.236-18.618-65.164-53.527-81.455-102.4-39.564 4.655-76.8-2.327-107.055-23.273-60.509-39.564-83.782-116.364-93.091-155.927-2.327-13.964 6.982-25.6 20.945-27.927v0c11.636-2.327 23.273 6.982 25.6 18.618 4.655 32.582 23.273 95.418 69.818 125.673 16.291 11.636 34.909 18.618 58.182 18.618-6.982-9.309-13.964-20.945-16.291-32.582-13.964-48.873 9.309-102.4 25.6-132.655 6.982-11.636 20.945-16.291 32.582-6.982v0c9.309 6.982 13.964 18.618 6.982 30.255-13.964 25.6-30.255 67.491-23.273 97.745 2.327 11.636 9.309 20.945 20.945 27.927 204.8-209.455 197.818-532.945 190.836-633.018-79.127-16.291-141.964-79.127-153.6-162.909 0 0 0-2.327 0-2.327h-258.327c-13.964 0-23.273-9.309-23.273-23.273s9.309-23.273 23.273-23.273h977.455c13.964 0 23.273 9.309 23.273 23.273s-11.636 23.273-23.273 23.273zM472.436 105.891c4.655 0 6.982 0 11.636 0 0 0 0 0 0 0h2.327c65.164-4.655 121.018-55.855 130.327-121.018h-286.255c9.309 69.818 72.145 121.018 141.964 121.018z" />
<glyph unicode="&#xe637;" glyph-name="parasol" data-tags="parasol" d="M1000.727-17.455h-572.509v488.727c9.309 13.964 30.255 37.236 60.509 37.236 41.891 0 67.491-46.545 67.491-46.545 4.655-9.309 13.964-13.964 23.273-13.964s18.618 4.655 23.273 13.964c0 0 23.273 46.545 67.491 46.545 39.564 0 48.873-39.564 48.873-39.564 2.327-11.636 13.964-18.618 27.927-18.618 0 0 0 0 0 0 11.636 2.327 23.273 11.636 23.273 23.273 4.655 102.4-32.582 197.818-102.4 272.291-65.164 67.491-148.945 107.055-242.036 114.036v32.582c0 13.964-11.636 25.6-25.6 25.6s-25.6-11.636-25.6-25.6v-34.909c-93.091-6.982-176.873-46.545-242.036-114.036-69.818-74.473-107.055-169.891-102.4-272.291 0-13.964 11.636-25.6 25.6-25.6v0c13.964 0 25.6 11.636 25.6 25.6 0 0 0 13.964 9.309 23.273 6.982 6.982 20.945 11.636 39.564 11.636 53.527 0 65.164-39.564 65.164-39.564 2.327-11.636 13.964-18.618 25.6-18.618s20.945 6.982 25.6 18.618c0 2.327 11.636 41.891 65.164 41.891 39.564 0 55.855-20.945 60.509-32.582v-493.382h-349.091c-13.964 0-23.273-9.309-23.273-23.273s9.309-23.273 23.273-23.273h977.455c13.964 0 23.273 9.309 23.273 23.273s-11.636 23.273-23.273 23.273zM311.855 559.709c-46.545 0-74.473-18.618-90.764-37.236-16.291 16.291-44.218 37.236-90.764 37.236-16.291 0-30.255-2.327-44.218-6.982 11.636 58.182 39.564 111.709 81.455 158.255 60.509 62.836 141.964 97.745 230.4 97.745s169.891-34.909 230.4-97.745c41.891-44.218 72.145-100.073 83.782-160.582-13.964 6.982-27.927 9.309-44.218 9.309-41.891 0-72.145-23.273-90.764-41.891-16.291 18.618-46.545 41.891-90.764 41.891-39.564 0-67.491-18.618-86.109-39.564-11.636 16.291-41.891 39.564-88.436 39.564zM637.673 836.655c-4.655-6.982-9.309-16.291-13.964-23.273 11.636-9.309 23.273-16.291 34.909-27.927 13.964 39.564 48.873 67.491 93.091 67.491 53.527 0 97.745-44.218 97.745-97.745 0-51.2-41.891-93.091-93.091-97.745 6.982-13.964 11.636-27.927 16.291-41.891 20.945 4.655 41.891 11.636 60.509 25.6l32.582-32.582c9.309-9.309 23.273-9.309 30.255 0 9.309 9.309 9.309 23.273 0 30.255l-30.255 30.255c13.964 18.618 23.273 39.564 25.6 62.836h41.891c11.636 0 20.945 9.309 20.945 20.945s-9.309 20.945-20.945 20.945h-41.891c-2.327 20.945-11.636 39.564-23.273 58.182l30.255 30.255c9.309 9.309 9.309 23.273 0 30.255-9.309 9.309-23.273 9.309-30.255 0l-30.255-27.927c-18.618 13.964-41.891 25.6-65.164 27.927v44.218c0 11.636-9.309 20.945-20.945 20.945s-20.945-9.309-20.945-20.945v-44.218c-23.273-4.655-44.218-11.636-62.836-25.6l-30.255 30.255c-9.309 9.309-23.273 9.309-30.255 0-9.309-9.309-9.309-23.273 0-30.255l30.255-30.255z" />
<glyph unicode="&#xe638;" glyph-name="parking" data-tags="parking" d="M928.582 960h-833.164c-51.2 0-93.091-44.218-93.091-95.418v-130.327c0-13.964 9.309-23.273 23.273-23.273s23.273 9.309 23.273 23.273v130.327c-2.327 25.6 20.945 48.873 46.545 48.873h833.164c25.6 0 48.873-23.273 48.873-48.873v-833.164c0-25.6-23.273-48.873-48.873-48.873h-833.164c-25.6 0-48.873 23.273-48.873 48.873v530.618c0 13.964-9.309 23.273-23.273 23.273s-23.273-9.309-23.273-23.273v-530.618c0-51.2 41.891-95.418 95.418-95.418h833.164c51.2 0 95.418 41.891 95.418 95.418v833.164c0 51.2-44.218 95.418-95.418 95.418zM470.109 415.418c11.636-2.327 23.273-2.327 41.891-2.327 97.745 0 160.582 53.527 160.582 137.309 0 79.127-55.855 128-148.945 128-20.945 0-39.564 0-53.527-2.327-18.618-2.327-34.909-18.618-34.909-39.564v-181.527c0-20.945 13.964-37.236 34.909-39.564zM481.745 629.527c9.309 0 23.273 2.327 41.891 2.327 46.545 0 102.4-13.964 102.4-81.455 0-58.182-41.891-90.764-114.036-90.764-11.636 0-23.273 0-30.255 0v169.891zM442.182 40.727c20.945 0 39.564 18.618 39.564 39.564v209.455c9.309 0 18.618 0 30.255 0 102.4 0 188.509 27.927 244.364 81.455 46.545 41.891 72.145 107.055 72.145 183.855 0 74.473-30.255 139.636-83.782 181.527-51.2 41.891-128 60.509-230.4 60.509-79.127 0-148.945-4.655-204.8-11.636-18.618-2.327-32.582-18.618-32.582-39.564v-665.6c0-20.945 18.618-39.564 39.564-39.564h125.673zM323.491 741.236c53.527 6.982 116.364 11.636 193.164 11.636 93.091 0 158.255-16.291 202.473-51.2 41.891-32.582 65.164-86.109 65.164-144.291 0-62.836-20.945-116.364-58.182-151.273-48.873-44.218-121.018-67.491-214.109-67.491-20.945 0-37.236 0-46.545 2.327h-4.655c-13.964 0-25.6-11.636-25.6-25.6v-228.073h-111.709v653.964z" />
</font>
</defs>
</svg>
