<?xml version="1.0" standalone="no"?>
<!DOCTYPE svg PUBLIC "-//W3C//DTD SVG 1.1//EN" "http://www.w3.org/Graphics/SVG/1.1/DTD/svg11.dtd" >
<svg xmlns="http://www.w3.org/2000/svg">
<metadata>Generated by IcoMoon</metadata>
<defs>
<font id="printocean-icons" horiz-adv-x="1024">
<font-face units-per-em="1024" ascent="960" descent="-64" />
<missing-glyph horiz-adv-x="1024" />
<glyph unicode="&#x20;" horiz-adv-x="512" d="" />
<glyph unicode="&#xe600;" glyph-name="uniE600" d="M512 810.778c-200.351 0-362.778-162.417-362.778-362.772 0-200.361 162.427-362.778 362.778-362.778 200.356 0 362.778 162.417 362.778 362.778 0 200.356-162.422 362.772-362.778 362.772zM512 125.937c-177.587 0-322.068 144.476-322.068 322.068 0 177.587 144.476 322.063 322.068 322.063s322.068-144.476 322.068-322.063c0-177.592-144.481-322.068-322.068-322.068z" />
<glyph unicode="&#xe601;" glyph-name="uniE601" d="M512 810.778c-200.351 0-362.778-162.417-362.778-362.772 0-200.361 162.427-362.778 362.778-362.778 200.356 0 362.778 162.417 362.778 362.778 0 200.356-162.422 362.772-362.778 362.772zM512 125.937c-177.587 0-322.068 144.476-322.068 322.068 0 177.587 144.476 322.063 322.068 322.063s322.068-144.476 322.068-322.063c0-177.592-144.481-322.068-322.068-322.068zM365.932 621.327c-95.724-80.66-107.93-223.657-27.264-319.391 80.671-95.729 223.672-107.93 319.396-27.269 95.729 80.671 107.93 223.672 27.259 319.396-80.666 95.734-223.657 107.935-319.391 27.264zM381.558 338.079c-54.707 64.916-52.649 158.71 1.004 221.046l217.021-257.521c-70.533-42.312-163.318-28.452-218.025 36.475zM641.444 336.87l-217.021 257.531c70.533 42.312 163.323 28.436 218.020-36.475 54.707-64.922 52.649-158.71-0.998-221.056z" />
<glyph unicode="&#xe602;" glyph-name="uniE602" d="M512 810.778c-200.351 0-362.778-162.417-362.778-362.772 0-200.361 162.427-362.778 362.778-362.778 200.356 0 362.778 162.417 362.778 362.778 0 200.356-162.422 362.772-362.778 362.772zM512 125.937c-177.587 0-322.068 144.476-322.068 322.068 0 177.587 144.476 322.063 322.068 322.063s322.068-144.476 322.068-322.063c0-177.592-144.481-322.068-322.068-322.068zM674.847 448c0-89.938-72.909-162.847-162.847-162.847s-162.847 72.909-162.847 162.847c0 89.938 72.909 162.847 162.847 162.847s162.847-72.909 162.847-162.847z" />
<glyph unicode="&#xe603;" glyph-name="uniE603" d="M727.992 809.836h-431.98c-79.534 0-144-64.466-144-144v-431.98c0-79.529 64.466-143.995 144-143.995h431.98c79.524 0 143.995 64.466 143.995 143.995v431.974c0 79.534-64.471 144.005-143.995 144.005zM829.491 233.851c0-55.967-45.532-101.499-101.499-101.499h-431.98c-55.972 0-101.504 45.532-101.504 101.499v431.98c0 55.972 45.532 101.504 101.504 101.504h431.98c55.967 0 101.499-45.537 101.499-101.504v-431.98z" />
<glyph unicode="&#xe604;" glyph-name="uniE604" d="M727.992 809.836h-431.98c-79.534 0-144-64.466-144-144v-431.98c0-79.529 64.466-143.995 144-143.995h431.98c79.524 0 143.995 64.466 143.995 143.995v431.974c0 79.534-64.471 144.005-143.995 144.005zM829.491 233.851c0-55.967-45.532-101.499-101.499-101.499h-431.98c-55.972 0-101.504 45.532-101.504 101.499v431.98c0 55.972 45.532 101.504 101.504 101.504h431.98c55.967 0 101.499-45.537 101.499-101.504v-431.98zM365.932 621.327c-95.724-80.66-107.93-223.657-27.264-319.391 80.671-95.729 223.672-107.93 319.396-27.269 95.729 80.671 107.93 223.672 27.259 319.396-80.666 95.734-223.657 107.935-319.391 27.264zM381.558 338.079c-54.707 64.916-52.649 158.71 1.004 221.046l217.021-257.521c-70.533-42.312-163.318-28.452-218.025 36.475zM641.444 336.87l-217.021 257.531c70.533 42.312 163.323 28.436 218.020-36.475 54.707-64.922 52.649-158.71-0.998-221.056z" />
<glyph unicode="&#xe605;" glyph-name="uniE605" d="M727.992 809.836h-431.98c-79.534 0-144-64.466-144-144v-431.98c0-79.529 64.466-143.995 144-143.995h431.98c79.524 0 143.995 64.466 143.995 143.995v431.974c0 79.534-64.471 144.005-143.995 144.005zM829.491 233.851c0-55.967-45.532-101.499-101.499-101.499h-431.98c-55.972 0-101.504 45.532-101.504 101.499v431.98c0 55.972 45.532 101.504 101.504 101.504h431.98c55.967 0 101.499-45.537 101.499-101.504v-431.98zM695.706 650.527c-9.825 10.035-25.769 10.035-35.61 0l-205.66-252.585-90.87 108.477c-9.83 10.071-25.774 10.071-35.61 0l-62.305-63.764c-9.83-10.051-9.83-26.373 0-36.449l171.018-202.097c4.961-5.069 11.479-7.562 17.987-7.516 6.502-0.051 13.020 2.447 17.987 7.516l285.373 346.148c9.825 10.061 9.825 26.409 0 36.46l-62.31 63.811z" />
<glyph unicode="&#xe606;" glyph-name="uniE606" d="M682.967 570.916l-45.537 45.537c-6.287 6.287-16.481 6.287-22.769 0l-102.461-102.456-102.461 102.456c-6.287 6.287-16.481 6.287-22.774 0l-45.537-45.537c-6.287-6.287-6.287-16.481 0-22.769l102.461-102.467-102.461-102.461c-6.287-6.287-6.287-16.481 0-22.774l45.537-45.532c6.287-6.287 16.481-6.287 22.774 0l102.461 102.461 102.461-102.461c6.287-6.287 16.481-6.287 22.769 0l45.537 45.532c6.287 6.292 6.287 16.486 0 22.774l-102.461 102.461 102.461 102.467c6.292 6.292 6.292 16.481 0 22.769zM512.205 807.096c-199.286 0-361.416-162.13-361.416-361.405 0-199.286 162.13-361.416 361.416-361.416 199.276 0 361.405 162.13 361.405 361.416 0 199.281-162.13 361.405-361.405 361.405zM512.205 131.154c-173.435 0-314.542 141.107-314.542 314.542s141.107 314.532 314.542 314.532 314.532-141.097 314.532-314.532-141.097-314.542-314.532-314.542z" />
<glyph unicode="&#xe607;" glyph-name="uniE607" d="M512.164 805.929c-197.596 0-358.431-160.794-358.431-358.467 0-197.647 160.829-358.333 358.431-358.333 197.693 0 358.502 160.691 358.502 358.333-0.005 197.673-160.809 358.467-358.502 358.467zM512.164 142.116c-168.622 0-305.321 136.663-305.321 305.3 0 168.684 136.745 305.393 305.321 305.393 168.637 0 305.352-136.709 305.352-305.393-0.005-168.637-136.714-305.3-305.352-305.3zM432.814 270.94l221.962 176.522-221.962 176.527v-353.050z" />
<glyph unicode="&#xe608;" glyph-name="uniE608" d="M511.99 806.4c-197.632 0-358.39-160.794-358.39-358.436 0-197.663 160.758-358.364 358.39-358.364 197.586 0 358.41 160.701 358.41 358.364 0 197.642-160.824 358.436-358.41 358.436zM511.99 142.623c-168.571 0-305.285 136.663-305.285 305.306 0 168.694 136.709 305.423 305.285 305.423 168.607 0 305.306-136.735 305.306-305.423 0-168.643-136.673-305.306-305.306-305.306zM591.334 271.488v353.044l-221.891-176.568 221.891-176.476z" />
<glyph unicode="&#xe609;" glyph-name="uniE609" d="M281.257 722.048c-151.363-127.514-170.66-353.638-43.156-504.996 127.596-151.363 353.69-170.644 505.052-43.121 151.337 127.585 170.66 353.659 43.095 505.021-127.58 151.337-353.628 170.67-504.991 43.095zM305.946 274.191c-86.472 102.641-83.231 250.957 1.587 349.507l343.132-407.173c-111.508-66.908-258.212-44.964-344.719 57.667zM716.861 272.302l-343.132 407.194c111.508 66.888 258.227 44.964 344.719-57.677s83.226-250.957-1.587-349.517z" />
<glyph unicode="&#xe60a;" glyph-name="uniE60A" d="M512 89.129c-197.944 0-358.4 160.461-358.4 358.4 0 197.934 160.456 358.4 358.4 358.4 197.939 0 358.4-160.466 358.4-358.4 0-197.939-160.461-358.4-358.4-358.4zM512 723.21c-152.274 0-275.697-123.423-275.697-275.681 0-152.248 123.423-275.697 275.697-275.697 152.264 0 275.671 123.443 275.671 275.697 0 152.259-123.407 275.681-275.671 275.681zM621.937 419.963h-82.703v-82.708c0-15.237-12.355-27.581-27.581-27.581-15.212 0-27.566 12.344-27.566 27.581v82.708h-82.724c-15.227 0-27.556 12.365-27.556 27.566 0 15.227 12.329 27.566 27.556 27.566h82.719v82.708c0 15.237 12.355 27.581 27.566 27.581 15.227 0 27.581-12.344 27.581-27.581v-82.703h82.703c15.212 0 27.556-12.344 27.556-27.566 0.005-15.206-12.339-27.571-27.551-27.571z" />
<glyph unicode="&#xe60b;" glyph-name="uniE60B" d="M512.2 805.929c-197.939 0-358.4-160.451-358.4-358.4 0-197.924 160.461-358.4 358.4-358.4 197.924 0 358.4 160.476 358.4 358.4 0 197.949-160.476 358.4-358.4 358.4zM512.2 171.858c-152.259 0-275.692 123.423-275.692 275.671 0 152.264 123.433 275.697 275.692 275.697 152.274 0 275.697-123.433 275.697-275.697 0-152.253-123.423-275.671-275.697-275.671zM615.25 475.095h-220.549c-15.247 0-27.566-12.329-27.566-27.566 0-15.227 12.324-27.566 27.566-27.566h220.549c15.212 0 27.566 12.344 27.566 27.566 0 15.237-12.355 27.566-27.566 27.566z" />
<glyph unicode="&#xe60c;" glyph-name="uniE60C" d="M301.599 656.067l-28.314 38.385c-28.221-20.869-52.931-46.029-73.313-74.614l38.733-27.766c17.562 24.468 38.712 46.039 62.894 63.995zM154.25 423.014l41.395 1.746c0 29.742-1.812 59.1 7.081 87.086l-41.221 14.5c-10.419-32.794-7.255-66.877-7.255-100.593v-2.739zM665.8 697.861c-28.621 20.449-60.058 36.152-93.496 46.679l-14.269-45.527c28.611-9.073 55.537-22.523 80.102-39.972l27.663 38.82zM154.25 319.59c10.967-33.326 27.136-64.573 47.903-93.092l38.441 28.406c-17.828 24.248-31.636 51.118-41.062 79.667l-45.281-14.981zM469.427 712.069l-0.43 47.77c-35.318-0.266-69.965-6.072-103.055-17.106l15.145-45.322c28.349 9.503 58.015 14.392 88.34 14.659zM276.342 152.883c28.559-20.628 59.909-36.547 93.266-47.171l14.556 45.348c-28.616 9.201-55.496 22.881-79.913 40.602l-27.909-38.779zM748.529 336.082l49.249-14.72c10.772 33.367 23.951 68.142 23.997 102.953v4.475l-53.565-4.035c0-30.275-10.44-60.109-19.681-88.673zM753.838 604.872l116.762 150.124-53.688 51.323-355.942-410.557-153.641 153.897-51.226-102.533 159.273-178.57 37.1-46.464 38.641 44.984 231.219 297.283c8.479-15.247 15.739-31.155 21.386-47.795l45.138 15.36c-8.724 25.697-20.485 50.104-35.021 72.95zM640.788 192.538l28.15-38.518c28.375 20.705 53.1 45.65 73.677 74.035l-38.559 28.073c-17.7-24.305-38.989-45.773-63.268-63.59zM472.648 137.503l0.241-47.821c35.185 0.108 69.929 5.709 103.055 16.461l-14.889 45.527c-28.242-9.344-58.061-14.090-88.407-14.167z" />
<glyph unicode="&#xe60d;" glyph-name="uniE60D" d="M512 806.339c-197.939 0-358.4-160.43-358.4-358.333 0-197.893 160.461-358.339 358.4-358.339s358.4 160.44 358.4 358.339c0 197.903-160.461 358.333-358.4 358.333zM689.398 321.316l-50.683-50.678-126.392 126.372-128.64-128.62-51.333 51.318 128.645 128.62-126.392 126.367 50.683 50.678 126.392-126.372 128.635 128.614 51.328-51.313-128.635-128.62 126.392-126.367z" />
<glyph unicode="&#xe60e;" glyph-name="uniE60E" d="M512.195 806.339c-197.908 0-358.395-160.466-358.395-358.344 0-197.919 160.486-358.328 358.395-358.328 197.96 0 358.405 160.415 358.405 358.328 0 197.878-160.445 358.344-358.405 358.344zM500.193 657.889c33.147 0 59.981-26.803 59.981-59.909s-26.834-59.94-59.981-59.94c-33.070 0-59.914 26.829-59.914 59.94 0 33.106 26.839 59.909 59.914 59.909zM611.702 238.085h-199.025v21.786c0 0 0 0 49.398 0 13.087 0 10.168 33.377 10.168 33.377 0 4.915 0 28.698 0 126.403 1.475 63.923-55.209 62.454-55.209 62.454v24.724h135.127v-87.178c0-65.485 0-97.638 0-113.306 0-7.665 0-11.474 0-13.097 0 0-2.893-33.377 10.168-33.377 49.367 0 49.367 0 49.367 0v-21.786z" />
<glyph unicode="&#xe60f;" glyph-name="uniE60F" d="M512 806.4c-146.278 0-264.858-118.564-264.858-264.868 0-108.303 65.101-201.298 158.244-242.314l106.424-208.927v-0.691l0.184 0.343 0.179-0.343v0.696l106.429 208.927c93.128 41.042 158.249 134.026 158.249 242.314 0.005 146.299-118.595 264.863-264.852 264.863zM646.282 360.817l-125.276 76.749-122.941-72.054 46.971 133.156-122.947 102.579h149.565l48.512 131.558 45.44-131.528h136.279l-106.516-102.605 50.913-137.856z" />
<glyph unicode="&#xe610;" glyph-name="uniE610" d="M870.364 448c0-197.919-160.445-358.364-358.364-358.364s-358.364 160.445-358.364 358.364c0 197.919 160.445 358.364 358.364 358.364s358.364-160.445 358.364-358.364z" />
<glyph unicode="&#xe611;" glyph-name="uniE611" d="M803.128 572.109c-50.447 116.004-163.277 190.49-290.432 190.49-130.002 0-248.873-81.5-295.726-202.742l98.57-38.093c31.206 80.814 110.469 135.194 197.156 135.194 83.661 0 157.711-48.548 191.954-124.099l-71.89-28.744 183.859-106.061 53.78 200.96-67.272-26.906zM512.737 234.44c-82.939 0-158.551 50.048-192.338 125.102l70.876 27.372-181.955 103.762-55.721-195.625 67.886 26.296c49.444-115.584 164.956-192.568 291.246-192.568 130.504 0 246.052 78.423 294.41 199.537l-98.104 39.107c-32.246-80.773-109.256-132.982-196.301-132.982z" />
<glyph unicode="&#xe612;" glyph-name="uniE612" d="M588.57 239.59c-2.135 1.213-5.668 1.981-10.573 2.33-3.512 0.256-5.765 0.512-6.799 0.773-1.423 0.323-2.545 0.794-3.369 1.398-0.599 0.466-1.065 1.075-1.367 1.843-0.502 1.213-0.43 2.519 0.21 3.85 0.645 1.357 1.843 2.381 3.594 3.082 2.263 0.932 4.726 0.886 7.398-0.092 2.657-0.978 4.838-2.821 6.523-5.54l1.065 0.43-5.018 11.515-0.768-0.317c0.21-1.142 0.23-1.889 0.082-2.263-0.128-0.384-0.43-0.676-0.876-0.84-0.466-0.21-1.388-0.256-2.79-0.164-1.388 0.092-2.509 0.072-3.395-0.046-1.178-0.138-2.335-0.466-3.466-0.906-3.128-1.285-5.284-3.313-6.533-6.093-1.249-2.775-1.306-5.576-0.174-8.351 0.666-1.633 1.644-2.954 2.939-4.014 1.285-1.075 2.862-1.843 4.7-2.381 1.833-0.527 4.654-0.932 8.458-1.213 2.719-0.184 4.664-0.466 5.847-0.768 1.152-0.328 2.135-0.819 2.883-1.398 0.758-0.609 1.285-1.306 1.618-2.15 0.573-1.377 0.476-2.821-0.22-4.337-0.712-1.516-2.053-2.657-3.953-3.43-2.483-1.004-5.202-0.978-8.156 0.097-2.939 1.075-5.54 3.313-7.793 6.707l-0.957-0.384 5.356-13.184 0.932 0.374c0.026 0.84 0.236 1.541 0.573 2.079 0.374 0.538 0.768 0.911 1.224 1.096 0.527 0.21 1.285 0.302 2.237 0.302 1.725 0 3.128 0.067 4.188 0.256 1.075 0.143 2.15 0.476 3.246 0.911 3.512 1.423 5.975 3.64 7.383 6.671 1.423 3.011 1.541 5.996 0.364 8.904-0.963 2.284-2.478 4.060-4.613 5.253zM690.734 493.967l0.476-1.167c0.456-1.142 0.573-2.12 0.358-2.985-0.148-0.584-0.476-1.096-1.004-1.516-0.328-0.21-1.295-0.655-2.862-1.306l-22.948-9.313c-1.751-0.722-2.867-1.050-3.359-1.029-0.691 0-1.239 0.164-1.649 0.527-0.62 0.476-1.142 1.224-1.541 2.227l-0.481 1.142-0.942-0.358 12.237-30.182 11.735 2.939-0.384 0.932c-3.43-0.374-6.313 0.092-8.622 1.459-2.319 1.341-4.116 3.651-5.437 6.907l-0.85 2.089c-0.41 0.978-0.573 1.772-0.466 2.309 0.082 0.558 0.328 1.029 0.681 1.352 0.358 0.328 1.516 0.891 3.415 1.684l9.846 4.014c0.676-1.679 0.978-3.031 0.886-4.106-0.082-1.050-0.614-2.145-1.618-3.333-1.004-1.167-2.463-2.263-4.362-3.292l0.394-0.978 18.268 7.444-0.41 0.957c-2.811-0.819-5.13-1.004-6.907-0.584-1.807 0.43-3.149 1.751-4.050 3.968l-0.292 0.676 14.223 5.796 1.459-3.604c1.075-2.662 1.654-4.526 1.736-5.601 0.143-1.864-0.128-3.451-0.886-4.797-0.712-1.362-2.237-2.79-4.562-4.326l0.394-0.957 10.312 4.178-11.853 29.215-0.937-0.379zM341.888 345.789l18.995 17.766-0.41 1.004-33.239-0.748c-2.847-0.026-4.398-0.026-4.654 0-0.768 0.092-1.398 0.282-1.889 0.609-0.492 0.317-0.886 0.794-1.213 1.444l-0.957-0.42 3.686-9.057 0.942 0.394c-0.527 1.357-0.666 2.381-0.456 3.011 0.21 0.655 0.666 1.121 1.362 1.398 0.492 0.184 1.029 0.353 1.654 0.42 0.63 0.108 1.833 0.164 3.62 0.184l17.27 0.394-13.942-13.087c-1.715-1.587-2.765-2.452-3.164-2.616-0.374-0.164-0.722-0.184-1.106-0.092-0.353 0.092-0.666 0.302-0.932 0.63-0.384 0.42-0.819 1.26-1.321 2.401l-0.957-0.374 6.861-16.916 0.968 0.394c-0.44 1.075-0.63 1.961-0.558 2.637 0.056 0.666 0.348 1.357 0.85 2.079 0.502 0.701 1.587 1.843 3.313 3.451l3.118 2.964 15.447-0.118-14.152-13.706c-1.761-1.715-2.985-2.693-3.63-2.939-0.492-0.22-1.004-0.2-1.505 0.082-0.476 0.256-1.004 1.004-1.526 2.191l-0.957-0.364 6.139-15.13 0.957 0.374c-0.328 1.142-0.292 2.079 0.118 2.775 0.41 0.701 1.818 2.217 4.198 4.552l23.834 23.050-0.384 0.932-26.378 0.43zM512.2 722.427c-22.666 0-44.774-2.452-66.089-6.979-2.719 5.064-6.405 9.498-10.824 13.087 4.050 7.465 6.359 16.010 6.359 25.108-0.005 29.123-23.634 52.756-52.741 52.756-29.143 0-52.721-23.634-52.721-52.756 0-20.977 12.273-39.014 30.008-47.529-0.957-3.574-1.505-7.306-1.505-11.177 0-2.939 0.282-5.811 0.85-8.586-100.879-52.864-169.748-158.551-169.748-280.325 0-174.756 141.67-316.426 316.411-316.426 174.756 0 316.411 141.67 316.411 316.426 0 174.73-141.655 316.401-316.411 316.401zM343.276 753.644c0.046 25.211 20.429 45.594 45.629 45.64 25.19-0.046 45.568-20.429 45.614-45.64-0.020-7.603-1.91-14.746-5.202-21.069-6.313 3.594-13.583 5.668-21.34 5.668-17.51 0-32.548-10.429-39.373-25.385-14.981 7.491-25.277 22.912-25.329 40.786zM615.951 183.726l-30.74 28.769-7.946-43.003c-20.746-5.693-42.527-8.796-65.065-8.796-97.874 0-182.323 57.329-221.691 140.211l30.566 32.645-45.711 8.468c-5.494 20.393-8.484 41.836-8.484 64.005 0 98.632 58.276 183.644 142.244 222.577l32.993-30.904 8.484 45.814c19.692 5.089 40.31 7.793 61.599 7.793 99.18 0 184.545-58.89 223.206-143.57l-29.143-31.078 43.146-7.977c5.263-20.019 8.084-41.001 8.084-62.648-0.005-98.427-57.938-183.219-141.542-222.305zM427.464 585.784c0.686-0.036 1.587-0.394 2.708-1.024l1.121-0.609 9.999-24.643c0.758-1.843 0.906-3.313 0.466-4.388-0.43-1.070-1.623-2.007-3.538-2.821l0.384-0.932 12.39 5.018-0.394 0.957-0.819-0.328c-1.188-0.512-2.381-0.584-3.584-0.256-1.203 0.348-2.217 1.516-3.031 3.523l-9.006 22.17 35.4-19.461 0.876 0.353-11.796 29.051c-0.676 1.654-1.004 2.867-0.993 3.661 0 0.819 0.2 1.449 0.584 1.961 0.384 0.492 1.285 1.167 2.683 1.935l-0.394 0.957-11.525-4.69 0.374-0.957c1.935 0.84 3.512 0.911 4.751 0.236 0.886-0.492 1.772-1.761 2.611-3.871l6.103-15.007-26.004 14.653-12.375-5.018 0.384-0.957c1.065 0.404 1.951 0.558 2.627 0.486zM578.417 447.488c-3.123 6.277-7.107 12.042-11.786 17.152l40.975 155.868-87.27-132.111c-2.867 0.323-5.775 0.558-8.74 0.558-5.612 0-11.059-0.676-16.333-1.833l-38.605 67.763 15.457-77.292c-12.052-7.562-21.78-18.432-27.919-31.36l-38.067 10.429 33.597-22.4c-1.761-6.344-2.801-13.046-2.801-19.973 0-6.697 0.978-13.158 2.652-19.369l-73.907-42.107 85.939 17.188c2.683-3.64 5.683-7.025 8.986-10.102l-46.157-168.381 98.806 148.198c2.929 0.082 5.786 0.328 8.632 0.722l45.86-78.587-18.048 88.315c9.462 5.632 17.603 13.204 23.762 22.308l47.165-12.411-39.808 26.317c3.487 8.637 5.448 18.038 5.448 27.909 0 2.427-0.138 4.762-0.358 7.127l72.812 42.481-80.292-16.41zM462.382 366.403c-12.052 12.365-19.507 29.261-19.507 47.882 0 37.965 30.776 68.741 68.726 68.741 1.69 0 3.359-0.138 5.018-0.256l-38.185-57.82-16.051-58.547zM489.692 412.206c0 13.578 10.993 24.617 24.581 24.617 13.583 0 24.591-11.039 24.591-24.617 0-13.583-11.013-24.571-24.591-24.571-13.588 0.005-24.581 10.993-24.581 24.571zM517.345 345.846l29.809 44.764 17.674 67.164c9.682-11.853 15.519-26.998 15.519-43.494 0-36.024-27.745-65.505-63.002-68.434z" />
<glyph unicode="&#xe613;" glyph-name="uniE613" d="M642.488 202.957c233.902 79.124 224.911 231.316 227.907 267.843 0 292.204-256.896 339.876-359.844 337.848-290.893-9.144-359.864-198.856-356.864-322.647 14.991-444.36 527.78-398.725 527.78-398.725-149.924 51.753-61.471 111.099-38.979 115.681zM198.676 467.748c0 0-3.005 181.089 139.443 255.672 142.423 74.573-104.97-65.434-139.443-255.672zM539.11 196.588c-7.583-7.7-16.696-11.561-27.336-11.561-10.624 0-19.732 3.86-27.31 11.561-7.588 7.69-11.372 16.937-11.372 27.745 0 10.757 3.779 19.84 11.372 27.192 7.578 7.357 16.686 11.018 27.31 11.018 10.639 0 19.753-3.666 27.336-11.018 7.583-7.357 11.372-16.435 11.372-27.192 0-10.813-3.789-20.060-11.372-27.745zM451.384 386.893c13.338-13.768 33.464-20.664 60.39-20.664 7.485 0 16.701 1.5 27.679 4.48 10.967 2.985 18.038 4.485 21.212 4.485 6.789 0 12.616-2.708 17.49-8.105 4.849-5.396 7.26-11.648 7.26-18.78 0-22.497-24.535-33.756-73.641-33.756-29.629 0-56.223 7.357-79.744 22.057-27.377 17.208-41.057 39.956-41.057 68.188 0 28.493 13.681 51.348 41.057 68.588 23.521 14.664 50.115 22.026 79.744 22.026 55.89 0 94.925 16.195 117.1 48.579 6.794 9.866 10.184 19.517 10.184 28.938 0 9.436-3.389 19.052-10.184 28.948-22.18 32.364-61.215 48.522-117.1 48.522-55.869 0-94.904-16.159-117.074-48.522-6.784-9.897-10.179-19.517-10.179-28.948 0-17.254-8.484-25.815-25.477-25.815-16.947 0-25.441 8.561-25.441 25.815 0 40.637 20.47 73.236 61.425 97.843 34.842 20.89 73.769 31.324 116.746 31.324 42.982 0 81.92-10.435 116.767-31.324 40.95-24.607 61.409-57.206 61.409-97.843 0-40.663-20.46-73.283-61.409-97.833-34.847-20.931-73.784-31.37-116.767-31.37-30.766 0-52.485-8.745-65.157-26.158-3.159-4.388-4.746-8.622-4.746-12.769 0-5.494 3.174-11.464 9.513-17.905z" />
<glyph unicode="&#xe614;" glyph-name="uniE614" d="M803.866 691.64l-1.213-215.634c0 0-3.604-116.828-128.87-116.828h-175.857l-78.305-80.701 128.881-1.203 177.050-183.081 6.047 187.889c0 0 138.516-9.626 138.516 113.239s0 181.883 0 181.883 6.036 73.467-66.248 114.437zM650.88 389.304c63.877 0 115.64 51.753 115.64 115.615v187.904c0 63.862-51.763 115.64-115.64 115.64h-381.809c-63.862 0-115.64-51.779-115.64-115.64v-187.904c0-63.862 51.779-115.615 115.64-115.615h9.708l1.142-171.054 191.073 171.054h179.886z" />
<glyph unicode="&#xe615;" glyph-name="uniE615" d="M495.078 283.848l-47.764 85.693c0 0-36.541 64.599-71.649 141.875-23.88 58.988 30.904 88.484 30.904 88.484s-4.229 91.336-7.020 206.5c-112.374-19.635-133.453-67.4-139.069-81.444-39.352-147.528 28.093-335.759 51.973-376.499 140.477-234.593 272.522-262.676 293.591-258.488 66.022 1.423 134.835 47.764 134.835 47.764s0 0-158.715 127.846c-66.017-25.298-87.086 18.268-87.086 18.268zM481.019 635.049c0 0-2.801 108.134-2.801 137.667 0 29.486-56.182 33.684-56.182 33.684l2.811-198.057c30.904-12.646 56.172 26.706 56.172 26.706zM768.998 219.223c-56.187 43.53-103.946 82.867-103.946 82.867s-25.283 21.069-67.42-19.671l162.949-127.811c-0.005 0.005 28.068 46.372 8.417 64.614z" />
<glyph unicode="&#xe616;" glyph-name="uniE616" d="M513.060 249.969l72.627-158.377 284.165-0.712c0 0 1.679 33.823 0 87.183-1.705 53.376-44.017 58.706-44.017 58.706l-189.599 90.742-23.695 37.356-20.321 3.558v16.005l13.558 8.904 8.458 26.696 6.779 16.005 3.384 23.148 8.458 5.32 10.163 21.35 3.395 10.696 3.359 21.34 5.1 53.366c0 0-8.458-3.548-8.458 3.558 0 7.117 6.743 44.472 6.743 90.732s-21.99 71.178-21.99 71.178-8.458 26.68-77.865 56.919c-69.407 30.249-123.587-8.878-123.587-8.878l-10.148-14.244-18.621-3.558-23.695-28.477-3.384-92.493 3.384-60.503-1.69-14.234 16.927-103.194 8.458-7.101 11.822-53.376 20.357-26.706v-12.447l-22.016-3.558-25.4-44.483c0 0-113.408-48.031-174.356-72.94-60.933-24.909-54.18-56.934-54.18-56.934l-3.369-97.848 285.952-0.686 72.448 157.988-33.603 33.613 33.613 33.603 33.597-33.603-33.613-33.613z" />
<glyph unicode="&#xe617;" glyph-name="uniE617" d="M514.166 803.087c100.465 0 182.011-65.183 182.011-196.598 0-131.42-81.546-237.937-182.011-237.937-100.536 0-182.067 106.522-182.067 237.937-0.005 131.41 81.531 196.598 182.067 196.598zM153.6 88.289c0 0 19.671 157.455 64.568 187.172 44.79 29.732 173.932 49.428 173.932 49.428s83.692-88.96 119.301-88.96c35.461 0 119.194 88.96 119.194 88.96s129.132-19.697 174.003-49.428c52.675-34.97 65.802-187.172 65.802-187.172h-716.8z" />
<glyph unicode="&#xe618;" glyph-name="uniE618" d="M788.695 447.621l-557.256-358.4v716.8l557.256-358.4z" />
<glyph unicode="&#xe619;" glyph-name="uniE619" d="M512 167.060l-358.4 557.256h716.8l-358.4-557.256z" />
<glyph unicode="&#xe61a;" glyph-name="uniE61A" d="M515.251 727.572l358.4-557.256h-716.8l358.4 557.256z" />
<glyph unicode="&#xe61b;" glyph-name="uniE61B" d="M233.37 447.621l557.256 358.4v-716.8l-557.256 358.4z" />
<glyph unicode="&#xe61c;" glyph-name="gt" d="M507.397 448l-235.863 235.853 122.532 122.547 358.4-358.4-358.4-358.4-122.532 122.522z" />
<glyph unicode="&#xe61d;" glyph-name="lt" d="M516.792 448l235.873 235.853-122.537 122.547-358.4-358.4 358.4-358.4 122.537 122.522z" />
<glyph unicode="&#xe61e;" glyph-name="uniE61E" d="M153.8 322.278h375.885v-134.871l340.915 260.593-340.915 260.588v-134.892h-375.885v-251.418z" />
<glyph unicode="&#xe61f;" glyph-name="uniE61F" d="M637.716 89.6v375.885h134.871l-260.593 340.915-260.588-340.915h134.892v-375.885h251.418z" />
<glyph unicode="&#xe620;" glyph-name="uniE620" d="M386.284 806.4v-375.885h-134.876l260.598-340.915 260.588 340.915h-134.892v375.885h-251.418z" />
<glyph unicode="&#xe621;" glyph-name="uniE621" d="M870.4 573.716h-375.885v134.876l-340.915-260.598 340.915-260.588v134.892h375.885v251.418z" />
<glyph unicode="&#xe622;" glyph-name="uniE622" d="M868.465 545.741h-260.654v260.654h-195.492v-260.654h-260.654v-195.492h260.654v-260.644h195.492v260.644h260.654z" />
<glyph unicode="&#xe623;" glyph-name="uniE623" d="M739.64 164.731l-57.784 15.841-0.143 159.821 55.291-15.529 79.693 297.467-403.712 108.191-26.598-99.215h-45.537l41.032 153.103 488.719-130.959-130.959-488.719zM661.125 111.59h-507.325v505.969h507.325v-505.969zM617.103 573.558h-419.323v-307.953h419.323v307.953zM326.641 353.987l50.268 81.306 50.284-50.668 69.135 104.079 72.289-179.118h-320.553l40.858 81.7 37.719-37.299zM296.576 439.992c-18.212 0-32.993 14.781-32.993 33.009 0 18.222 14.781 32.993 32.993 32.993 18.222 0 32.978-14.771 32.978-32.993 0-18.227-14.756-33.009-32.978-33.009z" />
<glyph unicode="&#xe624;" glyph-name="uniE624" d="M870.4 698.409l-107.52 107.52-250.88-250.88-250.885 250.88-107.515-107.52 250.875-250.88-250.875-250.88 107.515-107.52 250.885 250.88 250.88-250.88 107.52 107.52-250.88 250.88z" />
<glyph unicode="&#xe625;" glyph-name="uniE625" d="M651.505 447.995l209.265 209.27c12.841 12.841 12.841 33.659 0 46.5l-93.005 93c-12.841 12.841-33.664 12.841-46.505 0l-209.26-209.26-209.26 209.254c-12.841 12.841-33.664 12.841-46.51 0l-93-92.995c-12.841-12.841-12.841-33.659 0-46.5l209.265-209.27-209.265-209.254c-12.841-12.841-12.841-33.659 0-46.51l93-92.989c12.841-12.841 33.664-12.841 46.51 0l209.26 209.254 209.26-209.254c12.836-12.841 33.659-12.841 46.505 0l93.005 92.989c12.841 12.856 12.841 33.669 0 46.51l-209.265 209.254z" />
<glyph unicode="&#xe626;" glyph-name="uniE626" d="M153.8 749.967h716.8v-119.455h-716.8v119.455zM153.8 511.058h716.8v-119.455h-716.8v119.455zM153.8 272.143h716.8v-119.455h-716.8v119.455z" />
<glyph unicode="&#xe627;" glyph-name="uniE627" d="M865.116 203.464c-19.553 33.638-301.005 498.299-318.566 526.72-15.754 25.549-53.253 25.938-68.997 0-23.972-39.501-303.964-502.395-317.85-525.532-17.295-28.913 4.69-58.148 34.35-58.148 22.82 0 603.837 0 636.943 0 32.584 0 48.42 32.302 34.12 56.96zM542.679 616.76l-8.955-292.966h-43.464l-8.96 292.966h61.379zM511.995 198.692h-0.64c-21.729 0-37.079 16.476-37.079 37.827 0 21.98 15.99 37.852 37.719 37.852 23.020 0 37.719-15.867 37.719-37.852 0.005-21.356-14.7-37.827-37.719-37.827z" />
<glyph unicode="&#xe628;" glyph-name="uniE628" d="M474.936 426.44c7.91 0 13.885-1.725 17.92-5.228 4.040-3.476 6.415-8.474 7.091-15.027l26.972 1.213c-0.865 12.503-5.709 22.518-14.515 30.054-8.796 7.537-21.233 11.295-37.289 11.295-15.795 0-27.873-3.804-36.214-11.387-8.33-7.583-12.508-17.152-12.508-28.652 0-6.605 1.388-12.344 4.204-17.27 2.796-4.92 6.651-8.914 11.525-11.991 4.89-3.082 12.636-6.932 23.24-11.505 10.619-4.618 17.096-7.931 19.461-10.010 3.359-2.801 5.038-6.231 5.038-10.266 0-4.664-2.053-8.658-6.159-11.945-4.116-3.292-10.757-4.946-19.973-4.946-11.069 0-18.668 2.427-22.774 7.301-2.545 2.985-4.014 8.73-4.388 17.244l-26.798-1.398c-0.236-9.144 1.413-17.244 4.956-24.269 3.548-7.020 9.636-12.529 18.248-16.451 8.622-3.942 18.806-5.929 30.551-5.929 17.070 0 30.372 4.244 39.91 12.81 9.554 8.566 14.326 18.877 14.326 30.94 0 9.779-3.195 17.756-9.61 23.987-4.296 4.224-14.305 9.733-30.054 16.522-10.46 4.552-17.193 8.12-20.25 10.737-3.046 2.565-4.572 5.786-4.572 9.708 0 4.178 1.669 7.629 4.997 10.358 3.343 2.724 8.899 4.101 16.666 4.101zM646.707 730.404h-342.241c-45.737 0-82.811-37.079-82.811-82.831v-475.136c0-45.732 37.079-82.811 82.811-82.831l342.241 0.026c45.737 0 82.801 37.079 82.821 82.811v475.136c-0.026 45.747-37.089 82.826-82.821 82.826zM696.392 172.431c-0.046-27.418-22.262-49.654-49.69-49.7h-342.236c-27.418 0.046-49.633 22.287-49.674 49.7v475.136c0.046 27.438 22.257 49.654 49.674 49.695h342.241c27.428-0.046 49.644-22.257 49.69-49.695v-475.136zM385.664 442.911c-5.75 2.335-13.588 3.502-23.475 3.502h-55.624l-28.657-136.827h28.186l10.921 52.173h18.012c12.134 0 20.419 0.302 24.827 0.937 7.583 1.050 13.624 2.591 18.104 4.623 4.48 2.028 8.668 4.992 12.554 8.914 3.896 3.922 7.173 9.144 9.846 15.683 2.683 6.533 4.014 13.256 4.014 20.157 0 7.465-1.679 13.885-5.038 19.277-3.369 5.381-7.905 9.257-13.67 11.561zM371.886 396.201c-2.847-4.106-6.769-7.096-11.756-8.96-4.961-1.869-14.889-2.801-29.763-2.801h-8.678l8.305 39.48h20.147c9.16 0 15.063-0.492 17.7-1.444 2.647-0.957 4.7-2.499 6.159-4.623 1.469-2.099 2.191-4.828 2.191-8.1 0-4.92-1.428-9.446-4.306-13.553zM751.299 789.509c-26.9 15.841-53.99 16.799-63.14 16.891-1.357 0-2.36-0.026-2.918-0.046h-354.78v-33.111l356.393 0.026c0 0 0.184 0.026 1.306 0.026 5.949 0.092 27.884-1.142 46.223-12.252 18.104-11.341 34.755-29.655 35.256-74.317 0-491.003 0-491.003 0-491.003h33.101c0 0 0 0 0 491.003 0.517 53.97-24.33 87.219-51.441 102.784zM655.396 423.828c-2.637 4.408-5.786 8.192-9.426 11.341s-7.68 5.576-12.134 7.327c-4.444 1.751-9.498 2.893-15.165 3.451-2.862 0.302-9.426 0.466-19.697 0.466h-36.879l-28.641-136.827h48.256c12.134 0 21.13 0.676 26.972 2.053 10.337 2.499 18.76 6.349 25.293 11.576 8.53 6.717 15.611 15.795 21.233 27.203 5.632 11.412 8.433 24.499 8.433 39.25 0 6.835-0.701 13.158-2.135 18.898-1.418 5.765-3.461 10.849-6.108 15.263zM629.683 360.827c-3.794-8.402-8.458-15.119-13.998-20.163-3.866-3.476-8.1-5.857-12.739-7.137-4.634-1.285-12.114-1.915-22.446-1.915h-14.29l19.236 92.211h16.333c8.284 0 14.034-0.558 17.265-1.679 4.608-1.608 8.484-4.874 11.622-9.754 3.149-4.874 4.716-12.18 4.716-21.888-0.005-11.382-1.894-21.279-5.699-29.676z" />
<glyph unicode="&#xe629;" glyph-name="uniE629" d="M445.471 447.16l-77.373-136.827h28.933l16.425 30.239h54.226l4.572-30.239h26.696l-22.216 136.827h-31.263zM423.26 363.346l33.039 55.066 7.931-55.066h-40.97zM646.697 731.151h-342.241c-45.737 0-82.811-37.079-82.811-82.831v-475.136c0-45.732 37.074-82.811 82.811-82.831l342.241 0.026c45.747 0 82.796 37.079 82.821 82.811v475.136c-0.020 45.747-37.074 82.826-82.821 82.826zM696.387 173.179c-0.046-27.418-22.262-49.654-49.69-49.7h-342.241c-27.418 0.046-49.633 22.287-49.674 49.7v475.136c0.046 27.438 22.257 49.654 49.674 49.695h342.241c27.428-0.046 49.638-22.257 49.69-49.695v-475.136zM514.903 310.333h28.196l28.549 136.827h-28.083zM751.288 790.252c-26.916 15.841-53.99 16.799-63.14 16.891-1.357 0-2.36-0.026-2.918-0.046h-354.78v-33.111l356.393 0.026c0 0 0.184 0.026 1.306 0.026 5.949 0.092 27.884-1.142 46.223-12.252 18.104-11.341 34.755-29.655 35.256-74.317 0-491.003 0-491.003 0-491.003h33.111c0 0 0 0 0 491.003 0.512 53.97-24.335 87.224-51.451 102.784z" />
<glyph unicode="&#xe62a;" glyph-name="uniE62A" d="M389.366 442.911c-5.765 2.335-13.578 3.502-23.47 3.502h-55.629l-28.657-136.827h28.186l10.911 52.173h18.028c12.134 0 20.393 0.302 24.827 0.937 7.583 1.050 13.624 2.591 18.104 4.623 4.48 2.028 8.658 4.992 12.544 8.914s7.173 9.144 9.856 15.683c2.662 6.533 4.014 13.256 4.014 20.157 0 7.465-1.679 13.885-5.038 19.277-3.359 5.381-7.936 9.257-13.676 11.561zM375.598 396.201c-2.872-4.106-6.789-7.096-11.761-8.96-4.992-1.869-14.909-2.801-29.773-2.801h-8.678l8.305 39.48h20.163c9.144 0 15.027-0.492 17.684-1.444 2.637-0.957 4.69-2.499 6.159-4.623 1.449-2.099 2.191-4.828 2.191-8.1 0.005-4.92-1.454-9.446-4.291-13.553zM751.104 789.509c-26.906 15.841-53.996 16.799-63.15 16.891-1.341 0-2.345-0.026-2.908-0.046h-354.78v-33.111l356.393 0.026c0 0 0.184 0.026 1.295 0.026 5.949 0.092 27.884-1.142 46.234-12.252 18.104-11.341 34.765-29.655 35.256-74.317 0-491.003 0-491.003 0-491.003h33.085c0 0 0 0 0 491.003 0.538 53.97-24.315 87.219-51.425 102.784zM546.867 309.586h28.186l12.134 58.24h66.268l4.746 22.866h-66.253l6.907 32.855h67.569l4.854 22.866h-95.759zM531.594 423.828c-2.652 4.408-5.775 8.192-9.416 11.341-3.64 3.149-7.7 5.576-12.134 7.327-4.454 1.751-9.518 2.893-15.165 3.451-2.872 0.302-9.426 0.466-19.692 0.466h-36.869l-28.652-136.827h48.256c12.124 0 21.115 0.676 26.972 2.053 10.312 2.499 18.76 6.349 25.293 11.576 8.504 6.717 15.585 15.795 21.233 27.203 5.627 11.412 8.448 24.499 8.448 39.25 0 6.835-0.722 13.158-2.145 18.898-1.449 5.765-3.482 10.849-6.129 15.263zM505.882 360.827c-3.794-8.402-8.458-15.119-13.988-20.163-3.876-3.476-8.12-5.857-12.739-7.137-4.644-1.285-12.134-1.915-22.446-1.915h-14.28l19.226 92.211h16.333c8.259 0 14.024-0.558 17.27-1.679 4.593-1.608 8.458-4.874 11.607-9.754 3.139-4.874 4.726-12.18 4.726-21.888-0.005-11.382-1.915-21.279-5.709-29.676zM646.523 730.404h-342.252c-45.732 0-82.811-37.079-82.811-82.831v-475.136c0-45.732 37.074-82.811 82.811-82.831l342.252 0.026c45.737 0 82.79 37.079 82.811 82.811v475.136c-0.020 45.747-37.074 82.826-82.811 82.826zM696.202 172.431c-0.046-27.418-22.257-49.654-49.674-49.7h-342.257c-27.418 0.046-49.628 22.287-49.674 49.7v475.136c0.046 27.438 22.257 49.654 49.674 49.695h342.252c27.418-0.046 49.633-22.257 49.674-49.695v-475.136z" />
<glyph unicode="&#xe62b;" glyph-name="uniE62B" d="M357.34 446.413l-17.172-81.946c-3.113-15.002-5.765-24.105-7.946-27.32-2.913-4.25-7.992-6.369-15.201-6.369-5.176 0-8.996 1.142-11.479 3.451-2.493 2.309-3.732 5.622-3.732 9.989 0 1.792 0.184 4.086 0.548 6.81l-26.025-2.801c-0.328-2.683-0.466-5.11-0.466-7.281 0-10.378 3.267-18.596 9.8-24.637s16.358-9.027 29.496-9.027c15.493 0 26.972 3.876 34.442 11.643 7.465 7.772 13.496 22.656 18.104 44.611l17.265 82.883h-27.633zM492.16 442.916c-5.765 2.335-13.594 3.502-23.475 3.502h-55.624l-28.652-136.827h28.186l10.921 52.173h18.012c12.134 0 20.408 0.302 24.827 0.932 7.583 1.050 13.624 2.591 18.104 4.623 4.48 2.028 8.658 4.992 12.554 8.914 3.886 3.922 7.163 9.144 9.846 15.677 2.673 6.533 4.014 13.256 4.014 20.163 0 7.465-1.679 13.885-5.038 19.272-3.374 5.386-7.921 9.257-13.676 11.571zM478.392 396.201c-2.867-4.106-6.789-7.091-11.771-8.96-4.972-1.864-14.909-2.801-29.763-2.801h-8.678l8.305 39.48h20.163c9.144 0 15.037-0.492 17.684-1.449 2.637-0.957 4.69-2.493 6.159-4.618 1.459-2.099 2.196-4.833 2.196-8.095 0-4.925-1.434-9.452-4.296-13.558zM646.185 730.404h-342.252c-45.737 0-82.811-37.074-82.811-82.831v-475.136c0-45.737 37.079-82.811 82.811-82.831l342.252 0.026c45.732 0 82.785 37.074 82.811 82.811v475.136c-0.026 45.747-37.079 82.826-82.811 82.826zM695.864 172.431c-0.046-27.418-22.262-49.654-49.674-49.7h-342.257c-27.428 0.046-49.633 22.282-49.679 49.7v475.136c0.046 27.443 22.246 49.654 49.679 49.7h342.252c27.418-0.046 49.628-22.262 49.674-49.7v-475.136zM572.57 418.883c7.572 4.736 15.923 7.091 25.016 7.091 7.772 0 14.234-1.961 19.354-5.883 5.146-3.917 8.852-9.728 11.162-17.449l26.23 2.985c-3.118 14.065-9.462 24.755-19.005 32.108-9.544 7.347-22.226 11.013-38.021 11.013-15.811 0-29.563-4.040-41.257-12.114-11.699-8.12-20.731-19.507-27.064-34.181-5.299-12.206-7.931-24.945-7.931-38.267 0-19.86 6.159-35 18.478-45.455 9.021-7.654 21.99-11.453 38.922-11.453 10.885 0 21.56 1.608 32.061 4.828 10.465 3.241 19.333 7.188 26.552 11.853l12.324 58.706h-61.225l-4.762-22.866h34.908l-4.198-20.347c-4.623-2.355-10.092-4.408-16.425-6.113-6.349-1.705-12.544-2.565-18.575-2.565-10.081 0-17.736 2.749-22.963 8.279-5.228 5.484-7.839 14.003-7.839 25.503 0 11.689 2.145 22.492 6.441 32.389 4.28 9.897 10.22 17.198 17.818 21.939zM750.766 789.509c-26.9 15.846-53.99 16.799-63.14 16.891-1.357 0-2.36-0.026-2.918-0.046h-354.78v-33.111l356.393 0.026c0 0 0.184 0.026 1.306 0.026 5.949 0.092 27.873-1.147 46.223-12.252 18.104-11.341 34.77-29.655 35.256-74.317 0-491.003 0-491.003 0-491.003h33.101c0 0 0 0 0 491.003 0.522 53.97-24.33 87.219-51.441 102.784z" />
<glyph unicode="&#xe62c;" glyph-name="uniE62C" d="M484.649 309.115h28.186l12.134 58.24h66.268l4.756 22.866h-66.268l6.897 32.855h67.589l4.849 22.866h-95.759zM442.834 445.942h-107.796l-4.762-22.866h40.12l-23.89-113.961h28.196l23.798 113.961h39.562zM459.356 445.942l-28.652-136.827h28.186l28.559 136.827zM751.304 789.033c-26.906 15.841-53.996 16.799-63.14 16.891-1.352 0-2.355-0.020-2.918-0.046h-354.785v-33.111l356.393 0.026c0 0 0.184 0.026 1.306 0.026 5.949 0.092 27.884-1.167 46.223-12.252 18.104-11.341 34.765-29.655 35.256-74.317 0-491.023 0-491.023 0-491.023h33.091c0 0 0 0 0 491.023 0.538 53.975-24.315 87.224-51.425 102.784zM646.723 729.933h-342.252c-45.737 0-82.811-37.079-82.811-82.831v-475.136c0-45.732 37.074-82.811 82.811-82.831l342.252 0.026c45.732 0 82.785 37.079 82.811 82.811v475.136c-0.026 45.747-37.079 82.826-82.811 82.826zM696.397 171.96c-0.046-27.438-22.262-49.654-49.674-49.7h-342.252c-27.418 0.046-49.628 22.262-49.674 49.7v475.136c0.046 27.438 22.257 49.654 49.674 49.695h342.252c27.418-0.046 49.628-22.257 49.674-49.695v-475.136z" />
<glyph unicode="&#xe62d;" glyph-name="uniE62D" d="M371.901 331.372c-1.306 0-6.195-0.092-14.653-0.276l79.616 92.959 4.106 21.468h-98.657l-4.762-22.866h63.749l-78.771-92.401-4.48-21.56h106.122l4.762 22.866h-32.292c-10.527-0.143-18.765-0.189-24.74-0.189zM465.331 445.517l-28.657-136.827h28.186l28.564 136.827zM751.288 788.608c-26.89 15.841-53.98 16.799-63.124 16.891-1.357 0-2.36-0.020-2.918-0.046h-354.785v-33.111l356.393 0.026c0 0 0.184 0.026 1.306 0.026 5.949 0.092 27.884-1.167 46.208-12.252 18.12-11.341 34.78-29.655 35.267-74.317 0-491.023 0-491.023 0-491.023h33.091c0 0 0 0 0 491.023 0.543 53.975-24.31 87.224-51.436 102.784zM598.656 442.015c-5.765 2.335-13.583 3.502-23.475 3.502h-55.629l-28.652-136.827h28.186l10.921 52.173h18.012c12.124 0 20.403 0.302 24.827 0.932 7.583 1.050 13.624 2.591 18.104 4.623 4.48 2.007 8.658 4.992 12.554 8.914 3.886 3.922 7.163 9.144 9.846 15.683 2.673 6.533 4.014 13.256 4.014 20.157 0 7.465-1.679 13.885-5.043 19.277-3.354 5.361-7.916 9.236-13.665 11.566zM584.888 395.305c-2.872-4.106-6.804-7.096-11.761-8.96-4.982-1.869-14.92-2.801-29.773-2.801h-8.678l8.31 39.48h20.147c9.16 0 15.048-0.492 17.7-1.444 2.637-0.978 4.69-2.519 6.159-4.623 1.459-2.125 2.191-4.828 2.191-8.12 0-4.925-1.439-9.426-4.296-13.532zM646.723 729.508h-342.252c-45.737 0-82.811-37.079-82.811-82.831v-475.136c0-45.732 37.079-82.811 82.811-82.831l342.252 0.026c45.732 0 82.785 37.079 82.811 82.811v475.136c-0.026 45.747-37.079 82.826-82.811 82.826zM696.402 171.535c-0.046-27.438-22.262-49.654-49.674-49.7h-342.257c-27.418 0.046-49.633 22.262-49.674 49.7v475.136c0.046 27.438 22.257 49.654 49.674 49.695h342.252c27.418-0.046 49.628-22.257 49.674-49.695v-475.136z" />
<glyph unicode="&#xe62e;" glyph-name="uniE62E" d="M521.267 227.871c-50.755-50.755-133.059-50.729-183.808 0-50.775 50.796-50.775 133.059 0 183.834l207.852 207.867-66.954 66.929h-324.756v-588.273h586.778v326.272l-11.249 11.223-207.862-207.852zM675.768 606.689c0 0 10.286 10.501 10.209 10.429 5.345 5.857 5.345 14.956-0.328 20.593-5.668 5.632-14.689 5.75-20.5 0.338 0.061 0.046-183.060-182.472-183.060-182.472-37.868-37.883-20.275-71.352-2.831-88.806 33.69-33.679 70.548-14.116 91.756 7.107l274.391 274.365c16.625 16.614 25.492 38.257 24.98 60.923-0.502 21.699-9.697 42.301-25.257 56.515-25.61 25.641-80.456 44.319-120.637 4.127l-366.484-366.5c-49.551-49.536-51.999-106.26-6.743-155.607 53.842-50.964 110.966-50.729 161.597-0.118l85.422 85.821 197.028 197.54c5.811 5.811 5.842 15.283 0.026 21.094-5.821 5.832-15.201 5.857-21.002 0l-282.547-283.387c-39.572-39.598-77.517-39.619-119.327-0.072-34.207 37.381-32.282 74.803 6.595 113.679l366.51 366.474c28.093 28.14 65.367 9.052 79.007-4.598 10.056-9.216 15.739-22.026 16.031-35.676 0.338-14.444-5.437-28.375-16.251-39.173l-274.376-274.376c-28.385-28.375-40.786-15.959-49.654-7.060-7.665 7.619-21.934 21.908 2.826 46.679l172.621 172.16z" />
<glyph unicode="&#xe62f;" glyph-name="uniE62F" d="M612.608 738.268v-59.617h146.647v-446.275h-83.907l-48.184-48.23h-230.298l-48.241 48.23h-83.881v446.275h156.155v59.617h-230.344v-648.668h642.893v648.668h-220.841zM516.751 352.963l157.686 157.711h-77.22v295.726h-160.952v-295.726h-77.22l157.706-157.711z" />
<glyph unicode="&#xe630;" glyph-name="uniE630" d="M153.6 182.036c0-19.896 26.322-46.254 46.249-46.254h624.307c19.907 0 46.249 26.358 46.249 46.254v439.419h-716.805v-439.419zM431.073 343.926v231.276h138.732v-231.276h92.488l-161.859-161.894-161.859 161.894h92.498zM824.151 713.964h-323.712l-47.232 46.1-253.358 0.154c-19.927 0-46.249-26.332-46.249-46.254v-69.381h716.8v23.127c0 19.907-26.342 46.254-46.249 46.254z" />
<glyph unicode="&#xe631;" glyph-name="uniE631" d="M506.122 584.023c-1.167 0-2.335-0.092-3.502-0.118-3.451 5.765-10.301 17.546-17.208 31.037-9.882 18.642-19.169 42.107-18.724 50.094 0 0.748 0.072 1.249 0.092 1.495v0c1.649 3.384 4.726 4.992 20.813 7.050 15.473 1.818 39.014 3.548 70.743 12.483 63.524 18.55 106.68 64.599 107.873 105.887 0 1.167-0.046 2.217-0.118 3.195-0.358 6.6-6.021 11.643-12.611 11.233-6.548-0.364-11.587-6.031-11.213-12.564 0.026-0.676 0.046-1.285 0.046-1.864 1.188-23.101-34.417-67.855-90.44-82.893-29.67-8.315-50.775-9.81-67.108-11.771-15.34-1.684-31.288-4.316-39.409-20.229-2.079-4.157-2.545-8.192-2.565-12.017 0.466-18.36 11.203-40.566 21.35-61.015 4.372-8.566 8.724-16.353 12.283-22.62-67.712-12.17-118.636-65.111-118.636-128.579v-232.049c0-72.438 66.406-131.169 148.332-131.169 81.946 0 148.352 58.732 148.352 131.169v232.038c0 72.474-66.406 131.205-148.352 131.205zM506.122 454.149c-21.396 0-38.769 17.357-38.769 38.779 0 21.396 17.372 38.779 38.769 38.779 21.422 0 38.779-17.382 38.779-38.779 0-21.422-17.362-38.779-38.779-38.779z" />
<glyph unicode="&#xe632;" glyph-name="uniE632" d="M865.587 341.591l-40.668 40.668c-6.42 6.42-16.824 6.42-23.24 0l-134.236-161.039-59.315 69.181c-6.42 6.415-16.824 6.415-23.24 0l-40.673-40.673c-6.415-6.41-6.415-16.824 0-23.24l111.621-128.85c3.241-3.236 7.496-4.818 11.74-4.787 4.25-0.031 8.499 1.551 11.74 4.787l186.26 220.713c6.426 6.415 6.426 16.824 0.010 23.24zM228.070 649.574h74.481v-74.476h-74.481v74.476zM228.070 537.861h74.481v-74.476h-74.481v74.476zM339.789 537.861h260.664v-37.238h-260.664v37.238zM228.070 426.148h74.481v-74.47h-74.481v74.47zM339.789 426.148h260.664v-37.238h-260.664v37.238zM228.070 314.435h74.481v-74.476h-74.481v74.476zM204.365 165.484c-13.993 0-13.993 0-13.993 14.188 0 14.182 0 553.247 0 567.429s0 14.182 13.993 14.182c10.153 0 160.189 0 247.137 0 0 0 37.238 0 37.238-37.238s0-111.713 0-111.713 74.47 0 111.713 0c37.238 0 37.238-37.238 37.238-37.238v62.198c0.21-1.234 0.466-2.463 0.466-3.676 0-8.924 0-180.424 0-310.093 0.512-0.481 1.116-0.824 1.613-1.321l2.412-2.596 24.781-28.902 7.967 9.554v330.701c0 27.924-27.438 55.859-27.438 55.859l-82.314 83.779c0 0-27.438 27.93-54.876 27.93h-329.262c-15.155 0-27.438-12.503-27.438-27.93v-614.42c0-15.421 12.283-27.93 27.438-27.93h388.972l-32.261 37.238c-120.079 0-323.379 0-333.384 0zM525.972 756.675c11.535-6.953 27.085-22.605 56.212-52.132 27.469-27.848 42.793-43.469 50.217-54.968h-106.429v107.1zM339.789 277.197h169.231c1.183 1.408 2.181 2.934 3.502 4.25l32.993 32.993h-205.727v-37.243z" />
<glyph unicode="&#xe633;" glyph-name="uniE633" d="M503.020 508.877h114.611c7.859 0 14.218 6.451 14.218 14.454 0 7.982-6.359 14.459-14.218 14.459h-114.611c-7.849 0-14.228-6.477-14.228-14.459 0-8.003 6.38-14.454 14.228-14.454zM503.020 571.566h114.611c7.859 0 14.218 6.477 14.218 14.474 0 7.977-6.359 14.449-14.218 14.449h-114.611c-7.849 0-14.228-6.467-14.228-14.449 0-7.997 6.38-14.474 14.228-14.474zM503.020 451.011h114.611c7.859 0 14.218 6.461 14.218 14.449s-6.359 14.469-14.218 14.469h-114.611c-7.849 0-14.228-6.482-14.228-14.469s6.38-14.449 14.228-14.449zM780.068 713.82c-0.824 0.174-1.695 0.261-2.57 0.261-259.809 0.026 31.212 0.026-353.807 0-1.444 0.072-2.703 0.072-3.804 0.072-51.932-0.317-78.592-37.811-79.549-38.994-4.091-5.714-2.852-13.732 2.796-17.91 2.232-1.674 4.818-2.447 7.393-2.447 3.901 0 7.731 1.843 10.209 5.294 0 0 0.092 0.118 0.64 0.829 4.163 5.14 24.719 27.745 58.506 27.587 0.983 0 1.797 0 2.478-0.036l0.23-0.026h0.435c336.65 0 158.024 0 279.291 0-18.688-17.582-30.49-42.614-30.49-70.543v-14.909h0.097v-343.137c-0.338-2.586-2.872-16.85-14.546-29.967-10.189-11.31-27.284-22.881-59.080-26.132-66.534 2.504-67.318 86.436-67.318 86.436s-0.527 0.543-180.951 0.809v96.256c0 7.055-5.642 12.795-12.611 12.795-6.963 0-12.605-5.74-12.605-12.795v-96.225c-46.054 0.041-102.303 0.061-171.203 0.061-0.788-110.541 75.325-112.696 75.325-112.696l336.686-0.046c6.564-0.471 15.923-1.142 16.179-1.142 51.261 0 82.324 18.596 98.125 38.886 15.959 20.28 17.183 42.409 17.183 42.409v344.494h173.292v14.909c0 51.661-40.095 93.676-90.332 95.908zM401.894 527.601l-65.285-66.401 115.313-49.331-50.028 115.732zM193.603 606.612l130.565-132.777 65.316 66.412-130.611 132.792-65.27-66.427zM178.002 622.495l65.311 66.365-7.491 7.613c-18.022 18.335-47.263 18.335-65.295 0-18.017-18.335-18.017-48.036 0-66.396l7.475-7.583z" />
<glyph unicode="&#xe634;" glyph-name="uniE634" d="M626.355 255.396l-117.263 116.439-106.993-116.869-149.591 95.698v-90.772l258.929-154.737 261.233 152.479-0.369 93.030zM870.6 663.219l-232.837 123.003-127.304-77.839 258.954-145.27zM507.781 708.383l-127.334 77.839-226.647-123.003 95.022-100.106zM510.459 416.573l112.512-116.342 247.557 144.85-101.115 116.746zM507.781 416.573l-258.959 145.254-93.379-113.736 243.692-148.613z" />
<glyph unicode="&#xe635;" glyph-name="uniE635" d="M857.344 449.101l-327.045 309.765c-17.695 16.768-274.488 36.664-292.157 19.912l-75.653-63.13c-17.684-16.753-5.693-254.305 12.017-271.068l339.031-321.137c17.679-16.748 46.367-16.748 64.056 0l279.747 264.96c17.679 16.768 17.679 43.93 0.005 60.698zM263.424 631.209c0 27.459 23.516 49.751 52.526 49.751 29.005 0 52.495-22.298 52.495-49.751 0-27.484-23.491-49.761-52.495-49.761s-52.526 22.277-52.526 49.761zM548.567 248.852l-249.108 221.727 186.061 173.404 249.114-224.563-186.066-170.568z" />
<glyph unicode="&#xe636;" glyph-name="uniE636" d="M270.72 372.296c-28.467 0-51.61-23.465-51.61-52.163 0-28.892 23.148-52.362 51.61-52.362 28.503 0 51.651 23.47 51.651 52.362 0 28.698-23.148 52.163-51.651 52.163zM270.72 302.612c-9.492 0-17.198 7.741-17.198 17.521 0 9.528 7.7 17.347 17.198 17.347 9.533 0 17.234-7.818 17.234-17.347 0-9.779-7.7-17.521-17.234-17.521zM605.256 372.296c-28.472 0-51.61-23.465-51.61-52.163 0-28.892 23.142-52.362 51.61-52.362 28.498 0 51.625 23.47 51.625 52.362-0.005 28.698-23.127 52.163-51.625 52.163zM605.256 302.612c-9.498 0-17.224 7.741-17.224 17.521 0 9.528 7.726 17.347 17.224 17.347 9.533 0 17.229-7.818 17.229-17.347 0-9.779-7.7-17.521-17.229-17.521zM870.6 524.815v9.651h-59.546v41.882h-209.725v22.426h132.449v9.672h-11.167l4.634 18.842h-334.51l-32.399-11.069h-68.833l-68.874-104.499c0 0-68.828-34.821-68.828-69.637 0-34.847 0-69.637 0-69.637s-0.056-34.842 34.406-34.842c4.326 0 10.337 0 17.49 0 7.675 29.179 33.761 50.796 65.050 50.796 31.293 0 57.364-21.617 65.055-50.796 14.776 0 24.535 0 24.535 0h179.876c7.685 29.179 33.772 50.796 65.065 50.796 31.288 0 57.364-21.617 65.050-50.796l80.804 1.879-23.89 95.939h-119.47v23.982l174.868-9.446v9.631h-24.919v42.588h-185.452v22.641h298.332zM257.039 511.718l42.573 69.678h60.723v-69.678h-103.296z" />
<glyph unicode="&#xe637;" glyph-name="uniE637" d="M461 275.139h102.4v-170.66h-102.4v170.66zM870.595 757.437c0 16.251-13.384 29.46-29.921 29.46h-656.973c-16.486 0-29.906-13.21-29.906-29.46l0.005-414.029c0-16.236 17.649-34.135 34.135-34.135h648.53c16.532 0 34.135 17.9 34.135 34.135l-0.005 414.029zM322.427 443.433c-9.482-9.165-24.868-15.365-45.466-15.365-20.285 0-35.333 5.55-45.133 15.365-11.131 11.116-15.048 25.518-15.048 50.048h36.634c0-12.431 1.3-20.285 6.533-26.168 3.282-3.599 8.832-6.216 17.019-6.216 8.499 0 14.065 2.284 17.669 6.533 4.9 5.565 6.216 13.414 6.216 25.851 0 24.847-3.932 31.068-21.919 38.267l-27.817 11.448c-23.532 9.8-32.369 22.569-32.369 58.532 0 20.936 6.2 37.949 18.964 49.398 10.132 8.832 23.214 14.065 39.9 14.065 18.652 0 32.384-4.915 41.866-14.065 12.099-11.781 16.348-28.467 16.348-50.698h-36.634c0 10.465-0.65 18.652-5.55 24.868-3.267 4.25-8.499 6.866-16.369 6.866-7.516 0-12.099-2.616-15.698-6.548-4.25-4.9-6.2-12.749-6.2-22.902 0-18.964 2.934-24.847 19.302-31.401l27.469-11.116c27.802-11.448 35.333-26.168 35.333-65.418-0.005-23.88-3.287-39.895-15.053-51.343zM471.24 630.195h-39.235v-199.849h-36.634v199.849h-38.932v33.034h114.801v-33.034zM595.523 630.195h-61.148v-66.068h52.649v-33.034h-52.649v-67.717h61.148v-33.034h-97.782v232.888h97.782v-33.034zM783.606 430.346h-36.634v145.219l-31.718-95.498h-20.285l-31.068 93.865v-143.58h-36.634v232.878h33.034l45.133-122.332 44.8 122.332h33.367v-232.883z" />
<glyph unicode="&#xe638;" glyph-name="uniE638" d="M822.815 471.675h-358.4v24.146c0 24.238-23.803 24.151-47.785 24.151h-215.040c-23.977 0-47.79-8.54-47.79-32.788v-22.907h51.379c6.851 0 12.411-5.612 12.411-12.524v-0.404c0-6.912-5.56-12.518-12.411-12.518h-51.379v-22.129h51.379c6.851 0 12.411-5.612 12.411-12.524v-0.399c0-6.927-5.56-12.518-12.411-12.518h-51.379v-22.144h51.379c6.851 0 12.411-5.601 12.411-12.534v-0.379c0-6.932-5.56-12.549-12.411-12.549h-51.379v-135.977h716.8v210.534c0 24.238-23.834 53.463-47.785 53.463zM197.222 140.365h629.975c23.603 0 42.793 19.087 43.351 42.813h-716.677c0.558-23.726 19.738-42.813 43.351-42.813zM280.781 618.291c0-8.653 6.912-15.677 15.503-15.677 8.55 0 15.503 7.030 15.503 15.677v76.324l-0.092 0.753c-0.020 0.097-0.031 0.389-0.020 0.783-0.026 2.724 0.676 9.482 5.304 14.858 4.588 5.309 13.967 12.145 39.148 12.319 121.892 0 168.929 0 187.095 0v-116.992l0.061-0.614c0.195-1.582 1.398-16.159 12.339-31.821 10.778-15.826 32.983-30.971 67.005-30.638 46.223 0 78.838 6.656 94.377 6.656v-76.79h25.6v102.39l-181.53 179.174h-6.426c0 0 0 0-198.518 0-0.282 0-0.543 0-0.819 0-30.367 0-50.693-9.764-61.988-23.398-11.351-13.681-12.646-28.303-12.662-35.144 0-1.367 0.046-2.452 0.118-3.256v-74.604zM574.234 697.052l121.088-122.445c-16.876 0-40.791 0-72.699 0-24.207 0.256-34.207 8.269-40.576 15.898-5.647 7.035-7.455 15.237-7.813 17.475v89.073zM504.914 571.279h-133.53c-4.833 0-8.755-3.927-8.755-8.812 0-4.91 3.922-8.868 8.755-8.868h133.53c4.844 0 8.765 3.958 8.765 8.868 0 4.884-3.922 8.812-8.765 8.812zM504.914 625.377h-133.53c-4.833 0-8.755-3.973-8.755-8.878 0-4.89 3.922-8.852 8.755-8.852h133.53c4.844 0 8.765 3.963 8.765 8.852 0 4.905-3.922 8.878-8.765 8.878z" />
<glyph unicode="&#xe639;" glyph-name="uniE639" d="M780.017 268.442v132.859h-536.991v-131.461h-88.33v355.891h715.003v-357.289h-89.682zM243.42 580.209h-44.416v-44.472h44.416v44.472zM333.44 580.209h-44.344v-44.472h44.344v44.472zM288.701 806.4h447.053v-136.223h-447.053v136.223zM378.767 314.020h266.035v-45.676h-266.035v45.676zM646.2 179.63h-268.8v45.768h268.8v-45.768zM331.643 132.567h356.956v224.384h47.053v-267.351h-446.884v268.739h42.875v-225.772z" />
<glyph unicode="&#xe63a;" glyph-name="uniE63A" d="M153.6 208.686v474.004h716.8v-474.004h-716.8zM196.92 251.663h630.513v337.265l-315.407-193.961-315.105 193.961v-337.265zM512.026 445.532l315.407 193.935h-630.513l315.105-193.935z" />
<glyph unicode="&#xe63b;" glyph-name="uniE63B" d="M496.681 158.582l-117.361-0.241v-47.365c0 0-5.499 0-47.37 0 0-13.123 0-23.685 0-23.685h213.171c0 0 0 10.563 0 23.685-41.871 0-47.375 0-47.375 0l-1.065 47.606zM687.222 300.452c0-22.589-23.685-23.685-23.685-23.685s-423.875 0-450.012 0c-26.138 0-23.68 23.685-23.68 23.685v284.221c0 0-2.135 23.69 23.68 23.69 16.973 0 216.264 0 350.884 0l13.322 17.638 3.19-3.354c1.654 2.227 4.204 5.514 7.337 9.395h-398.413c-14.49 0-23.69-9.19-23.69-23.68v-402.652c0-14.49 9.196-23.68 23.69-23.68h497.382c14.51 0 23.69 9.19 23.69 23.68v370.432c-7.67-6.845-15.534-13.619-23.69-20.26-0.005-83.502-0.005-238.991-0.005-255.432zM598.129 606.039l48.957-51.313c131.814 96.686 201.457 227.169 211.159 249.364-176.2-83.671-253.578-188.841-260.116-198.052zM571.796 503.578l55.404 36.296-47.36 49.613-36.316-48.061c28.273-8.279 28.273-37.847 28.273-37.847zM488.202 510.674c-29.501-78.085-68.844-92.283-68.844-92.283 148.751-15.401 140.15 78.090 132.782 89.917-27.059 46.152-61.481 10.644-63.939 2.365z" />
<glyph unicode="&#xe63c;" glyph-name="uniE63C" d="M683.607 663.869c-24.346 14.484-43.694 25.871-67.82 25.871-23.757 0-44.186-6.031-54.508-16.195-10.337-10.132-15.468-29.624-15.468-58.47v-42.634h127.017l-27.525-118.682h-99.487l-2.586-366.469h-152.079l-4.833 366.469h-74.619v118.682h74.619v45.322c0 47.713 5.545 76.278 16.645 99.779 11.069 23.496 32.568 49.638 62.305 64.399 29.757 14.766 73.907 22.144 119.444 22.144 46.689 0 83.21-15.739 127.985-28.544l-29.092-111.672z" />
<glyph unicode="&#xe63d;" glyph-name="uniE63D" d="M153.6 334.781c0 0 131.21-110.090 270.776 8.453-31.247 8.463-77.076 14.802-33.336 61.389 0 0-65.669 12.969-82.243 47.365 2.171 5.125 24.479 19.753 46.070 17.572-15.831 10.24-77.030 30.003-74.138 73.902 37.427 0.742 41.032 0.742 41.032 0.742s-64.799 46.106-57.6 95.867c56.166-19.021 170.639-59.274 237.609-130.263 7.199 27.807 39.598 132.475 107.991 177.853 0.712-16.845 0.712-16.845 0.712-16.845s30.971 32.21 49.69 21.955c-7.199-14.612-7.199-14.612-7.199-14.612s22.323 8.76 38.154 4.372c-14.392-10.972-48.952-16.835-58.312-38.794 15.13 0 126.725 7.332 150.482-136.852 39.598-4.388 61.194-8.049 84.234 4.398-10.819-15.391-18.719-29.271-76.329-37.325 19.446-7.311 61.199-15.38 79.212-10.26-14.397-14.628-30.956-35.133-79.939-27.817-24.468-69.504-87.823-223.949-346.312-239.299-41.754 2.186-197.98 4.383-290.555 138.199z" />
<glyph unicode="&#xe63e;" glyph-name="uniE63E" d="M835.338 319.416c-6.666-5.816-7.624-7.777-9.559-15.544-0.973-8.791-1.894-37.043-1.894-46.74v-118.83l-137.052-32.128c-55.532-8.817-105.375-16.573-158.075-16.573-264.448 0-365.051 197.714-365.051 352.538 0 188.943 142.802 364.262 387.092 364.262 51.732 0 101.555-7.808 146.57-20.475 71.885-20.449 105.431-45.768 126.52-60.385l-79.544-76.913-33.521-7.777 23.962 38.922c-32.584 32.148-92.012 91.53-205.015 91.53-151.429 0-265.457-116.854-265.457-287.304 0-183.107 130.284-355.456 339.164-355.456 61.332 0 92.979 12.646 121.697 24.366v156.795l-144.707-7.788 76.698 41.871h203.121l-24.95-24.371z" />
<glyph unicode="&#xe63f;" glyph-name="uniE63F" d="M313.564 112.087h-151.762v447.59h151.767v-447.59zM239.908 619.315c-47.549 0-86.108 36.854-86.108 82.33 0 45.445 38.559 82.273 86.108 82.273 47.524 0 86.083-36.828 86.083-82.273 0-45.476-38.559-82.33-86.083-82.33zM870.149 345.764v-233.677h-151.788v234.982c0 0.031-0.031 0.061-0.031 0.118 0.031 0.077 0 0.154 0.031 0.236v16.348h0.323c-1.818 69.914-49.403 93.42-68.792 93.42-66.591 0-87.27-33.531-93.752-55.849v-289.254h-151.808v447.59h151.808v-50.381c46.956 69.432 109.757 65.439 150.303 65.439 180.321-19.072 163.85-226.949 163.707-228.972z" />
<glyph unicode="&#xe640;" glyph-name="uniE640" d="M708.296 804.086h-50.376v-144.143h50.376v144.143zM366.090 804.086h-50.391v-144.143h50.391v144.143zM724.342 730.015v-88.596h-85.11v88.596h-255.34v-88.596h-85.13v88.596h-114.181v-642.729h654.838v642.729h-115.077zM797.732 134.866h-571.489v450.263h571.489v-450.263zM554.46 215.060h48.010c3.722 12.145 8.484 25.769 14.326 40.858 5.842 15.109 12.585 31.334 20.219 48.696 7.629 17.362 15.493 34.417 23.578 51.195 8.084 16.809 15.785 32.271 23.066 46.433l22.262 41.964v18.678h-170.158v-40.463h113.060c-44.59-81.848-76.042-150.984-94.362-207.36zM403.983 429.041c22.364 0 33.551-9.349 33.551-27.991 0-15.729-7.813-35.092-23.424-58.122l-78.167-115.072v-12.795h161.746v38.922h-92.677l50.565 77c18.294 27.955 27.464 51.333 27.464 70.067 0 20.465-7.137 36.424-21.417 47.949-14.259 11.505-34.022 17.27-59.305 17.27-15.155 0-28.995-3.922-41.523-11.715-12.544-7.813-21.699-17.603-27.556-29.399l29.496-23.24c10.45 18.063 24.192 27.126 41.247 27.126z" />
<glyph unicode="&#xe641;" glyph-name="uniE641" d="M349.425 438.979v-133.55l164.731-66.78 166.948 66.78v133.55l-164.746-62.336-166.932 62.336zM267.899 503.67l248.556-94.152 353.946 137.462-360.617 105.743-356.183-105.743 107.694-40.796-0.072-0.082v-92.867c-5.161-5.089-8.96-22.446-8.96-43.075 0-24.663 5.386-44.672 12.083-44.672 6.671 0 12.078 20.009 12.078 44.672 0 20.065-3.584 37.053-8.53 42.644v90.865z" />
<glyph unicode="&#xe642;" glyph-name="uniE642" d="M435.19 752.896h153.605v-67.62h51.205v118.81h-256v-118.81h51.19v67.62zM844.795 548.101v98.417h-665.59v-98.417h102.395v-336.886h-0.148v-93.194c0-16.988 13.742-30.73 30.73-30.73h400.317c16.952 0 30.694 13.742 30.694 30.73v88.315h-0.804v341.765h102.405zM435.19 189.701h-51.19v307.18h51.19v-307.18zM537.569 189.701h-51.169v307.18h51.169v-307.18zM640 189.701h-51.205v307.18h51.205v-307.18z" />
<glyph unicode="&#xe643;" glyph-name="uniE643" d="M745.585 589.22v155.935h-84.004v-87.235l-149.289 122.158v0.159l-0.092-0.077-0.113 0.077 0.020-0.159-358.308-293.161v-43.771l44.247-0.123 314.153 263.327 314.163-263.327 44.237 0.123v43.771l-125.015 102.303zM215.818 422.226l-1.126-307.41 218.266 0.701v246.318h154.844v-245.821l216.955 0.722v309.376l-294.461 245.176-294.477-249.062zM587.802 395.668h-154.844v82.427h154.844v-82.427z" />
<glyph unicode="&#xe644;" glyph-name="uniE644" d="M696.32 804.086h-368.64c-45.169 0-81.92-36.751-81.92-81.92v-552.96c0-45.169 36.751-81.92 81.92-81.92h368.64c45.169 0 81.92 36.751 81.92 81.92v552.96c0 45.169-36.751 81.92-81.92 81.92zM737.28 169.206c0-22.589-18.371-40.96-40.96-40.96h-368.64c-22.589 0-40.96 18.371-40.96 40.96v552.96c0 22.595 18.371 40.96 40.96 40.96h368.64c22.589 0 40.96-18.365 40.96-40.96v-552.96zM551.127 592.154h-61.86l-79.073-74.163 41.38-44.237 17.608 15.969c7.793 7.383 11.479 15.57 11.479 15.57h0.809c0 0-0.399-11.469-0.399-22.533v-122.092h-62.275v-61.45h195.011v61.45h-62.679v231.485z" />
<glyph unicode="&#xe645;" glyph-name="uniE645" d="M732.554 804.086h-330.829c-40.54 0-73.518-32.983-73.518-73.518h-36.762c-40.535 0-73.518-32.983-73.518-73.518v-496.246c0-40.535 32.983-73.518 73.518-73.518h330.834c40.54 0 73.518 32.983 73.518 73.518h36.756c40.54 0 73.518 32.983 73.518 73.518v496.251c0 40.535-32.978 73.513-73.518 73.513zM622.28 124.042h-330.834c-20.27 0-36.756 16.486-36.756 36.762v496.246c0 20.27 16.486 36.762 36.756 36.762h36.762v-459.489c0-40.54 32.978-73.518 73.518-73.518h257.316c-0.005-20.27-16.492-36.762-36.762-36.762zM769.316 234.322c0-20.27-16.486-36.762-36.756-36.762h-330.834c-20.275 0-36.756 16.486-36.756 36.762v496.251c0 20.27 16.486 36.762 36.756 36.762h330.834c20.275 0 36.756-16.486 36.756-36.762v-496.251zM669.788 535.578c0 55.885-46.694 80.517-89.708 80.517-68.383 0-92.652-56.617-92.652-56.617l47.795-31.99c0 0 13.962 27.94 38.968 27.94 13.604 0 28.314-7.721 28.314-26.097 0-37.873-113.618-55.158-113.618-152.212 0-8.832 1.106-18.022 2.944-28.314h182.001v55.148h-111.775c1.843 33.818 107.73 49.628 107.73 131.625z" />
<glyph unicode="&#xe646;" glyph-name="uniE646" d="M811.238 523.223c-23.311 113.234-113.751 201.764-228.142 221.757v59.105l-84.106-84.070 84.106-84.091v59.848c87.69-18.714 157.071-86.052 178.862-172.549h-61.307l84.070-84.070 84.060 84.070h-57.544zM440.893 195.599c-87.665 18.714-157.061 86.052-178.852 172.529h61.322l-84.070 84.070-84.070-84.070h57.528c23.347-113.213 113.761-201.743 228.142-221.763v-59.080l84.070 84.070-84.070 84.070v-59.827zM359.762 327.572h295.588v261.361h-295.588v-261.361zM395.976 552.765h223.14v-189h-223.14v189z" />
<glyph unicode="&#xe647;" glyph-name="uniE647" d="M835.548 373.791c-7.475 9.329-13.076 13.082-14.956 22.415 14.956 7.501 29.891 37.386 29.891 46.735-1.853 63.519-61.66 76.605-61.66 76.605s0 0-179.389 0c-13.087 1.874-3.743 37.381 3.738 50.452 31.754 56.069 50.463 106.511 50.463 132.695-11.228 128.952-99.057 106.496-102.789 93.43-1.869-130.826-31.78-160.717-65.398-183.148-33.649-22.41-37.386-48.573-76.621-138.276-39.24-89.692-82.222-59.807-82.222-59.807s1.869-28.017 1.869-291.497c220.508-41.129 315.817-35.512 373.745-29.911 57.938 5.596 76.611 44.841 76.611 65.393 0 24.289 7.475 37.407 16.824 42.993 41.114 33.638 28.037 44.841 16.824 69.14-11.218 24.31-7.485 31.785 11.213 48.594 35.492 16.819 9.339 44.856 1.859 54.185zM297.293 424.259h-113.869c-6.241 0-11.279-5.059-11.279-11.295v-296.991c0-6.216 5.038-11.29 11.279-11.29h113.864c6.221 0 11.259 5.069 11.259 11.29v296.991c0.005 6.236-5.033 11.295-11.254 11.295z" />
<glyph unicode="&#xe648;" glyph-name="uniE648" d="M843.628 255.401l-338.181 338.97c-2.662 2.683-5.473 5.089-8.361 7.363 1.894 10.245 2.913 20.782 2.913 31.575 0 95.58-77.307 173.092-172.657 173.092-20.669 0-40.494-3.681-58.865-10.322l101.719-101.965c14.065-14.116 14.065-36.966 0-51.057l-52.598-52.721c-14.070-14.1-36.864-14.1-50.908 0l-101.74 101.98c-6.641-18.427-10.301-38.292-10.301-59.013 0-95.616 77.317-173.087 172.687-173.087 11.192 0 22.118 1.096 32.722 3.154 2.145-2.714 4.419-5.33 6.912-7.834l338.171-338.97c35.86-35.963 94.008-35.963 129.879 0l8.596 8.622c35.871 35.983 35.886 94.249 0.010 130.212zM774.456 132.224c-29.409 0-53.228 23.895-53.228 53.356 0 29.445 23.839 53.345 53.238 53.345 29.389 0 53.202-23.9 53.202-53.345 0.010-29.46-23.818-53.356-53.212-53.356zM298.358 259.517h-49.935l-83.016-136.653 12.631-12.611 7.009-7.045 12.626-12.646 136.3 83.22v50.012l105.472 105.738-35.62 35.676-105.467-105.692zM763.331 753.556c5.048 5.089 13.292 5.089 18.355 0 5.084-5.089 5.084-13.317 0-18.417l-187.653-188.078 23.276-23.337 187.653 188.109c5.064 5.064 13.281 5.064 18.36 0 5.079-5.089 5.079-13.353 0-18.417l-187.658-188.093 28.79-28.836 182.134 182.579c30.438 30.484 30.438 79.928 0 110.454l-7.337 7.357c-30.438 30.515-79.78 30.515-110.203 0l-182.149-182.564 28.78-28.846 187.653 188.088z" />
<glyph unicode="&#xe649;" glyph-name="uniE649" d="M396.887 780.145c134.938 0 244.352-108.18 244.352-241.674 0-46.541-13.496-89.851-36.557-126.73 0.532-0.399 1.101-0.666 1.603-1.152l246.876-216.596c19.789-17.388 21.612-47.299 4.055-66.872-17.536-19.517-47.816-21.32-67.594-3.963l-246.871 216.607c-1.070 0.927-1.864 2.043-2.821 3.052-40.248-28.846-89.58-46.029-143.043-46.029-135.004 0-244.408 108.196-244.408 241.679-0.005 133.504 109.404 241.679 244.408 241.679zM396.887 346.614c107.11 0 193.992 85.914 193.992 191.857 0 105.984-86.881 191.857-193.992 191.857-107.162 0-194.028-85.873-194.028-191.857-0.005-105.943 86.866-191.857 194.028-191.857zM395.899 665.39c11.003 1.879 21.53-5.396 23.439-16.256 1.966-10.947-5.432-21.335-16.43-23.26v0c0 0-0.512-0.061-2.447-0.548-14.259-3.451-75.72-22.036-100.495-88.832-3.011-8.095-10.747-13.071-19-13.071-2.33 0-4.7 0.394-7.040 1.254-10.47 3.85-15.846 15.386-11.95 25.748 37.55 98.196 131.692 114.478 133.924 114.964z" />
<glyph unicode="&#xe64a;" glyph-name="uniE64A" d="M511.831 627.246c-92.769 223.667-356.49 171.464-358.226-88.115-0.963-142.592 125.573-195.871 209.823-252.872 81.7-55.281 139.837-130.908 148.956-163.087 7.798 31.555 72.561 109.292 148.188 164.628 82.688 60.503 210.785 110.316 209.823 252.882-1.751 260.265-270.049 301.322-358.564 86.564z" />
<glyph unicode="&#xe64b;" glyph-name="uniE64B" d="M790.881 766.561h-39.813c0 14.126-14.413 39.818-39.808 39.818l-439.808 0.020c-14.054 0-37.929-25.708-37.929-39.839v-39.828h79.616v-119.465h-79.621v-79.652h79.621v-119.465h-79.621v-79.642h79.621v-119.48h-79.621v-39.834c0 0 22.18-79.606 86.18-79.606h486.82c0 0 23.849 4.787 23.849 23.987l0.323 613.151c0 0.005-19.139 39.834-39.808 39.834zM392.765 647.096h318.495v-199.112h-318.495v199.112zM790.881 169.206c0 0-12.754-39.808-39.813-39.808h-398.116c0 0-39.813 22.211-39.813 39.808h398.116c14.060 0 39.808 25.687 39.808 39.834v517.693h39.813v-557.527zM193.705 288.686h79.621v-39.813h-79.621v39.813zM193.705 686.915h79.621v-39.823h-79.621v39.823zM273.331 487.798h-79.626v-39.818l76.692 0.020zM432.573 607.273h238.874v-39.828h-238.874v39.828zM432.573 527.621h238.874v-39.823h-238.874v39.823z" />
<glyph unicode="&#xe64c;" glyph-name="uniE64C" d="M186.89 647.071h100.265l111.227-307.41c1.7-4.664 4.296-8.714 7.506-12.022 6.052-6.938 14.874-11.279 24.694-11.279h304.563c18.284 0 33.111 15.109 33.111 33.72 0 18.642-14.828 33.71-33.111 33.71h-282.163l-14.996 41.436h191.739c-22.354 16.010-38.963 39.782-46.029 67.482h-170.112l-14.29 39.516h181.043c2.002 25.61 11.965 48.968 27.377 67.461h-232.832l-33.449 92.416c-4.828 13.358-17.096 21.704-30.244 22.031-1.674 0.282-3.359 0.353-5.094 0.353h-119.204c-18.273 0-33.091-15.063-33.091-33.659 0-18.642 14.817-33.756 33.091-33.756zM755.4 407.24c64.169 0 115.195 51.087 115.195 115.333s-51.026 115.333-115.195 115.333c-64.169 0-115.2-51.087-115.2-115.333s51.031-115.333 115.2-115.333zM691.395 535.393h51.2v51.267h25.6v-51.267h51.2v-25.626h-51.2v-51.272h-25.6v51.272h-51.2v25.626zM688.369 279.639c-21.883 6.758-46.889-7.839-55.849-32.589-8.97-24.765 1.531-50.335 23.429-57.083 21.914-6.758 46.92 7.828 55.885 32.594 8.955 24.755-1.556 50.33-23.465 57.078zM449.203 287.483c-26.527 8.192-56.806-9.482-67.676-39.46-10.819-29.993 1.874-60.943 28.406-69.135 26.527-8.177 56.791 9.477 67.656 39.465 10.839 29.993-1.869 60.943-28.385 69.13z" />
<glyph unicode="&#xe64d;" glyph-name="uniE64D" d="M711.347 703.662c0 51.395-51.333 102.738-102.717 102.738-47.59 0-95.084-44.227-101.862-173.153-6.743 128.947-54.282 173.153-101.837 173.153-51.333 0-102.738-51.343-102.738-102.738 0-97.705 185.559-102.456 203.679-102.676 0-0.046 0-0.046 0-0.092 0.020 0.072 205.476 0.072 205.476 102.769zM608.63 765.332c28.805 0 61.635-32.855 61.635-61.67-0.026-33.905-65.603-52.429-121.6-58.952 6.103 74.532 28.303 120.622 59.965 120.622zM343.316 703.662c0 28.815 32.829 61.67 61.609 61.67 31.662 0 53.832-46.141 59.955-120.678-55.992 6.451-121.564 24.934-121.564 59.008zM256.159 89.6h232.996v294.477h-232.996v-294.477zM214.088 420.142h275.067v165.888h-275.067v-165.888zM535.245 89.6h232.996v294.477h-232.996v-294.477zM535.245 586.030v-165.888h275.067v165.888h-275.067z" />
<glyph unicode="&#xe64e;" glyph-name="uniE64E" d="M687.391 806.4h-350.735c-36.316 0-65.777-29.45-65.777-65.777v-585.267c0-36.306 29.46-65.751 65.777-65.751h350.735c36.316 0 65.731 29.445 65.731 65.751v585.267c0 36.326-29.414 65.777-65.731 65.777zM376.11 157.568c-24.817 0-44.928 20.091-44.928 44.918s20.111 44.938 44.928 44.938 44.938-20.111 44.938-44.938c0.005-24.827-20.122-44.918-44.938-44.918zM376.11 292.367c-24.817 0-44.928 20.111-44.928 44.938 0 24.801 20.111 44.918 44.928 44.918s44.938-20.111 44.938-44.918c0.005-24.827-20.122-44.938-44.938-44.938zM376.11 427.187c-24.817 0-44.928 20.111-44.928 44.913 0 24.837 20.111 44.943 44.928 44.943s44.938-20.101 44.938-44.943c0.005-24.801-20.122-44.913-44.938-44.913zM512.015 157.568c-24.827 0-44.954 20.091-44.954 44.918s20.127 44.938 44.954 44.938c24.827 0 44.938-20.111 44.938-44.938 0.005-24.827-20.111-44.918-44.938-44.918zM512.015 292.367c-24.827 0-44.954 20.111-44.954 44.938 0 24.801 20.127 44.918 44.954 44.918s44.938-20.111 44.938-44.918c0.005-24.827-20.111-44.938-44.938-44.938zM512.015 427.187c-24.827 0-44.954 20.111-44.954 44.913 0 24.837 20.127 44.943 44.954 44.943s44.938-20.101 44.938-44.943c0.005-24.801-20.111-44.913-44.938-44.913zM647.921 157.568c-24.817 0-44.928 20.091-44.928 44.918s20.111 44.938 44.928 44.938c24.827 0 44.938-20.111 44.938-44.938 0.005-24.827-20.111-44.918-44.938-44.918zM647.921 292.367c-24.817 0-44.928 20.111-44.928 44.938 0 24.801 20.111 44.918 44.928 44.918 24.827 0 44.938-20.111 44.938-44.918 0.005-24.827-20.111-44.938-44.938-44.938zM647.921 427.187c-24.817 0-44.928 20.111-44.928 44.913 0 24.837 20.111 44.943 44.928 44.943 24.827 0 44.938-20.101 44.938-44.943 0.005-24.801-20.111-44.913-44.938-44.913zM693.97 631.025c0-10.895-8.842-19.717-19.743-19.717h-324.424c-10.895 0-19.727 8.822-19.727 19.717v92.073c0 10.895 8.832 19.727 19.727 19.727h324.424c10.895 0 19.743-8.832 19.743-19.727v-92.073z" />
<glyph unicode="&#xe64f;" glyph-name="uniE64F" d="M512 788.864l118.134-214.246 240.266-46.152-167.255-178.56 30.392-242.77-221.537 103.9-221.491-103.9 30.346 242.77-167.255 178.56 240.297 46.152 118.103 214.246z" />
<glyph unicode="&#xe650;" glyph-name="uniE650" d="M461.266 575.749l-38.333 38.656c-6.052 6.098-15.862 6.098-21.908 0l-126.536-153.062-55.91 65.746c-6.047 6.108-15.857 6.108-21.903 0l-38.339-38.641c-6.047-6.098-6.047-15.995 0-22.083l105.226-122.46c3.052-3.067 7.060-4.562 11.064-4.541 4.004-0.020 8.013 1.475 11.064 4.541l175.575 209.761c6.057 6.103 6.057 15.985 0 22.083zM448.348 447.514c0 0 0 17.71 0 42.394l-44.268-52.931v-13.942l44.268 24.479zM445.010 636.329l28.068-28.319c17.26 11.351 37.1 12.18 37.1 12.18h254.218c0 0 58.025-1.51 61.834-55.864 0-55.096 0-116.818 0-116.818l44.283-24.484v280.863c0 0-6.103 40.576-55.731 39.055-103.506 0-251.469 0-354.975 0-49.623 1.521-55.721-39.055-55.721-39.055v-54.61c2.601 0.461 5.222 0.804 7.895 0.804 12.477 0 24.207-4.884 33.029-13.752zM777.277 245.361h-0.261c-0.072-0.722-0.067-1.408 0.261 0zM869.745 396.964l-61.358 35v93.307c0 0-7.24 29.558-62.213 31.104-84.065 0-93.317 0-93.317 0h-31.109c0 0-9.257 0-93.317 0-14.515-0.41-25.605-2.801-34.319-6.021-2.181-6.774-5.432-13.23-10.762-18.601l-18.186-21.75v-80.85l-59.551-32.195-1.603-151.603 27.003 3.313c-0.614-2.77 4.101-0.358 4.101-3.313v-62.198c0-21.56 12.355-31.089 33.859-31.089 21.499 0 28.355 9.528 28.355 31.089v62.198h279.695c0.082 0.783 0.261 1.633 0.261 0v-62.198c0-21.56 7.603-31.089 29.112-31.089 21.499 0 33.101 9.528 33.101 31.089v62.198h31.104l-0.855 151.608zM497.321 494.172c0 0-1.393 32.108 31.104 31.099 68.572 0 77.414 0 93.317 0 1.111 0 30.162 0 31.109 0 15.913 0 24.76 0 93.317 0 32.517 1.009 31.104-31.099 31.104-31.099v-62.203l-139.602 0.655-140.355-0.655v62.203zM468.966 311.255c-18.555 0-33.582 15.084-33.582 33.695 0 18.586 15.032 33.679 33.582 33.679s33.582-15.099 33.582-33.679c0-18.611-15.032-33.695-33.582-33.695zM747.848 292.669h-220.349v84.214c0 0-0.486 18.043 17.505 18.043 51.297 0 77.594 0 91.136 0 1.091 0 2.13 0 3.072 0 13.537 0 39.849 0 91.141 0 18.002 0 17.5-18.043 17.5-18.043v-84.214zM806.39 311.255c-18.55 0-33.597 15.084-33.597 33.695 0 18.586 15.048 33.679 33.597 33.679 18.555 0 33.597-15.099 33.597-33.679 0-18.611-15.043-33.695-33.597-33.695z" />
<glyph unicode="&#xe651;" glyph-name="uniE651" d="M329.871 535.455l-136.453 78.735-19.123-33.085 136.463-78.797 19.113 33.147zM511.98 548.869c-84.055 0-152.458-68.413-152.458-152.484 0-54.118 27.356-103.214 70.886-128.845 6.835-4.024 8.776-10.383 8.776-17.582 0-14.080 0-98.99 0-98.99 23.014-6.84 47.411-10.455 72.796-10.455 25.247 0 49.654 3.615 72.801 10.455 0 0 0 80.66 0 98.99 0 7.199 1.915 13.558 8.75 17.582 43.459 25.631 70.897 74.721 70.897 128.845 0 84.070-68.352 152.484-152.448 152.484zM574.131 300.559c-10.245-6.057-27.474-20.731-27.474-50.596 0-6.533 0-39.557 0-39.557-11.259-2.079-22.784-3.292-34.673-3.292-11.924 0-23.368 1.213-34.627 3.292 0 0 0 28.375 0 39.557 0 29.865-17.265 44.544-27.638 50.596-32.072 18.888-51.999 55.613-51.999 95.852 0 62.94 51.297 114.135 114.263 114.135s114.273-51.195 114.273-114.135c0-40.238-20.055-76.964-52.127-95.852zM695.552 479.872l136.407 78.771-19.123 33.167-136.463-78.792 19.18-33.147zM712.924 376.919h157.476v38.231h-157.476v-38.231zM311.132 376.919v38.231h-157.532v-38.231h157.532zM428.17 579.436l-78.807 136.407-33.065-19.123 78.679-136.407 33.193 19.123zM707.558 697.103l-33.193 19.123-78.669-136.407 33.075-19.123 78.787 136.407zM531.092 754.54h-38.252v-157.604h38.252v157.604z" />
<glyph unicode="&#xe652;" glyph-name="uniE652" d="M511.882 808.463c-200.351 0-362.778-162.417-362.778-362.772 0-200.361 162.427-362.778 362.778-362.778 200.356 0 362.778 162.417 362.778 362.778 0 200.356-162.422 362.772-362.778 362.772zM511.882 123.622c-177.587 0-322.068 144.481-322.068 322.068s144.476 322.063 322.068 322.063c177.587 0 322.068-144.476 322.068-322.063s-144.481-322.068-322.068-322.068zM462.423 323.282h103.859v-99.533h-103.859v99.533zM511.882 667.628c-74.803 0-138.481-46.367-138.481-130.442h101.386c0 22.257 11.126 38.948 37.094 38.948 24.73 0 37.094-16.072 37.094-37.714 0-9.892-7.419-24.11-16.691-34.616l-43.274-50.693c-18.55-21.637-25.349-40.801-25.349-68.623v-14.218h101.386v5.565c0 10.511 5.565 22.257 11.126 29.056l42.66 53.786c17.311 22.257 31.529 46.981 31.529 79.13 0 85.929-65.531 129.823-138.481 129.823z" />
<glyph unicode="&#xe653;" glyph-name="uniE653" d="M858.849 667.566l-88.064 88.806c-13.901 14.008-36.444 14.008-50.335 0l-290.698-351.642-128.451 151.040c-13.896 14.029-36.424 14.029-50.319 0l-88.084-88.776c-13.896-14.008-13.896-36.741 0-50.734l241.741-281.334c7.014-7.050 16.225-10.486 25.421-10.435 9.196-0.051 18.406 3.384 25.426 10.435l403.364 481.9c13.901 14.034 13.901 36.731 0 50.739z" />
<glyph unicode="&#xe654;" glyph-name="uniE654" d="M512.010 805.929c-197.929 0-358.4-160.461-358.4-358.395 0-146.755 88.248-272.829 214.528-328.259-1.009 25.027-0.179 55.071 6.236 82.299 6.892 29.097 46.116 195.287 46.116 195.287s-11.448 22.881-11.448 56.709c0 53.11 30.787 92.774 69.12 92.774 32.599 0 48.348-24.484 48.348-53.806 0-32.773-20.9-81.787-31.647-127.191-8.98-38.016 19.062-69.028 56.571-69.028 67.901 0 113.638 87.214 113.638 190.546 0 78.551-52.905 137.344-149.13 137.344-108.718 0-176.445-81.075-176.445-171.633 0-31.222 9.206-53.243 23.629-70.292 6.63-7.834 7.552-10.982 5.151-19.973-1.72-6.595-5.668-22.472-7.301-28.759-2.386-9.078-9.738-12.324-17.946-8.97-50.074 20.444-73.395 75.279-73.395 136.924 0 101.806 85.862 223.882 256.148 223.882 136.832 0 226.888-99.016 226.888-205.307 0-140.595-78.162-245.627-193.377-245.627-38.692 0-75.090 20.915-87.557 44.672 0 0-20.808-82.575-25.216-98.519-7.598-27.633-22.472-55.25-36.070-76.774 32.236-9.518 66.284-14.7 101.576-14.7 197.914 0 358.38 160.461 358.38 358.405-0.015 197.929-160.481 358.39-358.395 358.39z" />
<glyph unicode="&#xe655;" glyph-name="uniE655" d="M512 804.086c-137.088 0-248.223-106.972-248.223-238.93 0-131.963 248.223-477.87 248.223-477.87s248.228 345.907 248.228 477.87c-0.005 131.963-111.14 238.93-248.228 238.93zM512.184 417.224c-76.124 0-137.841 61.711-137.841 137.841 0 76.124 61.716 137.841 137.841 137.841 76.129 0 137.841-61.716 137.841-137.841 0-76.129-61.711-137.841-137.841-137.841z" />
<glyph unicode="&#xe656;" glyph-name="uniE656" d="M153.8 495.237h409.82v191.386l306.98-239.206-306.98-239.242v191.37h-409.82v95.693z" />
<glyph unicode="&#xe657;" glyph-name="uniE657" d="M559.836 805.796v-409.82h191.386l-239.206-306.98-239.242 306.98h191.37v409.82h95.693z" />
<glyph unicode="&#xe658;" glyph-name="uniE658" d="M464.358 88.996v409.82h-191.386l239.206 306.98 239.242-306.98h-191.37v-409.82h-95.693z" />
<glyph unicode="&#xe659;" glyph-name="uniE659" d="M870.4 399.56h-409.82v-191.386l-306.98 239.201 306.98 239.242v-191.37h409.82v-95.688z" />
<glyph unicode="&#xe65a;" glyph-name="uniE65A" d="M787.712 503.168h-62.403c4.547-17.649 7.229-36.091 7.229-55.158 0-121.825-98.739-220.554-220.544-220.554-121.8 0-220.544 98.729-220.544 220.554 0 19.067 2.698 37.509 7.245 55.158h-62.408v-303.283c0-15.206 12.349-27.546 27.597-27.546h496.225c15.247 0 27.597 12.344 27.597 27.546v303.283zM787.712 696.141c0 15.217-12.349 27.566-27.597 27.566h-82.688c-15.232 0-27.566-12.349-27.566-27.566v-82.724c0-15.217 12.334-27.566 27.566-27.566h82.688c15.247 0 27.597 12.349 27.597 27.566v82.724zM511.995 585.856c-76.134 0-137.846-61.706-137.846-137.841 0-76.124 61.711-137.861 137.846-137.861s137.861 61.737 137.861 137.861c0 76.134-61.722 137.841-137.861 137.841zM787.712 89.605h-551.424c-45.665 0-82.688 37.038-82.688 82.734v551.368c0 45.67 37.028 82.688 82.688 82.688h551.424c45.67 0 82.688-37.018 82.688-82.688v-551.368c0-45.696-37.023-82.734-82.688-82.734z" />
<glyph unicode="&#xe65b;" glyph-name="uniE65B" d="M870.4 445.691c0-197.939-160.461-358.4-358.4-358.4s-358.4 160.461-358.4 358.4c0 197.939 160.461 358.4 358.4 358.4s358.4-160.461 358.4-358.4zM460.621 556.652h-21.888v-33.475h-33.48v-21.903h33.48v-33.485h21.888v33.485h33.48v21.903h-33.48zM704.507 308.951l-95.744 88.776c-7.992 7.409-19.338 8.919-28.708 4.767l-15.805 14.653c20.844 25.539 33.362 58.122 33.362 93.66 0 81.853-66.355 148.219-148.219 148.219-81.869 0-148.224-66.371-148.224-148.219 0-81.864 66.355-148.219 148.224-148.219 38.339 0 73.272 14.556 99.584 38.446l16.486-15.288c-2.734-9.324-0.302-19.794 7.301-26.844l95.759-88.771c10.721-9.948 27.464-9.303 37.402 1.408 9.933 10.726 9.303 27.469-1.418 37.412zM449.398 406.113c-57.815 0-104.694 46.879-104.694 104.694s46.879 104.694 104.694 104.694c57.815 0 104.694-46.879 104.694-104.694s-46.884-104.694-104.694-104.694z" />
<glyph unicode="&#xe65c;" glyph-name="uniE65C" d="M153.482 699.781v-508.18h716.8v508.18h-716.8zM351.652 618.209c41.513 0 75.167-33.946 75.167-75.853 0-41.866-33.654-75.807-75.167-75.807-41.508 0-75.156 33.94-75.156 75.807 0 41.907 33.649 75.853 75.156 75.853zM461.763 310.246h-229.299v14.592c0 63.867 51.328 115.651 114.647 115.651s114.647-51.784 114.647-115.651v-14.592zM779.387 282.378h-239.928v29.793h239.928v-29.793zM779.387 342.518h-239.928v29.804h239.928v-29.804zM779.387 402.668h-239.928v29.778h239.928v-29.778zM779.387 462.817h-239.928v29.773h239.928v-29.773zM779.387 522.936h-239.928v29.809h239.928v-29.809zM779.387 583.076h-239.928v29.829h239.928v-29.829z" />
<glyph unicode="&#xe65d;" glyph-name="uniE65D" d="M836.751 647.46l-415.355 35.569c-17.966 0-38.103-14.556-32.512-32.512l67.046-249.733c7.619-22.518 25.155-22.774 43.121-22.774h313.318c17.966 0 32.512 14.587 32.512 32.527l24.397 199.931c-0.005 17.961-9.989 34.949-32.527 36.992zM774.39 340.378h-352.061l-111.14 406.164-135.521 10.813c-48.799-24.724-5.437-71.25-5.437-71.25l90.404-1.981 119.967-412.882h391.404c57.605 39.992 2.386 69.135 2.386 69.135zM460.616 247.864c-31.432 0-56.919-25.492-56.919-56.924 0-31.442 25.492-56.919 56.919-56.919 31.432 0 56.919 25.482 56.919 56.919 0.005 31.432-25.487 56.924-56.919 56.924zM718.31 246.845c-31.176 0-56.433-25.262-56.433-56.422 0-31.15 25.257-56.407 56.433-56.407 31.16 0 56.417 25.257 56.417 56.407 0 31.165-25.257 56.422-56.417 56.422z" />
<glyph unicode="&#xe65e;" glyph-name="uniE65E" d="M507.622 667.75c34.381 0 69.443 32.527 69.443 66.944 0 34.36-33.367 69.391-67.784 69.391-34.396 0-68.598-35.866-68.598-70.231 0-34.417 32.522-66.104 66.939-66.104zM643.118 571.761c0 33.761 2.243 30.52 0 51.61-8.607 25.805-25.805 34.396-43.013 34.396-36.772 0-48.963 0-77.384 0-34.534 0-51.313 0.092-85.729 0.092-17.198 0-28.411 1.167-41.16-10.455-17.382-19.707-15.657-21.443-15.657-76.477 0-27.197 0-74.665 0-105.037 0-27.162-4.593-69.437 22.636-69.437 25.805 0 25.574 18.412 25.574 45.875 0 38.758-0.092 48.814-0.092 71.706 0 25.047-1.444 29.307 3.594 29.307 5.089 0 5.038-0.317 5.038-26.947 0-24.617-0.184-371.794-0.184-391.859 0-17.198 9.17-35.604 35.072-35.604 25.82 0 36.608 15.109 36.608 32.317 0 30.986 0 165.924 0 180.598 0 17.208 0.584 25.528 4.833 25.528 4.337 0 3.758-8.32 3.758-25.528 0-15.519 0-148.818 0-180.598 0-10.685 11.361-33.951 37.171-33.951 17.198 0 33.014 22.118 33.014 33.603 0 68.777 0.394 374.897 0.394 396.549 0 11.725-1.004 26.634 3.384 26.634s4.316-4.040 4.316-20.956c0-19.4 0-39.045 0-66.232 0-45.245 7.025-57.134 24.218-57.134 25.805 0 23.613 44.186 23.613 68.797-0.005 33.551-0.005 69.089-0.005 103.204z" />
<glyph unicode="&#xe65f;" glyph-name="uniE65F" d="M635.197 573.21c-8.658 34.519-8.658 25.897-17.265 51.773-8.637 25.902-25.902 34.545-43.167 34.545-36.915 0-14.628 0-43.141 0-34.708 0-34.534 0-69.043 0-17.27 0-43.167-8.643-51.799-34.545-8.632-25.876-8.632-25.876-17.265-51.773-8.637-25.902-25.902-77.676-34.514-103.578-8.658-25.902-25.912-60.411 0-69.033 25.876-8.643 43.146 43.131 51.779 69.033 8.637 25.902 8.637 25.902 17.27 51.779 1.843 4.726 5.274 19.717 11.991 17.219 4.224-1.705 0-7.547-3.384-17.219-6.682-24.412-60.416-189.891-60.416-189.891h69.064c0 0 0-186.993 0-207.13 0-17.27 5.949-34.79 29.399-34.79 22.912 0 31.032 17.526 31.032 34.79 0 31.104 0 166.508 0 181.253 0 17.244 0.548 25.62 4.833 25.62 4.362 0 3.779-8.376 3.779-25.62 0-15.585 0-149.356 0-181.253 0-10.711 5.391-34.278 30.74-34.278 22.938 0 29.67 22.753 29.67 34.278 0 69.043 0 207.13 0 207.13h69.043c0 0-46.807 163.825-53.504 190.31-2.565 12.134-5.903 16.681-1.679 19.297 5.832 1.587 2.847-0.722 12.042-28.329 8.632-25.897 8.632-25.897 17.27-51.799 5.975-17.848 17.265-60.401 34.509-60.401 25.902 0 34.534 17.254 17.265 69.033-18.202 54.6-25.897 77.676-34.509 103.578zM516.429 669.573c34.534 0 69.699 32.62 69.699 67.154 0 34.509-33.485 69.673-68.019 69.673-34.483 0-68.833-36.004-68.833-70.513 0.005-34.534 32.645-66.314 67.154-66.314z" />
<glyph unicode="&#xe660;" glyph-name="uniE660" d="M687.508 806.4h-350.735c-36.316 0-65.777-29.45-65.777-65.777v-585.267c0-36.306 29.455-65.751 65.777-65.751h350.735c36.316 0 65.731 29.445 65.731 65.751v585.267c0 36.326-29.414 65.777-65.731 65.777zM512.133 126.848c-24.827 0-44.954 20.091-44.954 44.918s20.127 44.938 44.954 44.938c24.827 0 44.938-20.111 44.938-44.938s-20.111-44.918-44.938-44.918zM679.158 309.279c0-16.896-13.824-30.72-30.72-30.72h-272.64c-16.896 0-30.72 13.824-30.72 30.72v372.48c0 16.896 13.824 30.72 30.72 30.72h272.64c16.896 0 30.72-13.824 30.72-30.72v-372.48z" />
<glyph unicode="&#xe661;" glyph-name="uniE661" d="M738.109 723.64c-61.691 50.248-140.349 80.445-226.109 80.445-85.755 0-164.408-30.193-226.094-80.435-80.691-65.705-132.306-165.78-132.306-277.97 0-112.184 51.615-212.244 132.306-277.965 61.686-50.232 140.339-80.425 226.094-80.425 85.76 0 164.419 30.203 226.109 80.445 80.686 65.705 132.291 165.775 132.291 277.944 0 112.189-51.604 212.244-132.291 277.96zM668.124 205.015c-0.563-0.353-1.208-0.696-1.751-1.050-7.798-5.038-15.898-9.615-24.202-13.885-2.156-1.085-4.337-2.099-6.528-3.149-6.871-3.287-13.937-6.328-21.105-9.093-2.939-1.116-5.883-2.237-8.883-3.251-6.682-2.304-13.537-4.337-20.48-6.154-3.359-0.876-6.646-1.818-10.020-2.586-7.101-1.613-14.382-2.801-21.688-3.85-3.18-0.486-6.328-1.116-9.549-1.469-10.491-1.152-21.089-1.889-31.913-1.889-10.793 0-21.473 0.732-31.913 1.889-3.22 0.353-6.333 0.983-9.518 1.469-7.311 1.050-14.587 2.237-21.683 3.85-3.395 0.768-6.717 1.71-10.061 2.586-6.907 1.818-13.763 3.85-20.444 6.154-3.005 1.014-5.944 2.135-8.919 3.251-7.168 2.765-14.218 5.806-21.084 9.093-2.171 1.050-4.378 2.063-6.564 3.149-8.264 4.27-16.328 8.847-24.131 13.85-0.573 0.353-1.208 0.701-1.802 1.085-26.721 17.418-50.381 39.173-69.985 64.251-38.052 48.65-60.943 109.824-60.943 176.415 0 66.632 22.892 127.764 60.943 176.451 19.604 25.114 43.264 46.868 70.026 64.287 0.553 0.353 1.121 0.63 1.644 0.983 7.839 5.074 15.985 9.651 24.284 13.952 2.15 1.050 4.321 2.063 6.456 3.082 6.922 3.318 13.988 6.328 21.197 9.124 2.934 1.157 5.873 2.237 8.878 3.256 6.682 2.34 13.537 4.332 20.444 6.154 3.343 0.876 6.666 1.853 10.061 2.591 7.096 1.608 14.372 2.796 21.683 3.881 3.18 0.456 6.298 1.085 9.518 1.434 10.44 1.157 21.12 1.889 31.913 1.889 10.824 0 21.422-0.732 31.913-1.889 3.22-0.348 6.369-1.014 9.549-1.469 7.311-1.050 14.587-2.237 21.688-3.845 3.369-0.732 6.656-1.715 10.020-2.591 6.943-1.818 13.763-3.809 20.444-6.154 3.011-1.019 5.98-2.099 8.919-3.256 7.204-2.796 14.234-5.806 21.105-9.124 2.186-1.019 4.367-2.033 6.492-3.118 8.3-4.229 16.44-8.847 24.238-13.85 0.543-0.384 1.188-0.696 1.751-1.050 26.68-17.454 50.36-39.173 69.944-64.251 38.072-48.686 60.995-109.86 60.995-176.486 0-66.591-22.886-127.729-60.959-176.379-19.584-25.108-43.259-46.833-69.98-64.287zM715.689 424.632c0-18.647-15.073-33.72-33.674-33.72h-160.364c-60.754-0.625-52.936 52.956-52.936 52.956v160.323c0 18.642 15.094 33.684 33.684 33.684 18.575 0 33.664-15.043 33.664-33.684v-145.915h145.951c18.596 0 33.674-15.073 33.674-33.644z" />
<glyph unicode="&#xe662;" glyph-name="uniE662" d="M512.2 278.851l189.722-189.722v683.459c0 18.34-15.002 33.341-33.341 33.341h-312.765c-18.335 0-33.341-15.002-33.341-33.341v-683.459l189.727 189.722z" />
<glyph unicode="&#xe663;" glyph-name="uniE663" d="M870.4 534.948c-26.312-13.998-52.946-27.428-78.874-42.112-60.908-34.499-121.472-69.601-183.946-105.472 0 34.714 0 67.743 0 103.373-92.846-3.103-185.354-0.881-259.415-75.141 5.96 15.222 9.779 31.78 18.268 45.43 29.875 48.005 76.324 75.899 127.073 96.154 36.234 14.459 74.22 24.535 111.048 36.449 0 30.561 0 63.795 0 97.024 1.265 0 2.529 0 3.799 0 87.347-50.637 174.689-101.268 262.036-151.905 0.010-1.27 0.010-2.534 0.010-3.799zM221.164 558.213c71.071 0 140.426 0 211.814 0 0 15.923-1.019 30.408 0.271 44.682 1.428 15.775-5.192 19.267-19.702 19.108-60.754-0.65-121.513-0.266-182.272-0.276-50.222-0.010-76.416-23.91-76.959-74.189-0.983-91.761-0.952-183.547 0.056-275.308 0.486-44.406 26.040-71.163 65.971-71.265 143.037-0.364 286.070-0.287 429.107-0.026 32.594 0.061 61.609 23.096 63.852 55.178 2.801 40.084 0.671 80.517 0.671 121.754-21.827 0-41.718 0-63.974 0 0-37.868 0-74.762 0-112.123-143.964 0-285.558 0-428.841 0 0.005 98.207 0.005 194.545 0.005 292.465z" />
<glyph unicode="&#xe664;" glyph-name="dz_icon-delivery" d="M788.419 551.229h-127.283v88.612h-359.096l0.445-343.204h75.756c6.533-25.902 30.034-45.128 57.938-45.128 28.027 0 51.61 19.4 58.025 45.476h182.687c6.42-26.071 29.998-45.476 58.025-45.476 27.95 0 51.471 19.287 57.969 45.245h77.85v123.628l-82.314 130.847zM436.183 281.385c-16.476 0-29.875 13.404-29.875 29.875s13.399 29.875 29.875 29.875c16.476 0 29.875-13.404 29.875-29.875-0.005-16.476-13.399-29.875-29.875-29.875zM493.865 326.856c-6.876 25.405-30.136 44.15-57.682 44.15-27.674 0-51.011-18.913-57.769-44.493h-46.049v283.453h298.9l0.717-283.11h-138.117zM661.847 521.354h110.075l47.488-75.484h-157.563v75.484zM734.92 281.385c-16.476 0-29.875 13.404-29.875 29.875s13.399 29.875 29.875 29.875c16.476 0 29.875-13.404 29.875-29.875 0-16.476-13.399-29.875-29.875-29.875zM840.863 326.63h-48.205c-6.799 25.523-30.106 44.375-57.743 44.375-27.546 0-50.806-18.744-57.682-44.15h-15.391v89.144h176.353l2.662-4.229v-85.14zM227.072 385.224h45.133v-29.875h-45.133v29.875zM196.531 431.263h75.489v-29.875h-75.489v29.875zM153.262 475.018h118.446v-29.875h-118.446v29.875z" />
<glyph unicode="&#xe665;" glyph-name="dz_icon-leftrotate" d="M653.21 773.248c-0.466 0.302-0.794 0.701-1.306 0.906-42.865 18.785-90.138 29.425-139.863 29.916-0.138 0-0.302 0-0.44 0-0.072 0-0.143 0-0.21 0-7.885 0.072-15.667-0.236-23.404-0.722-5.412-0.302-10.783-0.819-16.159-1.377-0.824-0.092-1.669-0.138-2.529-0.21v-0.072c-62.72-6.861-120.75-29.727-169.498-64.845l-35.036 51.661c-2.063 3.036-5.704 4.48-9.277 3.732-3.594-0.748-6.323-3.569-6.999-7.188l-21.75-120.008-15.309-84.675c-0.512-2.729 0.256-5.458 2.079-7.537 1.705-1.935 4.127-3.036 6.671-3.057 0.184 0 0.374 0.026 0.558 0.026l202.291 10.757c3.63 0.184 6.733 2.473 7.956 5.903 1.249 3.359 0.384 7.163-2.273 9.59l-44.216 41.697c27.699 17.992 59.469 30.054 93.64 34.601l0.072-1.004c10.429 1.331 21.023 2.217 31.872 2.099 126.991-1.26 228.905-105.236 227.64-232.212-1.26-126.981-105.236-228.905-232.212-227.645-126.981 1.285-228.905 105.257-227.645 232.238 0.092 11.085 1.285 21.888 2.893 32.527l-122.476 46.244c-5.463-24.269-8.586-49.418-8.847-75.32-1.981-197.965 156.872-360.013 354.811-361.974s359.992 156.872 361.948 354.831c1.48 147.436-86.323 274.811-212.982 331.116z" />
<glyph unicode="&#xe666;" glyph-name="dz_icon-rightrotate2" d="M366.812 775.086c0.456 0.302 0.794 0.701 1.306 0.911 42.865 18.78 90.138 29.425 139.858 29.911 0.143 0 0.292 0 0.43 0 0.072 0 0.143 0 0.22 0 7.885 0.072 15.657-0.23 23.404-0.722 5.412-0.302 10.757-0.84 16.133-1.377 0.85-0.092 1.69-0.143 2.529-0.21v-0.092c62.746-6.84 120.76-29.706 169.508-64.819l35.036 51.661c2.063 3.031 5.714 4.48 9.283 3.732 3.594-0.748 6.323-3.569 6.989-7.188l21.75-120.003 15.319-84.68c0.502-2.729-0.256-5.458-2.089-7.537-1.705-1.935-4.122-3.031-6.661-3.057-0.184 0-0.384 0.026-0.563 0.026l-202.296 10.757c-3.62 0.184-6.723 2.473-7.967 5.903-1.239 3.364-0.364 7.163 2.294 9.59l44.216 41.697c-27.704 17.992-59.489 30.054-93.65 34.606l-0.082-1.004c-10.419 1.326-21.012 2.217-31.872 2.099-126.991-1.26-228.89-105.231-227.63-232.212s105.231-228.9 232.228-227.64c126.981 1.285 228.89 105.231 227.64 232.238-0.108 11.085-1.285 21.888-2.903 32.527l122.491 46.249c5.448-24.269 8.586-49.423 8.842-75.32 1.981-197.96-156.882-360.008-354.806-361.969-197.939-1.961-359.997 156.872-361.958 354.806-1.464 147.436 86.354 274.811 213.002 331.116z" />
<glyph unicode="&#xe667;" glyph-name="not-visible" horiz-adv-x="1205" d="M1199.961 450.921c-3.213 3.795-80.294 94.328-204.358 184.019-8.995 6.505-21.524 4.477-28.029-4.518-6.485-8.975-4.477-21.524 4.498-28.029 93.264-67.403 160.326-136.774 185.866-164.663-52.405-59.031-283.447-300.514-555.59-300.514-42.406 0-103.705 3.253-154.785 18.793-10.561 3.192-21.825-2.791-25.058-13.372-3.213-10.621 2.771-21.845 13.392-25.078 55.798-16.946 121.314-20.5 166.45-20.5 171.731 0 325.291 89.469 423.896 164.503 106.054 80.735 171.249 160.387 173.96 163.74 6.084 7.489 6.003 18.251-0.241 25.62zM209.187 242.588c3.554-2.57 7.67-3.815 11.746-3.815 6.244 0 12.368 2.891 16.284 8.312 6.505 8.975 4.498 21.524-4.477 28.029-20.6 14.918-37.747 27.106-52.385 37.486-67.785 48.168-79.752 56.681-134.546 125.269 49.674 59.894 282.363 321.335 556.534 321.335 39.555 0 72.824-8.513 111.375-18.392l4.136-1.044c10.742-2.751 21.665 3.735 24.415 14.456 2.751 10.762-3.735 21.685-14.477 24.435l-4.116 1.064c-39.454 10.099-76.72 19.637-121.334 19.637-327.74 0-587.334-334.968-598.217-349.224-5.582-7.288-5.481-17.448 0.201-24.636 67.162-84.811 78.567-92.903 152.777-145.629 14.537-10.34 31.583-22.448 52.083-37.286zM381.49 437.961c0-11.083 8.995-20.078 20.078-20.078s20.078 8.995 20.078 20.078c0 101.336 79.37 180.706 180.706 180.706 11.083 0 20.078 8.995 20.078 20.078s-8.995 20.078-20.078 20.078c-123.864 0-220.863-97.019-220.863-220.863zM783.059 458.039c0-101.336-79.37-180.706-180.706-180.706-11.083 0-20.078-8.995-20.078-20.078s8.995-20.078 20.078-20.078c123.864 0 220.863 97.019 220.863 220.863 0 11.083-8.995 20.078-20.078 20.078s-20.078-8.995-20.078-20.078zM1098.284 954.266c-7.891 7.75-20.621 7.63-28.391-0.301l-963.765-983.843c-7.77-7.911-7.63-20.621 0.301-28.391 3.895-3.835 8.975-5.722 14.035-5.722 5.22 0 10.421 2.008 14.356 6.024l963.765 983.843c7.75 7.911 7.61 20.641-0.301 28.391z" />
<glyph unicode="&#xe668;" glyph-name="Fill404" d="M808.631 217.287h-65.918v-65.918h-461.426v65.918h-65.918v461.426h65.918v65.918h461.426v-65.918h65.918v-461.426zM874.549 85.451h-98.877v98.877h98.877v-98.877zM248.328 85.451h-98.877v98.877h98.877v-98.877zM149.451 810.549h98.877v-98.877h-98.877v98.877zM775.672 810.549h98.877v-98.877h-98.877v98.877zM907.508 678.713v164.795h-164.795v-65.918h-461.426v65.918h-164.795v-164.795h65.918v-461.426h-65.918v-164.795h164.795v65.918h461.426v-65.918h164.795v164.795h-65.918v461.426h65.918z" />
<glyph unicode="&#xe669;" glyph-name="Fill2291Fill2292Fill2293" horiz-adv-x="1059" d="M172.735 374.795l-169.772-288.627c-3.531-6.003-3.213-13.524 0.812-19.174s10.982-8.474 17.867-7.062l161.262 32.238 48.022-144.102c2.119-6.356 7.627-10.982 14.265-11.9 0.847-0.141 1.66-0.177 2.507-0.177 5.72 0 11.193 2.79 14.513 7.592l155.683 224.715c-106.072 34.286-193.924 109.286-245.16 206.495zM1057.308 103.964l-148.056 246.713c-55.119-89.9-142.83-157.625-246.572-186.898l133.544-219.348c3.213-5.261 8.934-8.439 15.078-8.439 0.636 0 1.271 0.035 1.907 0.106 6.815 0.742 12.57 5.332 14.795 11.829l49.788 145.655 162.604-16.278c6.78-0.6 13.1 2.472 16.702 8.121 3.566 5.65 3.637 12.818 0.212 18.538zM627.733 533.465l45.197-135.556-120.408 75.423c-1.448 0.918-3.072 1.342-4.696 1.342s-3.249-0.424-4.696-1.342l-120.408-75.423 45.197 135.556c1.165 3.46 0.071 7.239-2.719 9.569l-87.217 72.669h99.222c3.354 0 6.391 1.871 7.91 4.873l62.711 125.458 62.711-125.458c1.518-3.001 4.555-4.873 7.91-4.873h99.222l-87.217-72.669c-2.79-2.33-3.884-6.109-2.719-9.569zM936.24 571.565c0 214.193-174.257 388.414-388.414 388.414s-388.414-174.221-388.414-388.414c0-214.157 174.257-388.414 388.414-388.414s388.414 174.257 388.414 388.414z" />
<glyph unicode="&#xe66a;" glyph-name="Group" horiz-adv-x="1062" d="M272.683 538.35l125.158 17.887-169.863-169.863-125.131-17.861 169.836 169.836zM464.885 596.464c-4.13 4.13-10.083 6.222-16.117 5.337l-187.724-26.818c-4.049-0.563-7.804-2.44-10.7-5.337l-214.541-214.541c-5.793-5.793-7.214-14.616-3.567-21.91 3.62-7.268 11.532-11.424 19.657-10.271l187.724 26.818c4.049 0.563 7.804 2.44 10.727 5.364l214.541 214.541c5.766 5.766 7.187 14.589 3.54 21.883-0.939 1.85-2.119 3.513-3.54 4.934v0zM469.337 145.015l169.836 169.836-17.861-125.131-169.863-169.863 17.887 125.158zM679.4 381.895c-1.421 1.421-3.057 2.628-4.908 3.567-7.294 3.647-16.117 2.226-21.91-3.567l-214.541-214.541c-2.896-2.896-4.774-6.651-5.337-10.7l-26.818-187.724c-1.18-8.099 3.030-16.010 10.271-19.657 7.294-3.647 16.117-2.226 21.883 3.54l214.541 214.541c2.923 2.923 4.8 6.678 5.364 10.727l26.818 187.724c0.885 6.034-1.234 11.961-5.364 16.091v0zM572.142 489.179c-7.402 7.402-19.416 7.402-26.818 0l-321.812-321.812c-7.402-7.402-7.402-19.416 0-26.818s19.416-7.402 26.818 0l321.812 321.812c7.402 7.402 7.402 19.416 0 26.818zM384.419 301.456c-57.899 57.899-73.293 114.431-40.227 147.497l415.674 415.674c45.456 45.456 173.51 51.007 236.666 48.942 2.038-63.182-3.54-191.264-48.942-236.666l-415.674-415.674c-33.066-33.066-89.598-17.673-147.497 40.227zM1028.043 945.080c-3.138 3.138-7.402 5.203-12.148 5.498-8.582 0.59-210.546 13.167-282.846-59.133l-415.674-415.674c-48.862-48.862-33.066-127.84 40.227-201.133s152.271-89.088 201.133-40.227l415.674 415.674c72.3 72.3 59.723 274.264 59.133 282.846-0.295 4.747-2.36 9.011-5.498 12.148zM1023.433 809.369c-2.172 2.172-4.934 3.862-8.099 4.774-59.053 17.324-100.915 59.187-118.212 118.212-2.896 10.137-13.436 15.849-23.519 12.899-10.057-2.923-15.822-13.462-12.872-23.492 7.375-25.182 22.473-61.466 52.509-91.502s66.32-45.134 91.475-52.482c10.030-2.95 20.569 2.816 23.492 12.872 2.038 6.865-0.027 13.972-4.774 18.719z" />
<glyph unicode="&#xe66b;" glyph-name="Group2" d="M512 924.69c-262.85 0-476.69-213.839-476.69-476.69s213.839-476.69 476.69-476.69c262.85 0 476.69 213.839 476.69 476.69s-213.839 476.69-476.69 476.69zM512-64c-282.306 0-512 229.694-512 512s229.694 512 512 512c282.306 0 512-229.694 512-512s-229.694-512-512-512zM561.897 480.242c-4.52 0-9.039 1.73-12.5 5.155-6.886 6.921-6.886 18.079 0 25l197.279 197.244c6.921 6.921 18.079 6.921 24.964 0 6.921-6.886 6.921-18.044 0-24.964l-197.244-197.279c-3.46-3.425-7.98-5.155-12.5-5.155zM194.207 430.345h-70.621c-9.746 0-17.655 7.91-17.655 17.655s7.91 17.655 17.655 17.655h70.621c9.746 0 17.655-7.91 17.655-17.655s-7.91-17.655-17.655-17.655zM218.412 551.932c-2.26 0-4.555 0.424-6.744 1.342l-65.254 27.048c-9.004 3.708-13.277 14.054-9.569 23.058 3.778 9.004 14.159 13.277 23.093 9.569l65.218-27.048c9.004-3.743 13.277-14.089 9.569-23.058-2.825-6.815-9.393-10.911-16.313-10.911zM287.31 655.035c-4.52 0-9.039 1.73-12.5 5.155l-49.929 49.964c-6.886 6.886-6.886 18.044 0 24.964 6.921 6.886 18.079 6.886 24.964 0l49.964-49.929c6.886-6.921 6.886-18.079 0-25-3.46-3.425-7.98-5.155-12.5-5.155zM390.381 723.933c-6.921 0-13.489 4.096-16.313 10.911l-27.012 65.218c-3.708 9.039 0.565 19.35 9.569 23.093 9.075 3.672 19.35-0.6 23.058-9.569l27.012-65.254c3.708-9.004-0.565-19.315-9.569-23.058-2.189-0.918-4.52-1.342-6.744-1.342zM512 748.103c-9.746 0-17.655 7.91-17.655 17.655v70.621c0 9.746 7.91 17.655 17.655 17.655s17.655-7.91 17.655-17.655v-70.621c0-9.746-7.91-17.655-17.655-17.655zM633.588 723.933c-2.26 0-4.555 0.424-6.744 1.342-9.004 3.743-13.277 14.089-9.569 23.093l27.083 65.218c3.743 9.004 14.124 13.241 23.058 9.534 9.004-3.743 13.277-14.089 9.569-23.093l-27.083-65.218c-2.825-6.78-9.393-10.876-16.313-10.876zM805.588 551.932c-6.921 0-13.524 4.096-16.313 10.911-3.708 9.004 0.565 19.315 9.569 23.058l65.218 26.977c9.075 3.672 19.421-0.6 23.093-9.569 3.708-9.039-0.565-19.35-9.569-23.058l-65.254-26.977c-2.189-0.918-4.52-1.342-6.744-1.342zM900.378 430.274v0l-70.585 0.035c-9.746 0-17.655 7.91-17.655 17.655s7.91 17.655 17.655 17.655l70.585-0.035c9.746 0 17.655-7.91 17.655-17.655s-7.91-17.655-17.655-17.655zM870.792 281.656c-2.26 0-4.555 0.424-6.744 1.342l-65.218 27.048c-9.004 3.743-13.277 14.054-9.569 23.058 3.778 9.004 14.159 13.277 23.093 9.569l65.183-27.048c9.004-3.743 13.277-14.089 9.569-23.058-2.825-6.815-9.393-10.911-16.313-10.911zM153.173 281.724c-6.921 0-13.489 4.096-16.313 10.911-3.708 8.969 0.565 19.315 9.569 23.058l65.218 27.048c8.969 3.708 19.315-0.565 23.093-9.569 3.708-9.004-0.565-19.35-9.569-23.058l-65.254-27.048c-2.189-0.918-4.484-1.342-6.744-1.342zM353.103 147.862h317.793v70.621h-317.793v-70.621zM688.552 112.552h-353.103c-9.746 0-17.655 7.91-17.655 17.655v105.931c0 9.746 7.91 17.655 17.655 17.655h353.103c9.746 0 17.655-7.91 17.655-17.655v-105.931c0-9.746-7.91-17.655-17.655-17.655v0zM512 500.966c-29.202 0-52.966-23.764-52.966-52.966s23.764-52.966 52.966-52.966c29.202 0 52.966 23.764 52.966 52.966s-23.764 52.966-52.966 52.966zM512 359.724c-48.693 0-88.276 39.618-88.276 88.276s39.583 88.276 88.276 88.276c48.693 0 88.276-39.618 88.276-88.276s-39.583-88.276-88.276-88.276z" />
<glyph unicode="&#xe66c;" glyph-name="Group3" horiz-adv-x="1463" d="M292.571 179.81c-53.784 0-97.524-43.739-97.524-97.524s43.739-97.524 97.524-97.524c53.784 0 97.524 43.739 97.524 97.524s-43.739 97.524-97.524 97.524zM292.571-64c-80.652 0-146.286 65.634-146.286 146.286s65.634 146.286 146.286 146.286c80.652 0 146.286-65.634 146.286-146.286s-65.634-146.286-146.286-146.286zM1170.286 179.81c-53.784 0-97.524-43.739-97.524-97.524s43.739-97.524 97.524-97.524c53.784 0 97.524 43.739 97.524 97.524s-43.739 97.524-97.524 97.524zM1170.286-64c-80.652 0-146.286 65.634-146.286 146.286s65.634 146.286 146.286 146.286c80.652 0 146.286-65.634 146.286-146.286s-65.634-146.286-146.286-146.286zM1438.476 33.524h-148.773c-13.458 0-24.381 10.923-24.381 24.381s10.923 24.381 24.381 24.381h124.392v828.952h-780.19v-121.905c0-13.458-10.923-24.381-24.381-24.381h-278.772l-139.166-231.96c-1.463-2.341-3.218-4.437-5.315-6.193l-137.509-114.59v-329.923h124.977c13.507 0 24.381-10.923 24.381-24.381s-10.874-24.381-24.381-24.381h-149.358c-13.458 0-24.381 10.923-24.381 24.381v365.714c0 7.217 3.17 14.092 8.777 18.725l143.116 119.272 144.14 240.25c4.389 7.363 12.337 11.849 20.919 11.849h268.19v121.905c0 13.458 10.923 24.381 24.381 24.381h828.952c13.458 0 24.381-10.923 24.381-24.381v-877.714c0-13.458-10.923-24.381-24.381-24.381zM1050.858 33.524h-638.878c-13.458 0-24.381 10.923-24.381 24.381s10.923 24.381 24.381 24.381h638.878c13.458 0 24.381-10.923 24.381-24.381s-10.923-24.381-24.381-24.381zM292.571 472.381c-3.657 0-7.363 0.829-10.923 2.584-12.044 5.998-16.872 20.675-10.874 32.719l97.524 195.048c4.145 8.241 12.581 13.458 21.797 13.458h48.762c13.458 0 24.381-10.923 24.381-24.381s-10.923-24.381-24.381-24.381h-33.694l-90.795-181.589c-4.291-8.533-12.873-13.458-21.797-13.458zM609.524 179.81c-13.458 0-24.381 10.923-24.381 24.381v609.524c0 13.458 10.923 24.381 24.381 24.381s24.381-10.923 24.381-24.381v-609.524c0-13.458-10.923-24.381-24.381-24.381zM1438.476 179.81h-1414.095c-13.458 0-24.381 10.923-24.381 24.381s10.923 24.381 24.381 24.381h1414.095c13.458 0 24.381-10.923 24.381-24.381s-10.923-24.381-24.381-24.381z" />
<glyph unicode="&#xe66d;" glyph-name="Group4" horiz-adv-x="1182" d="M827.077 644.923c-4.096 0-8.271 1.3-11.815 3.938-69.671 52.342-160.61 80.463-242.885 74.87-11.855-0.236-20.244 7.522-20.953 18.353-0.748 10.87 7.483 20.204 18.353 20.953 91.294 6.065 192.118-24.812 269.115-82.668 8.704-6.538 10.437-18.905 3.899-27.569-3.82-5.159-9.767-7.877-15.714-7.877zM1063.385 448c-10.87 0-19.692 8.822-19.692 19.692s8.822 19.692 19.692 19.692c44.15 0 78.769 34.58 78.769 78.769 0 10.87 8.822 19.692 19.692 19.692s19.692-8.822 19.692-19.692c0-66.245-51.87-118.154-118.154-118.154zM39.385 329.846h118.154c7.759 0 14.848-4.569 17.999-11.697 63.409-142.73 214.764-224.61 415.232-224.61 249.265 0 452.057 168.527 452.057 375.65 0 205.47-202.791 372.657-452.057 372.657-40.566 0-80.069-0.709-117.484-9.137-8.625-2.009-17.211 1.969-21.465 9.492-35.446 62.425-113.703 93.066-181.721 70.814 35.407-30.247 58.644-72.074 65.3-118.863 1.103-7.798-2.56-15.518-9.334-19.614-102.873-62.346-173.292-163.328-188.416-270.218-1.378-9.689-9.689-16.935-19.495-16.935h-78.769v-157.538zM590.769 54.154c-211.298 0-372.933 85.937-445.794 236.308h-125.282c-10.87 0-19.692 8.822-19.692 19.692v196.923c0 10.87 8.822 19.692 19.692 19.692h81.762c20.638 108.032 91.294 208.778 192.67 274.196-9.413 41.511-35.604 77.036-73.255 98.855-6.105 3.505-9.846 10.004-9.846 17.014 0 7.050 3.742 13.548 9.846 17.054 29.499 17.093 62.976 26.112 96.768 26.112 64.67 0 125.046-32.65 160.807-86.095 36.903 6.695 74.201 7.326 112.325 7.326 271.006 0 491.441-184.832 491.441-412.042 0-228.825-220.436-415.035-491.441-415.035v0zM413.538-64c-10.87 0-19.692 8.822-19.692 19.692v141.785c0 10.87 8.822 19.692 19.692 19.692s19.692-8.822 19.692-19.692v-141.785c0-10.87-8.822-19.692-19.692-19.692zM768-64c-10.87 0-19.692 8.822-19.692 19.692v146.865c0 10.87 8.822 19.692 19.692 19.692s19.692-8.822 19.692-19.692v-146.865c0-10.87-8.822-19.692-19.692-19.692zM315.077 566.154c-10.831 0-19.692-8.822-19.692-19.692s8.862-19.692 19.692-19.692c10.831 0 19.692 8.822 19.692 19.692s-8.862 19.692-19.692 19.692zM315.077 487.385c-32.571 0-59.077 26.506-59.077 59.077s26.506 59.077 59.077 59.077c32.571 0 59.077-26.506 59.077-59.077s-26.506-59.077-59.077-59.077z" />
</font>
</defs>
</svg>
